<svg width="1887" height="1626" viewBox="0 0 1887 1626" fill="none" xmlns="http://www.w3.org/2000/svg">
<ellipse cx="315.5" cy="1.5" rx="1.5" ry="1.5" transform="rotate(90 315.5 1.5)" fill="white" fill-opacity="0.3"/>
<ellipse cx="158.5" cy="1.5" rx="1.5" ry="1.5" transform="rotate(90 158.5 1.5)" fill="white" fill-opacity="0.3"/>
<ellipse cx="472.5" cy="1.5" rx="1.5" ry="1.5" transform="rotate(90 472.5 1.5)" fill="white" fill-opacity="0.3"/>
<ellipse cx="629.5" cy="1.5" rx="1.5" ry="1.5" transform="rotate(90 629.5 1.5)" fill="white" fill-opacity="0.3"/>
<ellipse cx="786.5" cy="1.5" rx="1.5" ry="1.5" transform="rotate(90 786.5 1.5)" fill="white" fill-opacity="0.3"/>
<ellipse cx="943.5" cy="1.5" rx="1.5" ry="1.5" transform="rotate(90 943.5 1.5)" fill="white" fill-opacity="0.3"/>
<ellipse cx="1100.5" cy="1.5" rx="1.5" ry="1.5" transform="rotate(90 1100.5 1.5)" fill="white" fill-opacity="0.3"/>
<ellipse cx="1257.5" cy="1.5" rx="1.5" ry="1.5" transform="rotate(90 1257.5 1.5)" fill="white" fill-opacity="0.3"/>
<ellipse cx="1414.5" cy="1.5" rx="1.5" ry="1.5" transform="rotate(90 1414.5 1.5)" fill="white" fill-opacity="0.3"/>
<ellipse cx="1571.5" cy="1.5" rx="1.5" ry="1.5" transform="rotate(90 1571.5 1.5)" fill="white" fill-opacity="0.3"/>
<ellipse cx="1728.5" cy="1.5" rx="1.5" ry="1.5" transform="rotate(90 1728.5 1.5)" fill="white" fill-opacity="0.3"/>
<ellipse cx="1885.5" cy="1.5" rx="1.5" ry="1.5" transform="rotate(90 1885.5 1.5)" fill="white" fill-opacity="0.3"/>
<ellipse cx="1.5" cy="1.5" rx="1.5" ry="1.5" transform="rotate(90 1.5 1.5)" fill="white" fill-opacity="0.3"/>
<ellipse cx="315.5" cy="433.5" rx="1.5" ry="1.5" transform="rotate(90 315.5 433.5)" fill="white" fill-opacity="0.3"/>
<ellipse cx="158.5" cy="433.5" rx="1.5" ry="1.5" transform="rotate(90 158.5 433.5)" fill="white" fill-opacity="0.3"/>
<ellipse cx="472.5" cy="433.5" rx="1.5" ry="1.5" transform="rotate(90 472.5 433.5)" fill="white" fill-opacity="0.3"/>
<ellipse cx="629.5" cy="433.5" rx="1.5" ry="1.5" transform="rotate(90 629.5 433.5)" fill="white" fill-opacity="0.3"/>
<ellipse cx="786.5" cy="433.5" rx="1.5" ry="1.5" transform="rotate(90 786.5 433.5)" fill="white" fill-opacity="0.3"/>
<ellipse cx="943.5" cy="433.5" rx="1.5" ry="1.5" transform="rotate(90 943.5 433.5)" fill="white" fill-opacity="0.3"/>
<ellipse cx="1100.5" cy="433.5" rx="1.5" ry="1.5" transform="rotate(90 1100.5 433.5)" fill="white" fill-opacity="0.3"/>
<ellipse cx="1257.5" cy="433.5" rx="1.5" ry="1.5" transform="rotate(90 1257.5 433.5)" fill="white" fill-opacity="0.3"/>
<ellipse cx="1414.5" cy="433.5" rx="1.5" ry="1.5" transform="rotate(90 1414.5 433.5)" fill="white" fill-opacity="0.3"/>
<ellipse cx="1571.5" cy="433.5" rx="1.5" ry="1.5" transform="rotate(90 1571.5 433.5)" fill="white" fill-opacity="0.3"/>
<ellipse cx="1728.5" cy="433.5" rx="1.5" ry="1.5" transform="rotate(90 1728.5 433.5)" fill="white" fill-opacity="0.3"/>
<ellipse cx="1885.5" cy="433.5" rx="1.5" ry="1.5" transform="rotate(90 1885.5 433.5)" fill="white" fill-opacity="0.3"/>
<ellipse cx="1.5" cy="433.5" rx="1.5" ry="1.5" transform="rotate(90 1.5 433.5)" fill="white" fill-opacity="0.3"/>
<ellipse cx="315.5" cy="217.5" rx="1.5" ry="1.5" transform="rotate(90 315.5 217.5)" fill="white" fill-opacity="0.3"/>
<ellipse cx="158.5" cy="217.5" rx="1.5" ry="1.5" transform="rotate(90 158.5 217.5)" fill="white" fill-opacity="0.3"/>
<ellipse cx="472.5" cy="217.5" rx="1.5" ry="1.5" transform="rotate(90 472.5 217.5)" fill="white" fill-opacity="0.3"/>
<ellipse cx="629.5" cy="217.5" rx="1.5" ry="1.5" transform="rotate(90 629.5 217.5)" fill="white" fill-opacity="0.3"/>
<ellipse cx="786.5" cy="217.5" rx="1.5" ry="1.5" transform="rotate(90 786.5 217.5)" fill="white" fill-opacity="0.3"/>
<ellipse cx="943.5" cy="217.5" rx="1.5" ry="1.5" transform="rotate(90 943.5 217.5)" fill="white" fill-opacity="0.3"/>
<ellipse cx="1100.5" cy="217.5" rx="1.5" ry="1.5" transform="rotate(90 1100.5 217.5)" fill="white" fill-opacity="0.3"/>
<ellipse cx="1257.5" cy="217.5" rx="1.5" ry="1.5" transform="rotate(90 1257.5 217.5)" fill="white" fill-opacity="0.3"/>
<ellipse cx="1414.5" cy="217.5" rx="1.5" ry="1.5" transform="rotate(90 1414.5 217.5)" fill="white" fill-opacity="0.3"/>
<ellipse cx="1571.5" cy="217.5" rx="1.5" ry="1.5" transform="rotate(90 1571.5 217.5)" fill="white" fill-opacity="0.3"/>
<ellipse cx="1728.5" cy="217.5" rx="1.5" ry="1.5" transform="rotate(90 1728.5 217.5)" fill="white" fill-opacity="0.3"/>
<ellipse cx="1885.5" cy="217.5" rx="1.5" ry="1.5" transform="rotate(90 1885.5 217.5)" fill="white" fill-opacity="0.3"/>
<ellipse cx="1.5" cy="217.5" rx="1.5" ry="1.5" transform="rotate(90 1.5 217.5)" fill="white" fill-opacity="0.3"/>
<ellipse cx="315.5" cy="649.5" rx="1.5" ry="1.5" transform="rotate(90 315.5 649.5)" fill="white" fill-opacity="0.3"/>
<ellipse cx="158.5" cy="649.5" rx="1.5" ry="1.5" transform="rotate(90 158.5 649.5)" fill="white" fill-opacity="0.3"/>
<ellipse cx="472.5" cy="649.5" rx="1.5" ry="1.5" transform="rotate(90 472.5 649.5)" fill="white" fill-opacity="0.3"/>
<ellipse cx="629.5" cy="649.5" rx="1.5" ry="1.5" transform="rotate(90 629.5 649.5)" fill="white" fill-opacity="0.3"/>
<ellipse cx="786.5" cy="649.5" rx="1.5" ry="1.5" transform="rotate(90 786.5 649.5)" fill="white" fill-opacity="0.3"/>
<ellipse cx="943.5" cy="649.5" rx="1.5" ry="1.5" transform="rotate(90 943.5 649.5)" fill="white" fill-opacity="0.3"/>
<ellipse cx="1100.5" cy="649.5" rx="1.5" ry="1.5" transform="rotate(90 1100.5 649.5)" fill="white" fill-opacity="0.3"/>
<ellipse cx="1257.5" cy="649.5" rx="1.5" ry="1.5" transform="rotate(90 1257.5 649.5)" fill="white" fill-opacity="0.3"/>
<ellipse cx="1414.5" cy="649.5" rx="1.5" ry="1.5" transform="rotate(90 1414.5 649.5)" fill="white" fill-opacity="0.3"/>
<ellipse cx="1571.5" cy="649.5" rx="1.5" ry="1.5" transform="rotate(90 1571.5 649.5)" fill="white" fill-opacity="0.3"/>
<ellipse cx="1728.5" cy="649.5" rx="1.5" ry="1.5" transform="rotate(90 1728.5 649.5)" fill="white" fill-opacity="0.3"/>
<ellipse cx="1885.5" cy="649.5" rx="1.5" ry="1.5" transform="rotate(90 1885.5 649.5)" fill="white" fill-opacity="0.3"/>
<ellipse cx="1.5" cy="649.5" rx="1.5" ry="1.5" transform="rotate(90 1.5 649.5)" fill="white" fill-opacity="0.3"/>
<ellipse cx="315.5" cy="109.5" rx="1.5" ry="1.5" transform="rotate(90 315.5 109.5)" fill="white" fill-opacity="0.3"/>
<ellipse cx="158.5" cy="109.5" rx="1.5" ry="1.5" transform="rotate(90 158.5 109.5)" fill="white" fill-opacity="0.3"/>
<ellipse cx="472.5" cy="109.5" rx="1.5" ry="1.5" transform="rotate(90 472.5 109.5)" fill="white" fill-opacity="0.3"/>
<ellipse cx="629.5" cy="109.5" rx="1.5" ry="1.5" transform="rotate(90 629.5 109.5)" fill="white" fill-opacity="0.3"/>
<ellipse cx="786.5" cy="109.5" rx="1.5" ry="1.5" transform="rotate(90 786.5 109.5)" fill="white" fill-opacity="0.3"/>
<ellipse cx="943.5" cy="109.5" rx="1.5" ry="1.5" transform="rotate(90 943.5 109.5)" fill="white" fill-opacity="0.3"/>
<ellipse cx="1100.5" cy="109.5" rx="1.5" ry="1.5" transform="rotate(90 1100.5 109.5)" fill="white" fill-opacity="0.3"/>
<ellipse cx="1257.5" cy="109.5" rx="1.5" ry="1.5" transform="rotate(90 1257.5 109.5)" fill="white" fill-opacity="0.3"/>
<ellipse cx="1414.5" cy="109.5" rx="1.5" ry="1.5" transform="rotate(90 1414.5 109.5)" fill="white" fill-opacity="0.3"/>
<ellipse cx="1571.5" cy="109.5" rx="1.5" ry="1.5" transform="rotate(90 1571.5 109.5)" fill="white" fill-opacity="0.3"/>
<ellipse cx="1728.5" cy="109.5" rx="1.5" ry="1.5" transform="rotate(90 1728.5 109.5)" fill="white" fill-opacity="0.3"/>
<ellipse cx="1885.5" cy="109.5" rx="1.5" ry="1.5" transform="rotate(90 1885.5 109.5)" fill="white" fill-opacity="0.3"/>
<ellipse cx="1.5" cy="109.5" rx="1.5" ry="1.5" transform="rotate(90 1.5 109.5)" fill="white" fill-opacity="0.3"/>
<ellipse cx="315.5" cy="541.5" rx="1.5" ry="1.5" transform="rotate(90 315.5 541.5)" fill="white" fill-opacity="0.3"/>
<ellipse cx="158.5" cy="541.5" rx="1.5" ry="1.5" transform="rotate(90 158.5 541.5)" fill="white" fill-opacity="0.3"/>
<ellipse cx="472.5" cy="541.5" rx="1.5" ry="1.5" transform="rotate(90 472.5 541.5)" fill="white" fill-opacity="0.3"/>
<ellipse cx="629.5" cy="541.5" rx="1.5" ry="1.5" transform="rotate(90 629.5 541.5)" fill="white" fill-opacity="0.3"/>
<ellipse cx="786.5" cy="541.5" rx="1.5" ry="1.5" transform="rotate(90 786.5 541.5)" fill="white" fill-opacity="0.3"/>
<ellipse cx="943.5" cy="541.5" rx="1.5" ry="1.5" transform="rotate(90 943.5 541.5)" fill="white" fill-opacity="0.3"/>
<ellipse cx="1100.5" cy="541.5" rx="1.5" ry="1.5" transform="rotate(90 1100.5 541.5)" fill="white" fill-opacity="0.3"/>
<ellipse cx="1257.5" cy="541.5" rx="1.5" ry="1.5" transform="rotate(90 1257.5 541.5)" fill="white" fill-opacity="0.3"/>
<ellipse cx="1414.5" cy="541.5" rx="1.5" ry="1.5" transform="rotate(90 1414.5 541.5)" fill="white" fill-opacity="0.3"/>
<ellipse cx="1571.5" cy="541.5" rx="1.5" ry="1.5" transform="rotate(90 1571.5 541.5)" fill="white" fill-opacity="0.3"/>
<ellipse cx="1728.5" cy="541.5" rx="1.5" ry="1.5" transform="rotate(90 1728.5 541.5)" fill="white" fill-opacity="0.3"/>
<ellipse cx="1885.5" cy="541.5" rx="1.5" ry="1.5" transform="rotate(90 1885.5 541.5)" fill="white" fill-opacity="0.3"/>
<ellipse cx="1.5" cy="541.5" rx="1.5" ry="1.5" transform="rotate(90 1.5 541.5)" fill="white" fill-opacity="0.3"/>
<ellipse cx="315.5" cy="325.5" rx="1.5" ry="1.5" transform="rotate(90 315.5 325.5)" fill="white" fill-opacity="0.3"/>
<ellipse cx="158.5" cy="325.5" rx="1.5" ry="1.5" transform="rotate(90 158.5 325.5)" fill="white" fill-opacity="0.3"/>
<ellipse cx="472.5" cy="325.5" rx="1.5" ry="1.5" transform="rotate(90 472.5 325.5)" fill="white" fill-opacity="0.3"/>
<ellipse cx="629.5" cy="325.5" rx="1.5" ry="1.5" transform="rotate(90 629.5 325.5)" fill="white" fill-opacity="0.3"/>
<ellipse cx="786.5" cy="325.5" rx="1.5" ry="1.5" transform="rotate(90 786.5 325.5)" fill="white" fill-opacity="0.3"/>
<ellipse cx="943.5" cy="325.5" rx="1.5" ry="1.5" transform="rotate(90 943.5 325.5)" fill="white" fill-opacity="0.3"/>
<ellipse cx="1100.5" cy="325.5" rx="1.5" ry="1.5" transform="rotate(90 1100.5 325.5)" fill="white" fill-opacity="0.3"/>
<ellipse cx="1257.5" cy="325.5" rx="1.5" ry="1.5" transform="rotate(90 1257.5 325.5)" fill="white" fill-opacity="0.3"/>
<ellipse cx="1414.5" cy="325.5" rx="1.5" ry="1.5" transform="rotate(90 1414.5 325.5)" fill="white" fill-opacity="0.3"/>
<ellipse cx="1571.5" cy="325.5" rx="1.5" ry="1.5" transform="rotate(90 1571.5 325.5)" fill="white" fill-opacity="0.3"/>
<ellipse cx="1728.5" cy="325.5" rx="1.5" ry="1.5" transform="rotate(90 1728.5 325.5)" fill="white" fill-opacity="0.3"/>
<ellipse cx="1885.5" cy="325.5" rx="1.5" ry="1.5" transform="rotate(90 1885.5 325.5)" fill="white" fill-opacity="0.3"/>
<ellipse cx="1.5" cy="325.5" rx="1.5" ry="1.5" transform="rotate(90 1.5 325.5)" fill="white" fill-opacity="0.3"/>
<ellipse cx="315.5" cy="757.5" rx="1.5" ry="1.5" transform="rotate(90 315.5 757.5)" fill="white" fill-opacity="0.3"/>
<ellipse cx="158.5" cy="757.5" rx="1.5" ry="1.5" transform="rotate(90 158.5 757.5)" fill="white" fill-opacity="0.3"/>
<ellipse cx="472.5" cy="757.5" rx="1.5" ry="1.5" transform="rotate(90 472.5 757.5)" fill="white" fill-opacity="0.3"/>
<ellipse cx="629.5" cy="757.5" rx="1.5" ry="1.5" transform="rotate(90 629.5 757.5)" fill="white" fill-opacity="0.3"/>
<ellipse cx="786.5" cy="757.5" rx="1.5" ry="1.5" transform="rotate(90 786.5 757.5)" fill="white" fill-opacity="0.3"/>
<ellipse cx="943.5" cy="757.5" rx="1.5" ry="1.5" transform="rotate(90 943.5 757.5)" fill="white" fill-opacity="0.3"/>
<ellipse cx="1100.5" cy="757.5" rx="1.5" ry="1.5" transform="rotate(90 1100.5 757.5)" fill="white" fill-opacity="0.3"/>
<ellipse cx="1257.5" cy="757.5" rx="1.5" ry="1.5" transform="rotate(90 1257.5 757.5)" fill="white" fill-opacity="0.3"/>
<ellipse cx="1414.5" cy="757.5" rx="1.5" ry="1.5" transform="rotate(90 1414.5 757.5)" fill="white" fill-opacity="0.3"/>
<ellipse cx="1571.5" cy="757.5" rx="1.5" ry="1.5" transform="rotate(90 1571.5 757.5)" fill="white" fill-opacity="0.3"/>
<ellipse cx="1728.5" cy="757.5" rx="1.5" ry="1.5" transform="rotate(90 1728.5 757.5)" fill="white" fill-opacity="0.3"/>
<ellipse cx="1885.5" cy="757.5" rx="1.5" ry="1.5" transform="rotate(90 1885.5 757.5)" fill="white" fill-opacity="0.3"/>
<ellipse cx="1.5" cy="757.5" rx="1.5" ry="1.5" transform="rotate(90 1.5 757.5)" fill="white" fill-opacity="0.3"/>
<ellipse cx="315.5" cy="868.5" rx="1.5" ry="1.5" transform="rotate(90 315.5 868.5)" fill="white" fill-opacity="0.3"/>
<ellipse cx="158.5" cy="868.5" rx="1.5" ry="1.5" transform="rotate(90 158.5 868.5)" fill="white" fill-opacity="0.3"/>
<ellipse cx="472.5" cy="868.5" rx="1.5" ry="1.5" transform="rotate(90 472.5 868.5)" fill="white" fill-opacity="0.3"/>
<ellipse cx="629.5" cy="868.5" rx="1.5" ry="1.5" transform="rotate(90 629.5 868.5)" fill="white" fill-opacity="0.3"/>
<ellipse cx="786.5" cy="868.5" rx="1.5" ry="1.5" transform="rotate(90 786.5 868.5)" fill="white" fill-opacity="0.3"/>
<ellipse cx="943.5" cy="868.5" rx="1.5" ry="1.5" transform="rotate(90 943.5 868.5)" fill="white" fill-opacity="0.3"/>
<ellipse cx="1100.5" cy="868.5" rx="1.5" ry="1.5" transform="rotate(90 1100.5 868.5)" fill="white" fill-opacity="0.3"/>
<ellipse cx="1257.5" cy="868.5" rx="1.5" ry="1.5" transform="rotate(90 1257.5 868.5)" fill="white" fill-opacity="0.3"/>
<ellipse cx="1414.5" cy="868.5" rx="1.5" ry="1.5" transform="rotate(90 1414.5 868.5)" fill="white" fill-opacity="0.3"/>
<ellipse cx="1571.5" cy="868.5" rx="1.5" ry="1.5" transform="rotate(90 1571.5 868.5)" fill="white" fill-opacity="0.3"/>
<ellipse cx="1728.5" cy="868.5" rx="1.5" ry="1.5" transform="rotate(90 1728.5 868.5)" fill="white" fill-opacity="0.3"/>
<ellipse cx="1885.5" cy="868.5" rx="1.5" ry="1.5" transform="rotate(90 1885.5 868.5)" fill="white" fill-opacity="0.3"/>
<ellipse cx="1.5" cy="868.5" rx="1.5" ry="1.5" transform="rotate(90 1.5 868.5)" fill="white" fill-opacity="0.3"/>
<ellipse cx="315.5" cy="1300.5" rx="1.5" ry="1.5" transform="rotate(90 315.5 1300.5)" fill="white" fill-opacity="0.3"/>
<ellipse cx="158.5" cy="1300.5" rx="1.5" ry="1.5" transform="rotate(90 158.5 1300.5)" fill="white" fill-opacity="0.3"/>
<ellipse cx="472.5" cy="1300.5" rx="1.5" ry="1.5" transform="rotate(90 472.5 1300.5)" fill="white" fill-opacity="0.3"/>
<ellipse cx="629.5" cy="1300.5" rx="1.5" ry="1.5" transform="rotate(90 629.5 1300.5)" fill="white" fill-opacity="0.3"/>
<ellipse cx="786.5" cy="1300.5" rx="1.5" ry="1.5" transform="rotate(90 786.5 1300.5)" fill="white" fill-opacity="0.3"/>
<ellipse cx="943.5" cy="1300.5" rx="1.5" ry="1.5" transform="rotate(90 943.5 1300.5)" fill="white" fill-opacity="0.3"/>
<ellipse cx="1100.5" cy="1300.5" rx="1.5" ry="1.5" transform="rotate(90 1100.5 1300.5)" fill="white" fill-opacity="0.3"/>
<ellipse cx="1257.5" cy="1300.5" rx="1.5" ry="1.5" transform="rotate(90 1257.5 1300.5)" fill="white" fill-opacity="0.3"/>
<ellipse cx="1414.5" cy="1300.5" rx="1.5" ry="1.5" transform="rotate(90 1414.5 1300.5)" fill="white" fill-opacity="0.3"/>
<ellipse cx="1571.5" cy="1300.5" rx="1.5" ry="1.5" transform="rotate(90 1571.5 1300.5)" fill="white" fill-opacity="0.3"/>
<ellipse cx="1728.5" cy="1300.5" rx="1.5" ry="1.5" transform="rotate(90 1728.5 1300.5)" fill="white" fill-opacity="0.3"/>
<ellipse cx="1885.5" cy="1300.5" rx="1.5" ry="1.5" transform="rotate(90 1885.5 1300.5)" fill="white" fill-opacity="0.3"/>
<ellipse cx="1.5" cy="1300.5" rx="1.5" ry="1.5" transform="rotate(90 1.5 1300.5)" fill="white" fill-opacity="0.3"/>
<ellipse cx="315.5" cy="1084.5" rx="1.5" ry="1.5" transform="rotate(90 315.5 1084.5)" fill="white" fill-opacity="0.3"/>
<ellipse cx="158.5" cy="1084.5" rx="1.5" ry="1.5" transform="rotate(90 158.5 1084.5)" fill="white" fill-opacity="0.3"/>
<ellipse cx="472.5" cy="1084.5" rx="1.5" ry="1.5" transform="rotate(90 472.5 1084.5)" fill="white" fill-opacity="0.3"/>
<ellipse cx="629.5" cy="1084.5" rx="1.5" ry="1.5" transform="rotate(90 629.5 1084.5)" fill="white" fill-opacity="0.3"/>
<ellipse cx="786.5" cy="1084.5" rx="1.5" ry="1.5" transform="rotate(90 786.5 1084.5)" fill="white" fill-opacity="0.3"/>
<ellipse cx="943.5" cy="1084.5" rx="1.5" ry="1.5" transform="rotate(90 943.5 1084.5)" fill="white" fill-opacity="0.3"/>
<ellipse cx="1100.5" cy="1084.5" rx="1.5" ry="1.5" transform="rotate(90 1100.5 1084.5)" fill="white" fill-opacity="0.3"/>
<ellipse cx="1257.5" cy="1084.5" rx="1.5" ry="1.5" transform="rotate(90 1257.5 1084.5)" fill="white" fill-opacity="0.3"/>
<ellipse cx="1414.5" cy="1084.5" rx="1.5" ry="1.5" transform="rotate(90 1414.5 1084.5)" fill="white" fill-opacity="0.3"/>
<ellipse cx="1571.5" cy="1084.5" rx="1.5" ry="1.5" transform="rotate(90 1571.5 1084.5)" fill="white" fill-opacity="0.3"/>
<ellipse cx="1728.5" cy="1084.5" rx="1.5" ry="1.5" transform="rotate(90 1728.5 1084.5)" fill="white" fill-opacity="0.3"/>
<ellipse cx="1885.5" cy="1084.5" rx="1.5" ry="1.5" transform="rotate(90 1885.5 1084.5)" fill="white" fill-opacity="0.3"/>
<ellipse cx="1.5" cy="1084.5" rx="1.5" ry="1.5" transform="rotate(90 1.5 1084.5)" fill="white" fill-opacity="0.3"/>
<ellipse cx="315.5" cy="1516.5" rx="1.5" ry="1.5" transform="rotate(90 315.5 1516.5)" fill="white" fill-opacity="0.3"/>
<ellipse cx="158.5" cy="1516.5" rx="1.5" ry="1.5" transform="rotate(90 158.5 1516.5)" fill="white" fill-opacity="0.3"/>
<ellipse cx="472.5" cy="1516.5" rx="1.5" ry="1.5" transform="rotate(90 472.5 1516.5)" fill="white" fill-opacity="0.3"/>
<ellipse cx="629.5" cy="1516.5" rx="1.5" ry="1.5" transform="rotate(90 629.5 1516.5)" fill="white" fill-opacity="0.3"/>
<ellipse cx="786.5" cy="1516.5" rx="1.5" ry="1.5" transform="rotate(90 786.5 1516.5)" fill="white" fill-opacity="0.3"/>
<ellipse cx="943.5" cy="1516.5" rx="1.5" ry="1.5" transform="rotate(90 943.5 1516.5)" fill="white" fill-opacity="0.3"/>
<ellipse cx="1100.5" cy="1516.5" rx="1.5" ry="1.5" transform="rotate(90 1100.5 1516.5)" fill="white" fill-opacity="0.3"/>
<ellipse cx="1257.5" cy="1516.5" rx="1.5" ry="1.5" transform="rotate(90 1257.5 1516.5)" fill="white" fill-opacity="0.3"/>
<ellipse cx="1414.5" cy="1516.5" rx="1.5" ry="1.5" transform="rotate(90 1414.5 1516.5)" fill="white" fill-opacity="0.3"/>
<ellipse cx="1571.5" cy="1516.5" rx="1.5" ry="1.5" transform="rotate(90 1571.5 1516.5)" fill="white" fill-opacity="0.3"/>
<ellipse cx="1728.5" cy="1516.5" rx="1.5" ry="1.5" transform="rotate(90 1728.5 1516.5)" fill="white" fill-opacity="0.3"/>
<ellipse cx="1885.5" cy="1516.5" rx="1.5" ry="1.5" transform="rotate(90 1885.5 1516.5)" fill="white" fill-opacity="0.3"/>
<ellipse cx="1.5" cy="1516.5" rx="1.5" ry="1.5" transform="rotate(90 1.5 1516.5)" fill="white" fill-opacity="0.3"/>
<ellipse cx="315.5" cy="976.5" rx="1.5" ry="1.5" transform="rotate(90 315.5 976.5)" fill="white" fill-opacity="0.3"/>
<ellipse cx="158.5" cy="976.5" rx="1.5" ry="1.5" transform="rotate(90 158.5 976.5)" fill="white" fill-opacity="0.3"/>
<ellipse cx="472.5" cy="976.5" rx="1.5" ry="1.5" transform="rotate(90 472.5 976.5)" fill="white" fill-opacity="0.3"/>
<ellipse cx="629.5" cy="976.5" rx="1.5" ry="1.5" transform="rotate(90 629.5 976.5)" fill="white" fill-opacity="0.3"/>
<ellipse cx="786.5" cy="976.5" rx="1.5" ry="1.5" transform="rotate(90 786.5 976.5)" fill="white" fill-opacity="0.3"/>
<ellipse cx="943.5" cy="976.5" rx="1.5" ry="1.5" transform="rotate(90 943.5 976.5)" fill="white" fill-opacity="0.3"/>
<ellipse cx="1100.5" cy="976.5" rx="1.5" ry="1.5" transform="rotate(90 1100.5 976.5)" fill="white" fill-opacity="0.3"/>
<ellipse cx="1257.5" cy="976.5" rx="1.5" ry="1.5" transform="rotate(90 1257.5 976.5)" fill="white" fill-opacity="0.3"/>
<ellipse cx="1414.5" cy="976.5" rx="1.5" ry="1.5" transform="rotate(90 1414.5 976.5)" fill="white" fill-opacity="0.3"/>
<ellipse cx="1571.5" cy="976.5" rx="1.5" ry="1.5" transform="rotate(90 1571.5 976.5)" fill="white" fill-opacity="0.3"/>
<ellipse cx="1728.5" cy="976.5" rx="1.5" ry="1.5" transform="rotate(90 1728.5 976.5)" fill="white" fill-opacity="0.3"/>
<ellipse cx="1885.5" cy="976.5" rx="1.5" ry="1.5" transform="rotate(90 1885.5 976.5)" fill="white" fill-opacity="0.3"/>
<ellipse cx="1.5" cy="976.5" rx="1.5" ry="1.5" transform="rotate(90 1.5 976.5)" fill="white" fill-opacity="0.3"/>
<ellipse cx="315.5" cy="1408.5" rx="1.5" ry="1.5" transform="rotate(90 315.5 1408.5)" fill="white" fill-opacity="0.3"/>
<ellipse cx="158.5" cy="1408.5" rx="1.5" ry="1.5" transform="rotate(90 158.5 1408.5)" fill="white" fill-opacity="0.3"/>
<ellipse cx="472.5" cy="1408.5" rx="1.5" ry="1.5" transform="rotate(90 472.5 1408.5)" fill="white" fill-opacity="0.3"/>
<ellipse cx="629.5" cy="1408.5" rx="1.5" ry="1.5" transform="rotate(90 629.5 1408.5)" fill="white" fill-opacity="0.3"/>
<ellipse cx="786.5" cy="1408.5" rx="1.5" ry="1.5" transform="rotate(90 786.5 1408.5)" fill="white" fill-opacity="0.3"/>
<ellipse cx="943.5" cy="1408.5" rx="1.5" ry="1.5" transform="rotate(90 943.5 1408.5)" fill="white" fill-opacity="0.3"/>
<ellipse cx="1100.5" cy="1408.5" rx="1.5" ry="1.5" transform="rotate(90 1100.5 1408.5)" fill="white" fill-opacity="0.3"/>
<ellipse cx="1257.5" cy="1408.5" rx="1.5" ry="1.5" transform="rotate(90 1257.5 1408.5)" fill="white" fill-opacity="0.3"/>
<ellipse cx="1414.5" cy="1408.5" rx="1.5" ry="1.5" transform="rotate(90 1414.5 1408.5)" fill="white" fill-opacity="0.3"/>
<ellipse cx="1571.5" cy="1408.5" rx="1.5" ry="1.5" transform="rotate(90 1571.5 1408.5)" fill="white" fill-opacity="0.3"/>
<ellipse cx="1728.5" cy="1408.5" rx="1.5" ry="1.5" transform="rotate(90 1728.5 1408.5)" fill="white" fill-opacity="0.3"/>
<ellipse cx="1885.5" cy="1408.5" rx="1.5" ry="1.5" transform="rotate(90 1885.5 1408.5)" fill="white" fill-opacity="0.3"/>
<ellipse cx="1.5" cy="1408.5" rx="1.5" ry="1.5" transform="rotate(90 1.5 1408.5)" fill="white" fill-opacity="0.3"/>
<ellipse cx="315.5" cy="1192.5" rx="1.5" ry="1.5" transform="rotate(90 315.5 1192.5)" fill="white" fill-opacity="0.3"/>
<ellipse cx="158.5" cy="1192.5" rx="1.5" ry="1.5" transform="rotate(90 158.5 1192.5)" fill="white" fill-opacity="0.3"/>
<ellipse cx="472.5" cy="1192.5" rx="1.5" ry="1.5" transform="rotate(90 472.5 1192.5)" fill="white" fill-opacity="0.3"/>
<ellipse cx="629.5" cy="1192.5" rx="1.5" ry="1.5" transform="rotate(90 629.5 1192.5)" fill="white" fill-opacity="0.3"/>
<ellipse cx="786.5" cy="1192.5" rx="1.5" ry="1.5" transform="rotate(90 786.5 1192.5)" fill="white" fill-opacity="0.3"/>
<ellipse cx="943.5" cy="1192.5" rx="1.5" ry="1.5" transform="rotate(90 943.5 1192.5)" fill="white" fill-opacity="0.3"/>
<ellipse cx="1100.5" cy="1192.5" rx="1.5" ry="1.5" transform="rotate(90 1100.5 1192.5)" fill="white" fill-opacity="0.3"/>
<ellipse cx="1257.5" cy="1192.5" rx="1.5" ry="1.5" transform="rotate(90 1257.5 1192.5)" fill="white" fill-opacity="0.3"/>
<ellipse cx="1414.5" cy="1192.5" rx="1.5" ry="1.5" transform="rotate(90 1414.5 1192.5)" fill="white" fill-opacity="0.3"/>
<ellipse cx="1571.5" cy="1192.5" rx="1.5" ry="1.5" transform="rotate(90 1571.5 1192.5)" fill="white" fill-opacity="0.3"/>
<ellipse cx="1728.5" cy="1192.5" rx="1.5" ry="1.5" transform="rotate(90 1728.5 1192.5)" fill="white" fill-opacity="0.3"/>
<ellipse cx="1885.5" cy="1192.5" rx="1.5" ry="1.5" transform="rotate(90 1885.5 1192.5)" fill="white" fill-opacity="0.3"/>
<ellipse cx="1.5" cy="1192.5" rx="1.5" ry="1.5" transform="rotate(90 1.5 1192.5)" fill="white" fill-opacity="0.3"/>
<ellipse cx="315.5" cy="1624.5" rx="1.5" ry="1.5" transform="rotate(90 315.5 1624.5)" fill="white" fill-opacity="0.3"/>
<ellipse cx="158.5" cy="1624.5" rx="1.5" ry="1.5" transform="rotate(90 158.5 1624.5)" fill="white" fill-opacity="0.3"/>
<ellipse cx="472.5" cy="1624.5" rx="1.5" ry="1.5" transform="rotate(90 472.5 1624.5)" fill="white" fill-opacity="0.3"/>
<ellipse cx="629.5" cy="1624.5" rx="1.5" ry="1.5" transform="rotate(90 629.5 1624.5)" fill="white" fill-opacity="0.3"/>
<ellipse cx="786.5" cy="1624.5" rx="1.5" ry="1.5" transform="rotate(90 786.5 1624.5)" fill="white" fill-opacity="0.3"/>
<ellipse cx="943.5" cy="1624.5" rx="1.5" ry="1.5" transform="rotate(90 943.5 1624.5)" fill="white" fill-opacity="0.3"/>
<ellipse cx="1100.5" cy="1624.5" rx="1.5" ry="1.5" transform="rotate(90 1100.5 1624.5)" fill="white" fill-opacity="0.3"/>
<ellipse cx="1257.5" cy="1624.5" rx="1.5" ry="1.5" transform="rotate(90 1257.5 1624.5)" fill="white" fill-opacity="0.3"/>
<ellipse cx="1414.5" cy="1624.5" rx="1.5" ry="1.5" transform="rotate(90 1414.5 1624.5)" fill="white" fill-opacity="0.3"/>
<ellipse cx="1571.5" cy="1624.5" rx="1.5" ry="1.5" transform="rotate(90 1571.5 1624.5)" fill="white" fill-opacity="0.3"/>
<ellipse cx="1728.5" cy="1624.5" rx="1.5" ry="1.5" transform="rotate(90 1728.5 1624.5)" fill="white" fill-opacity="0.3"/>
<ellipse cx="1885.5" cy="1624.5" rx="1.5" ry="1.5" transform="rotate(90 1885.5 1624.5)" fill="white" fill-opacity="0.3"/>
<ellipse cx="1.5" cy="1624.5" rx="1.5" ry="1.5" transform="rotate(90 1.5 1624.5)" fill="white" fill-opacity="0.3"/>
</svg>
