<svg width="901" height="1334" viewBox="0 0 901 1334" fill="none" xmlns="http://www.w3.org/2000/svg">
<g clip-path="url(#clip0_531_1518)">
<path d="M662.577 999.927L663.065 1002.9L663.275 999.969L787.969 954.051L764.394 661.326L997.228 654.125L997.251 653.722L997.5 653.502L739.647 354.016L724.415 164.921L724.466 164.22L723.998 164.51L723.742 164.423L723.689 164.368L723.659 164.4L515.493 93.5804L515.4 93.0391L515.042 93.4267L513.971 93.0645L514.657 93.8563L103.857 541.038L102.07 542.985L106.119 540.525L150.925 680.025L151.021 680.288L151.179 680.283L662.577 999.927ZM723.621 165.629L712.164 322.097L641.167 239.641L723.013 166.002L723.621 165.629ZM640.678 239.064L627.624 223.901L719.559 168.084L640.674 239.055L640.678 239.064ZM640.117 239.569L552.215 318.667L544.948 274.103L626.981 224.297L640.127 239.565L640.117 239.569ZM640.603 240.136L712.082 323.15L690.755 614.38L598.529 602.646L552.347 319.545L640.603 240.136ZM687.194 662.963L608.759 665.386L598.654 603.421L690.702 615.134L687.203 662.96L687.194 662.963ZM691.439 615.225L760.633 624.027L763.58 660.592L687.949 662.93L691.445 615.213L691.439 615.225ZM687.138 663.708L662.774 996.498L608.884 666.129L687.138 663.708ZM597.748 602.55L282.398 562.43L551.682 320.142L597.748 602.55ZM597.873 603.325L608.001 665.41L152.288 679.502L281.662 563.095L597.873 603.325ZM608.125 666.152L662.404 998.936L152.516 680.238L608.125 666.152ZM787.171 953.535L663.331 999.138L687.897 663.685L763.644 661.346L787.175 953.545L787.171 953.535ZM764.329 660.571L761.392 624.121L992.458 653.526L764.342 660.577L764.329 660.571ZM996.299 653.252L761.337 623.363L739.753 355.288L996.299 653.252ZM738.916 354.317L760.575 623.26L691.501 614.467L712.772 323.951L738.916 354.317ZM712.849 322.889L724.055 169.817L738.81 353.046L712.849 322.889ZM723.015 164.968L722.55 165.384L627.122 223.319L516.349 94.6611L723.019 164.977L723.015 164.968ZM626.47 223.719L544.803 273.303L515.75 95.1163L626.482 223.725L626.47 223.719ZM514.917 94.6772L544.123 273.714L106.201 539.589L514.917 94.6772ZM544.249 274.52L551.547 319.254L281.422 562.299L106.821 540.085L544.24 274.523L544.249 274.52ZM280.687 562.964L151.457 679.243L107.016 540.876L280.681 562.977L280.687 562.964Z" fill="white"/>
<path d="M788.84 957.227C786.944 957.925 784.838 956.952 784.14 955.057C783.442 953.161 784.415 951.056 786.31 950.358C788.206 949.659 790.311 950.632 791.009 952.527C791.707 954.423 790.735 956.529 788.84 957.227Z" fill="white"/>
<path d="M664.183 1003.13C662.287 1003.83 660.182 1002.86 659.484 1000.96C658.786 999.065 659.758 996.959 661.653 996.261C663.549 995.563 665.655 996.535 666.353 998.431C667.051 1000.33 666.078 1002.43 664.183 1003.13Z" fill="white"/>
<path d="M152.549 683.338C150.653 684.036 148.548 683.064 147.85 681.168C147.152 679.273 148.124 677.167 150.02 676.469C151.915 675.771 154.021 676.743 154.719 678.639C155.417 680.534 154.445 682.64 152.549 683.338Z" fill="white"/>
<path d="M108.83 543.459C106.934 544.157 104.829 543.185 104.131 541.289C103.432 539.394 104.405 537.288 106.3 536.59C108.196 535.892 110.302 536.864 111 538.76C111.698 540.655 110.725 542.761 108.83 543.459Z" fill="white"/>
<path d="M516.425 97.2974C514.529 97.9954 512.424 97.0231 511.726 95.1276C511.028 93.232 512 91.1263 513.896 90.4283C515.791 89.7303 517.897 90.7025 518.595 92.5981C519.293 94.4937 518.321 96.5994 516.425 97.2974Z" fill="white"/>
<path d="M725.206 168.083C723.311 168.781 721.205 167.808 720.507 165.913C719.809 164.017 720.781 161.911 722.677 161.213C724.572 160.515 726.678 161.488 727.376 163.383C728.074 165.279 727.102 167.385 725.206 168.083Z" fill="white"/>
</g>
<g filter="url(#filter0_f_531_1518)">
<g filter="url(#filter1_ii_531_1518)">
<path d="M729.467 726.388C662.464 685.088 574.667 705.925 533.367 772.928C492.068 839.931 512.905 927.728 579.908 969.028L1022.84 1242.05C1089.85 1283.35 1177.64 1262.51 1218.94 1195.51C1260.24 1128.5 1239.41 1040.71 1172.4 999.407L729.467 726.388Z" fill="url(#paint0_radial_531_1518)"/>
<path d="M729.467 726.388C662.464 685.088 574.667 705.925 533.367 772.928C492.068 839.931 512.905 927.728 579.908 969.028L1022.84 1242.05C1089.85 1283.35 1177.64 1262.51 1218.94 1195.51C1260.24 1128.5 1239.41 1040.71 1172.4 999.407L729.467 726.388Z" fill="#5A28E8"/>
</g>
<g filter="url(#filter2_ii_531_1518)">
<path d="M587.098 719.307C517.83 756.684 491.976 843.136 529.353 912.404C566.73 981.672 653.182 1007.53 722.45 970.149L1487.58 557.289C1556.85 519.912 1582.7 433.46 1545.33 364.192C1507.95 294.924 1421.5 269.071 1352.23 306.447L587.098 719.307Z" fill="url(#paint1_radial_531_1518)"/>
<path d="M587.098 719.307C517.83 756.684 491.976 843.136 529.353 912.404C566.73 981.672 653.182 1007.53 722.45 970.149L1487.58 557.289C1556.85 519.912 1582.7 433.46 1545.33 364.192C1507.95 294.924 1421.5 269.071 1352.23 306.447L587.098 719.307Z" fill="#C5E215" fill-opacity="0.06"/>
</g>
</g>
<defs>
<filter id="filter0_f_531_1518" x="442.152" y="219.326" width="1190.3" height="1113.94" filterUnits="userSpaceOnUse" color-interpolation-filters="sRGB">
<feFlood flood-opacity="0" result="BackgroundImageFix"/>
<feBlend mode="normal" in="SourceGraphic" in2="BackgroundImageFix" result="shape"/>
<feGaussianBlur stdDeviation="35" result="effect1_foregroundBlur_531_1518"/>
</filter>
<filter id="filter1_ii_531_1518" x="477.348" y="705.173" width="812.783" height="618.996" filterUnits="userSpaceOnUse" color-interpolation-filters="sRGB">
<feFlood flood-opacity="0" result="BackgroundImageFix"/>
<feBlend mode="normal" in="SourceGraphic" in2="BackgroundImageFix" result="shape"/>
<feColorMatrix in="SourceAlpha" type="matrix" values="0 0 0 0 0 0 0 0 0 0 0 0 0 0 0 0 0 0 127 0" result="hardAlpha"/>
<feOffset dx="-34.8041" dy="60.9071"/>
<feGaussianBlur stdDeviation="73.9586"/>
<feComposite in2="hardAlpha" operator="arithmetic" k2="-1" k3="1"/>
<feColorMatrix type="matrix" values="0 0 0 0 1 0 0 0 0 1 0 0 0 0 1 0 0 0 0.87 0"/>
<feBlend mode="lighten" in2="shape" result="effect1_innerShadow_531_1518"/>
<feColorMatrix in="SourceAlpha" type="matrix" values="0 0 0 0 0 0 0 0 0 0 0 0 0 0 0 0 0 0 127 0" result="hardAlpha"/>
<feOffset dx="49.9721" dy="181.15"/>
<feGaussianBlur stdDeviation="29.1504"/>
<feComposite in2="hardAlpha" operator="arithmetic" k2="-1" k3="1"/>
<feColorMatrix type="matrix" values="0 0 0 0 0.415489 0 0 0 0 0.246354 0 0 0 0 0.895833 0 0 0 1 0"/>
<feBlend mode="multiply" in2="effect1_innerShadow_531_1518" result="effect2_innerShadow_531_1518"/>
</filter>
<filter id="filter2_ii_531_1518" x="477.427" y="289.326" width="1134.99" height="758.852" filterUnits="userSpaceOnUse" color-interpolation-filters="sRGB">
<feFlood flood-opacity="0" result="BackgroundImageFix"/>
<feBlend mode="normal" in="SourceGraphic" in2="BackgroundImageFix" result="shape"/>
<feColorMatrix in="SourceAlpha" type="matrix" values="0 0 0 0 0 0 0 0 0 0 0 0 0 0 0 0 0 0 127 0" result="hardAlpha"/>
<feOffset dx="-34.8041" dy="60.9071"/>
<feGaussianBlur stdDeviation="73.9586"/>
<feComposite in2="hardAlpha" operator="arithmetic" k2="-1" k3="1"/>
<feColorMatrix type="matrix" values="0 0 0 0 1 0 0 0 0 1 0 0 0 0 1 0 0 0 0.87 0"/>
<feBlend mode="lighten" in2="shape" result="effect1_innerShadow_531_1518"/>
<feColorMatrix in="SourceAlpha" type="matrix" values="0 0 0 0 0 0 0 0 0 0 0 0 0 0 0 0 0 0 127 0" result="hardAlpha"/>
<feOffset dx="49.9721" dy="29.1504"/>
<feGaussianBlur stdDeviation="29.1504"/>
<feComposite in2="hardAlpha" operator="arithmetic" k2="-1" k3="1"/>
<feColorMatrix type="matrix" values="0 0 0 0 0.415489 0 0 0 0 0.246354 0 0 0 0 0.895833 0 0 0 1 0"/>
<feBlend mode="multiply" in2="effect1_innerShadow_531_1518" result="effect2_innerShadow_531_1518"/>
</filter>
<radialGradient id="paint0_radial_531_1518" cx="0" cy="0" r="1" gradientUnits="userSpaceOnUse" gradientTransform="translate(515.942 675.931) rotate(32.3552) scale(286.863 189.206)">
<stop stop-color="#F4F4F1"/>
<stop offset="0.635171" stop-color="#8EF5F5"/>
<stop offset="1" stop-color="#5A28E8"/>
</radialGradient>
<radialGradient id="paint1_radial_531_1518" cx="0" cy="0" r="1" gradientUnits="userSpaceOnUse" gradientTransform="translate(296.73 698.326) rotate(-18.9914) scale(1399.56 644.892)">
<stop stop-color="#15E2B1"/>
<stop offset="0.338542" stop-color="#F4F4F1" stop-opacity="0.01"/>
<stop offset="0.666667" stop-color="#3FDEDE"/>
<stop offset="1" stop-color="#2897E8"/>
</radialGradient>
<clipPath id="clip0_531_1518">
<rect width="908.41" height="809.32" fill="white" transform="translate(759.465) rotate(69.7843)"/>
</clipPath>
</defs>
</svg>
