<svg width="728" height="987" viewBox="0 0 728 987" fill="none" xmlns="http://www.w3.org/2000/svg">
<g clip-path="url(#clip0_264_892)">
<path d="M463.358 944.703L463.094 947.706L464.023 944.916L596.208 931.342L645.93 641.908L873.283 692.647L873.404 692.263L873.701 692.112L698.132 338.055L730.249 151.086L730.472 150.42L729.946 150.584L729.72 150.436L729.683 150.37L729.645 150.394L545.532 30.1839L545.576 29.6365L545.133 29.9232L544.185 29.3068L544.653 30.2439L35.8261 361.639L33.612 363.083L38.1447 361.703L46.972 507.956L47.0006 508.234L47.1549 508.269L463.358 944.703ZM729.304 151.575L679.419 300.319L631.077 202.838L728.622 151.786L729.304 151.575ZM630.746 202.158L621.858 184.232L724.761 152.946L630.745 202.148L630.746 202.158ZM630.078 202.508L525.313 257.348L529.319 212.373L621.138 184.457L630.088 202.507L630.078 202.508ZM630.409 203.178L679.079 301.319L586.227 578.174L499.788 543.945L525.223 258.232L630.409 203.178ZM570.734 624.358L494.147 607.263L499.717 544.726L585.989 578.892L570.744 624.357L570.734 624.358ZM586.68 579.162L651.533 604.841L645.324 640.995L571.474 624.513L586.689 579.151L586.68 579.162ZM570.495 625.066L464.399 941.43L494.083 608.013L570.495 625.066ZM499.055 543.658L203.492 426.62L524.431 258.645L499.055 543.658ZM498.984 544.44L493.406 607.097L48.4223 507.787L202.614 427.082L498.984 544.44ZM493.342 607.848L463.436 943.7L48.4612 508.557L493.342 607.848ZM595.564 930.644L464.284 944.126L571.236 625.231L645.199 641.742L595.565 930.654L595.564 930.644ZM646.054 641.161L652.245 605.12L868.81 690.885L646.065 641.17L646.054 641.161ZM872.6 691.571L652.379 604.373L697.919 339.313L872.6 691.571ZM697.349 338.166L651.666 604.084L586.928 578.443L679.549 302.266L697.349 338.166ZM679.887 301.256L728.687 155.74L697.562 336.907L679.887 301.256ZM728.881 150.784L728.328 151.072L621.516 183.544L546.093 31.4431L728.882 150.794L728.881 150.784ZM620.786 183.77L529.377 211.563L545.399 31.7355L620.797 183.778L620.786 183.77ZM544.701 31.1035L528.616 211.792L38.4558 360.816L544.701 31.1035ZM528.539 212.604L524.52 257.751L202.579 426.252L38.9331 361.451L528.529 212.605L528.539 212.604ZM201.702 426.714L47.6817 507.33L38.9263 362.266L201.693 426.725L201.702 426.714Z" fill="white"/>
<path d="M596.265 934.633C594.255 934.839 592.456 933.375 592.25 931.366C592.044 929.356 593.507 927.558 595.517 927.351C597.526 927.145 599.325 928.609 599.532 930.618C599.738 932.628 598.274 934.426 596.265 934.633Z" fill="white"/>
<path d="M464.12 948.204C462.11 948.41 460.311 946.946 460.105 944.937C459.899 942.927 461.362 941.128 463.372 940.922C465.381 940.716 467.18 942.179 467.387 944.189C467.593 946.198 466.129 947.997 464.12 948.204Z" fill="white"/>
<path d="M47.7247 511.568C45.7152 511.774 43.9162 510.31 43.7099 508.301C43.5035 506.291 44.9674 504.492 46.9769 504.286C48.9863 504.08 50.7852 505.544 50.9916 507.553C51.1979 509.562 49.7341 511.361 47.7247 511.568Z" fill="white"/>
<path d="M40.0435 365.217C38.0341 365.423 36.2351 363.959 36.0287 361.95C35.8224 359.941 37.2863 358.142 39.2957 357.935C41.3051 357.729 43.1041 359.193 43.3104 361.202C43.5168 363.212 42.0529 365.011 40.0435 365.217Z" fill="white"/>
<path d="M545.513 34.0157C543.503 34.2221 541.704 32.7582 541.498 30.7488C541.292 28.7393 542.755 26.9404 544.765 26.734C546.774 26.5276 548.573 27.9915 548.78 30.001C548.986 32.0104 547.522 33.8094 545.513 34.0157Z" fill="white"/>
<path d="M730.232 154.345C728.223 154.551 726.424 153.087 726.217 151.078C726.011 149.068 727.475 147.269 729.484 147.063C731.494 146.857 733.293 148.32 733.499 150.33C733.705 152.339 732.241 154.138 730.232 154.345Z" fill="white"/>
</g>
<defs>
<clipPath id="clip0_264_892">
<rect width="908.41" height="809.32" fill="white" transform="translate(805.086) rotate(84.1365)"/>
</clipPath>
</defs>
</svg>
