<svg width="526" height="1133" viewBox="0 0 526 1133" fill="none" xmlns="http://www.w3.org/2000/svg">
<g clip-path="url(#clip0_264_902)">
<path d="M114.836 1000.04L115.324 1003.01L115.533 1000.08L240.228 954.162L216.652 661.436L449.487 654.235L449.509 653.832L449.759 653.613L191.905 354.127L176.674 165.031L176.725 164.33L176.256 164.62L176.001 164.533L175.948 164.478L175.918 164.511L-32.248 93.6907L-32.3408 93.1494L-32.6989 93.5371L-33.77 93.1749L-33.0842 93.9667L-443.884 541.148L-445.671 543.096L-441.622 540.635L-396.817 680.136L-396.72 680.398L-396.562 680.393L114.836 1000.04ZM175.88 165.739L164.422 322.207L93.4257 239.751L175.271 166.113L175.88 165.739ZM92.9364 239.175L79.8825 224.011L171.818 168.194L92.9329 239.165L92.9364 239.175ZM92.3763 239.679L4.474 318.777L-2.79302 274.213L79.2399 224.408L92.3856 239.676L92.3763 239.679ZM92.8621 240.246L164.341 323.26L143.014 614.49L50.7879 602.757L4.60572 319.656L92.8621 240.246ZM139.453 663.074L61.0181 665.496L50.9132 603.531L142.961 615.245L139.462 663.07L139.453 663.074ZM143.698 615.336L212.892 624.138L215.839 660.702L140.208 663.041L143.704 615.323L143.698 615.336ZM139.397 663.819L115.033 996.608L61.1425 666.239L139.397 663.819ZM50.0066 602.661L-265.343 562.54L3.9409 320.252L50.0066 602.661ZM50.1319 603.435L60.2596 665.52L-395.453 679.612L-266.079 563.205L50.1319 603.435ZM60.3839 666.263L114.663 999.046L-395.225 680.349L60.3839 666.263ZM239.43 953.645L115.59 999.248L140.155 663.795L215.903 661.456L239.434 953.655L239.43 953.645ZM216.588 660.682L213.651 624.231L444.716 653.637L216.601 660.688L216.588 660.682ZM448.558 653.362L213.596 623.473L192.011 355.398L448.558 653.362ZM191.174 354.428L212.833 623.371L143.76 614.578L165.031 324.061L191.174 354.428ZM165.108 322.999L176.314 169.927L191.068 353.156L165.108 322.999ZM175.274 165.078L174.809 165.494L79.3803 223.429L-31.3918 94.7715L175.277 165.087L175.274 165.078ZM78.7284 223.829L-2.93811 273.414L-31.9914 95.2267L78.7412 223.835L78.7284 223.829ZM-32.8245 94.7875L-3.61822 273.824L-441.54 539.699L-32.8245 94.7875ZM-3.49192 274.63L3.80572 319.364L-266.319 562.409L-440.921 540.195L-3.50129 274.634L-3.49192 274.63ZM-267.054 563.074L-396.284 679.353L-440.725 540.987L-267.06 563.087L-267.054 563.074Z" fill="white"/>
<path d="M449.933 657.587C448.037 658.285 445.932 657.313 445.234 655.418C444.536 653.522 445.508 651.416 447.403 650.718C449.299 650.02 451.405 650.993 452.103 652.888C452.801 654.784 451.828 656.889 449.933 657.587Z" fill="white"/>
<path d="M241.098 957.336C239.203 958.034 237.097 957.062 236.399 955.167C235.701 953.271 236.673 951.165 238.569 950.467C240.464 949.769 242.57 950.742 243.268 952.637C243.966 954.533 242.994 956.638 241.098 957.336Z" fill="white"/>
<path d="M116.442 1003.24C114.546 1003.94 112.44 1002.97 111.742 1001.07C111.044 999.175 112.017 997.069 113.912 996.371C115.808 995.673 117.913 996.645 118.611 998.541C119.309 1000.44 118.337 1002.54 116.442 1003.24Z" fill="white"/>
<path d="M177.465 168.193C175.569 168.891 173.464 167.919 172.766 166.023C172.068 164.128 173.04 162.022 174.936 161.324C176.831 160.626 178.937 161.598 179.635 163.494C180.333 165.389 179.361 167.495 177.465 168.193Z" fill="white"/>
</g>
<defs>
<clipPath id="clip0_264_902">
<rect width="908.41" height="809.32" fill="white" transform="translate(211.724 0.110352) rotate(69.7843)"/>
</clipPath>
</defs>
</svg>
