<svg width="1068" height="945" viewBox="0 0 1068 945" fill="none" xmlns="http://www.w3.org/2000/svg">
<g clip-path="url(#clip0_531_1517)">
<path d="M904.85 180.45L907.81 181.02L905.13 179.81V46.9299L622.29 -32.1L695.99 -253.08L695.62 -253.24L695.5 -253.55L325.36 -115.07L142.65 -166.12L142.01 -166.41L142.12 -165.87L141.95 -165.66L141.88 -165.63L141.9 -165.59L3.51 5.27995L2.97 5.17995L3.21 5.64995L2.5 6.52995L3.48 6.15996L281.16 546.18L282.37 548.53L281.46 543.88L427.85 550.04H428.13L428.18 549.89L904.85 180.45ZM143.04 -165.13L285.91 -100.31L184 -62.18L143.18 -164.43L143.04 -165.13ZM183.29 -61.92L164.55 -54.91L143.94 -160.47L183.28 -61.92H183.29ZM183.57 -61.22L227.42 48.6L183.09 40.0199L164.7 -54.17L183.57 -61.23V-61.22ZM184.27 -61.48L286.87 -99.87L552.79 20.78L509.91 103.27L228.29 48.78L184.27 -61.48ZM597.15 40.91L572.32 115.35L510.68 103.42L553.48 21.09L597.15 40.8999V40.91ZM553.82 20.4299L585.99 -41.46L621.32 -31.59L597.38 40.19L553.81 20.42L553.82 20.4299ZM597.83 41.22L901.7 179.08L573.06 115.49L597.83 41.22ZM509.55 103.97L362.93 386.03L228.62 49.6099L509.55 103.97ZM510.32 104.12L572.08 116.07L427.83 548.58L363.3 386.95L510.32 104.12ZM572.82 116.21L903.86 180.27L428.6 548.62L572.82 116.21ZM904.37 47.5V179.47L598.07 40.5L622.05 -31.39L904.38 47.5H904.37ZM621.56 -32.3L586.34 -42.14L693.78 -248.81L621.57 -32.31L621.56 -32.3ZM694.85 -252.51L585.61 -42.35L326.59 -114.73L694.85 -252.51ZM325.39 -114.28L585.25 -41.67L553.13 20.1099L287.86 -100.24L325.39 -114.28ZM286.89 -100.68L147.12 -164.09L324.16 -114.62L286.89 -100.68ZM142.21 -164.79L142.44 -164.21L163.83 -54.64L4.82 4.84996L142.22 -164.79H142.21ZM163.98 -53.89L182.29 39.88L5.04 5.56996L163.99 -53.9L163.98 -53.89ZM4.34 6.19997L182.44 40.66L280.61 543.48L4.34 6.19997ZM183.24 40.82L227.74 49.4299L362.47 386.9L281.29 543.07L183.24 40.8299V40.82ZM362.84 387.82L427.3 549.27L282.1 543.16L362.85 387.83L362.84 387.82Z" fill="white"/>
<path d="M908.41 47.21C908.41 49.23 906.77 50.87 904.75 50.87C902.73 50.87 901.09 49.23 901.09 47.21C901.09 45.19 902.73 43.55 904.75 43.55C906.77 43.55 908.41 45.19 908.41 47.21Z" fill="white"/>
<path d="M908.41 180.05C908.41 182.07 906.77 183.71 904.75 183.71C902.73 183.71 901.09 182.07 901.09 180.05C901.09 178.03 902.73 176.39 904.75 176.39C906.77 176.39 908.41 178.03 908.41 180.05Z" fill="white"/>
<path d="M431.52 549.66C431.52 551.68 429.88 553.32 427.86 553.32C425.84 553.32 424.2 551.68 424.2 549.66C424.2 547.64 425.84 546 427.86 546C429.88 546 431.52 547.64 431.52 549.66Z" fill="white"/>
<path d="M285.15 542.35C285.15 544.37 283.51 546.01 281.49 546.01C279.47 546.01 277.83 544.37 277.83 542.35C277.83 540.33 279.47 538.69 281.49 538.69C283.51 538.69 285.15 540.33 285.15 542.35Z" fill="white"/>
<path d="M7.32 5.68997C7.32 7.70997 5.68 9.34998 3.66 9.34998C1.64 9.34998 0 7.70997 0 5.68997C0 3.66997 1.64 2.02997 3.66 2.02997C5.68 2.02997 7.32 3.66997 7.32 5.68997Z" fill="white"/>
</g>
<g filter="url(#filter0_f_531_1517)">
<g filter="url(#filter1_ii_531_1517)">
<path d="M701.979 397.559C681.969 473.682 604.037 519.17 527.915 499.16C451.792 479.149 406.304 401.218 426.314 325.096L558.596 -178.128C578.606 -254.251 656.538 -299.739 732.66 -279.729C808.783 -259.718 854.271 -181.787 834.261 -105.665L701.979 397.559Z" fill="url(#paint0_radial_531_1517)"/>
<path d="M701.979 397.559C681.969 473.682 604.037 519.17 527.915 499.16C451.792 479.149 406.304 401.218 426.314 325.096L558.596 -178.128C578.606 -254.251 656.538 -299.739 732.66 -279.729C808.783 -259.718 854.271 -181.787 834.261 -105.665L701.979 397.559Z" fill="#5A28E8"/>
</g>
<g filter="url(#filter2_ii_531_1517)">
<path d="M603.809 500.903C527.879 521.635 449.52 476.888 428.788 400.959C408.056 325.03 452.803 246.671 528.732 225.939L1367.44 -3.06573C1443.37 -23.7977 1521.73 20.9487 1542.46 96.878C1563.2 172.807 1518.45 251.167 1442.52 271.899L603.809 500.903Z" fill="url(#paint1_radial_531_1517)"/>
<path d="M603.809 500.903C527.879 521.635 449.52 476.888 428.788 400.959C408.056 325.03 452.803 246.671 528.732 225.939L1367.44 -3.06573C1443.37 -23.7977 1521.73 20.9487 1542.46 96.878C1563.2 172.807 1518.45 251.167 1442.52 271.899L603.809 500.903Z" fill="#C5E215" fill-opacity="0.06"/>
</g>
</g>
<defs>
<filter id="filter0_f_531_1517" x="386.597" y="-319.446" width="1195.94" height="860.418" filterUnits="userSpaceOnUse" color-interpolation-filters="sRGB">
<feFlood flood-opacity="0" result="BackgroundImageFix"/>
<feBlend mode="normal" in="SourceGraphic" in2="BackgroundImageFix" result="shape"/>
<feGaussianBlur stdDeviation="17.5" result="effect1_foregroundBlur_531_1517"/>
</filter>
<filter id="filter1_ii_531_1517" x="386.793" y="-284.446" width="502.158" height="849.23" filterUnits="userSpaceOnUse" color-interpolation-filters="sRGB">
<feFlood flood-opacity="0" result="BackgroundImageFix"/>
<feBlend mode="normal" in="SourceGraphic" in2="BackgroundImageFix" result="shape"/>
<feColorMatrix in="SourceAlpha" type="matrix" values="0 0 0 0 0 0 0 0 0 0 0 0 0 0 0 0 0 0 127 0" result="hardAlpha"/>
<feOffset dx="-34.8041" dy="60.9071"/>
<feGaussianBlur stdDeviation="73.9586"/>
<feComposite in2="hardAlpha" operator="arithmetic" k2="-1" k3="1"/>
<feColorMatrix type="matrix" values="0 0 0 0 1 0 0 0 0 1 0 0 0 0 1 0 0 0 0.87 0"/>
<feBlend mode="lighten" in2="shape" result="effect1_innerShadow_531_1517"/>
<feColorMatrix in="SourceAlpha" type="matrix" values="0 0 0 0 0 0 0 0 0 0 0 0 0 0 0 0 0 0 127 0" result="hardAlpha"/>
<feOffset dx="49.9721" dy="181.15"/>
<feGaussianBlur stdDeviation="29.1504"/>
<feComposite in2="hardAlpha" operator="arithmetic" k2="-1" k3="1"/>
<feColorMatrix type="matrix" values="0 0 0 0 0.415489 0 0 0 0 0.246354 0 0 0 0 0.895833 0 0 0 1 0"/>
<feBlend mode="multiply" in2="effect1_innerShadow_531_1517" result="effect2_innerShadow_531_1517"/>
</filter>
<filter id="filter2_ii_531_1517" x="388.916" y="-8.13422" width="1208.59" height="575.013" filterUnits="userSpaceOnUse" color-interpolation-filters="sRGB">
<feFlood flood-opacity="0" result="BackgroundImageFix"/>
<feBlend mode="normal" in="SourceGraphic" in2="BackgroundImageFix" result="shape"/>
<feColorMatrix in="SourceAlpha" type="matrix" values="0 0 0 0 0 0 0 0 0 0 0 0 0 0 0 0 0 0 127 0" result="hardAlpha"/>
<feOffset dx="-34.8041" dy="60.9071"/>
<feGaussianBlur stdDeviation="73.9586"/>
<feComposite in2="hardAlpha" operator="arithmetic" k2="-1" k3="1"/>
<feColorMatrix type="matrix" values="0 0 0 0 1 0 0 0 0 1 0 0 0 0 1 0 0 0 0.87 0"/>
<feBlend mode="lighten" in2="shape" result="effect1_innerShadow_531_1517"/>
<feColorMatrix in="SourceAlpha" type="matrix" values="0 0 0 0 0 0 0 0 0 0 0 0 0 0 0 0 0 0 127 0" result="hardAlpha"/>
<feOffset dx="49.9721" dy="29.1504"/>
<feGaussianBlur stdDeviation="29.1504"/>
<feComposite in2="hardAlpha" operator="arithmetic" k2="-1" k3="1"/>
<feColorMatrix type="matrix" values="0 0 0 0 0.415489 0 0 0 0 0.246354 0 0 0 0 0.895833 0 0 0 1 0"/>
<feBlend mode="multiply" in2="effect1_innerShadow_531_1517" result="effect2_innerShadow_531_1517"/>
</filter>
<radialGradient id="paint0_radial_531_1517" cx="0" cy="0" r="1" gradientUnits="userSpaceOnUse" gradientTransform="translate(582.22 581.397) rotate(-75.9781) scale(286.863 189.206)">
<stop stop-color="#F4F4F1"/>
<stop offset="0.635171" stop-color="#8EF5F5"/>
<stop offset="1" stop-color="#5A28E8"/>
</radialGradient>
<radialGradient id="paint1_radial_531_1517" cx="0" cy="0" r="1" gradientUnits="userSpaceOnUse" gradientTransform="translate(408.088 716.419) rotate(-24.6315) scale(1399.56 644.892)">
<stop stop-color="#15E2B1"/>
<stop offset="0.338542" stop-color="#F4F4F1" stop-opacity="0.01"/>
<stop offset="0.666667" stop-color="#3FDEDE"/>
<stop offset="1" stop-color="#2897E8"/>
</radialGradient>
<clipPath id="clip0_531_1517">
<rect width="908.41" height="809.32" fill="white" transform="translate(0 -256)"/>
</clipPath>
</defs>
</svg>
