<svg width="28" height="16" viewBox="0 0 28 16" fill="none" xmlns="http://www.w3.org/2000/svg">
<path d="M0 2.30433C0 1.52222 0.634032 0.888184 1.41615 0.888184H26.5839C27.366 0.888184 28 1.52222 28 2.30433C28 3.08645 27.366 3.72048 26.5839 3.72048H1.41615C0.634031 3.72048 0 3.08645 0 2.30433Z" fill="white"/>
<path d="M0 7.96894C0 7.18683 0.634032 6.5528 1.41615 6.5528H26.5839C27.366 6.5528 28 7.18683 28 7.96894C28 8.75106 27.366 9.38509 26.5839 9.38509H1.41615C0.634031 9.38509 0 8.75106 0 7.96894Z" fill="white"/>
<path d="M0 13.6336C0 12.8514 0.634032 12.2174 1.41615 12.2174H26.5839C27.366 12.2174 28 12.8514 28 13.6336V13.6336C28 14.4157 27.366 15.0497 26.5839 15.0497H1.41615C0.634031 15.0497 0 14.4157 0 13.6336V13.6336Z" fill="white"/>
</svg>
