<svg width="22" height="21" viewBox="0 0 22 21" fill="none" xmlns="http://www.w3.org/2000/svg">
<path d="M1.01912 1.07269C1.50314 0.480261 2.35435 0.417216 2.92036 0.931877L20.9749 17.3484C21.5409 17.8631 21.6073 18.7605 21.1233 19.353C20.6393 19.9454 19.7881 20.0084 19.2221 19.4938L1.16759 3.07727C0.60158 2.5626 0.535107 1.66513 1.01912 1.07269Z" fill="white"/>
<path d="M20.9809 1.07269C20.4969 0.480261 19.6456 0.417216 19.0796 0.931877L1.02514 17.3484C0.459125 17.8631 0.392652 18.7605 0.876667 19.353C1.36068 19.9454 2.2119 20.0084 2.77791 19.4938L20.8324 3.07727C21.3984 2.5626 21.4649 1.66513 20.9809 1.07269Z" fill="white"/>
</svg>
