<svg width="37" height="38" viewBox="0 0 37 38" fill="none" xmlns="http://www.w3.org/2000/svg">
<g clip-path="url(#clip0_262_630)">
<path d="M35.6958 13.6372C35.6924 13.6338 35.6885 13.6309 35.6851 13.6275C35.6774 13.6202 35.6695 13.6132 35.6616 13.6062C35.6567 13.6019 35.6521 13.5972 35.6471 13.5931L30.4072 9.2507V6.67442H30.9869C31.8472 6.67442 32.5472 5.95643 32.5472 5.07389V3.26674C32.5473 1.46545 31.1207 0 29.3672 0H9.77291C8.01939 0 6.59279 1.46545 6.59279 3.26674V9.25077L1.35476 13.5932C1.34956 13.5975 1.34479 13.6024 1.33966 13.6069C1.33229 13.6134 1.32492 13.6199 1.31769 13.6268C1.31451 13.6298 1.31104 13.6326 1.30794 13.6356C0.83727 14.1001 0.578125 14.7228 0.578125 15.3888V35.5664C0.578125 36.2618 0.865092 36.8901 1.32369 37.3342C1.32607 37.3364 1.32839 37.3389 1.33077 37.3412C1.75432 37.748 2.32262 37.9986 2.94728 38H15.2551C15.6542 38 15.9777 37.6677 15.9777 37.2578C15.9777 36.8479 15.6542 36.5156 15.2551 36.5156H3.17224L13.9366 26.4807L16.148 28.5426C16.7971 29.147 17.649 29.449 18.5009 29.449C19.3527 29.449 20.2046 29.1467 20.8524 28.5422L23.0636 26.4808L33.8296 36.5156H21.7449C21.3458 36.5156 21.0222 36.8479 21.0222 37.2578C21.0222 37.6677 21.3458 38 21.7449 38H34.0526C34.6781 38 35.2473 37.7493 35.6713 37.3412C35.6737 37.3389 35.6759 37.3364 35.6784 37.3342C36.1357 36.8902 36.4219 36.2622 36.4219 35.5664V15.3888C36.4219 14.7245 36.164 14.1024 35.6958 13.6372ZM34.0826 14.2039L30.4072 17.6301V11.158L34.0826 14.2039ZM29.3672 1.48438C30.3237 1.48438 31.102 2.28393 31.102 3.26674V5.07389C31.102 5.13571 31.0483 5.19004 30.987 5.19004H13.0659C13.0058 5.19004 12.953 5.13579 12.953 5.07389V3.26674C12.953 2.60961 12.7633 1.9973 12.4369 1.48438H29.3672ZM6.59279 11.1584V17.6289L2.91931 14.2038L6.59279 11.1584ZM2.02416 35.5812C2.02409 35.5762 2.02344 35.5714 2.02344 35.5664V15.3888C2.02344 15.3838 2.02409 15.379 2.02416 15.374L12.8614 25.4783L2.02416 35.5812ZM19.8806 27.4433C19.133 28.1409 17.8682 28.1407 17.1191 27.4432L8.03811 18.9764V3.26674C8.03811 2.28393 8.81633 1.48438 9.77291 1.48438C10.7295 1.48438 11.5077 2.28393 11.5077 3.26674V5.07389C11.5077 5.95643 12.2067 6.67442 13.0659 6.67442H28.9619V18.9775L19.8806 27.4433ZM34.9766 35.5664C34.9766 35.5708 34.976 35.5751 34.9759 35.5795L24.1388 25.4784L34.9759 15.3757C34.976 15.3801 34.9766 15.3844 34.9766 15.3889V35.5664Z" fill="#31A590"/>
<path d="M11.6523 16.7747H18.0827C18.4818 16.7747 18.8053 16.4425 18.8053 16.0325V9.84106C18.8053 9.43115 18.4817 9.09888 18.0827 9.09888H11.6523C11.2532 9.09888 10.9297 9.43115 10.9297 9.84106V16.0325C10.9297 16.4425 11.2533 16.7747 11.6523 16.7747ZM12.375 10.5833H17.36V15.2904H12.375V10.5833Z" fill="#31A590"/>
<path d="M25.3467 9.09888H21.7158C21.3168 9.09888 20.9932 9.43115 20.9932 9.84106C20.9932 10.251 21.3168 10.5833 21.7158 10.5833H25.3467C25.7457 10.5833 26.0693 10.251 26.0693 9.84106C26.0693 9.43115 25.7457 9.09888 25.3467 9.09888Z" fill="#31A590"/>
<path d="M25.3467 12.1958H21.7158C21.3168 12.1958 20.9932 12.5281 20.9932 12.938C20.9932 13.3479 21.3168 13.6802 21.7158 13.6802H25.3467C25.7457 13.6802 26.0693 13.3479 26.0693 12.938C26.0693 12.5281 25.7457 12.1958 25.3467 12.1958Z" fill="#31A590"/>
<path d="M25.3467 15.2903H21.7158C21.3168 15.2903 20.9932 15.6226 20.9932 16.0325C20.9932 16.4424 21.3168 16.7747 21.7158 16.7747H25.3467C25.7457 16.7747 26.0693 16.4424 26.0693 16.0325C26.0693 15.6226 25.7457 15.2903 25.3467 15.2903Z" fill="#31A590"/>
<path d="M25.3466 18.3872H11.6523C11.2532 18.3872 10.9297 18.7195 10.9297 19.1294C10.9297 19.5393 11.2532 19.8716 11.6523 19.8716H25.3466C25.7457 19.8716 26.0693 19.5393 26.0693 19.1294C26.0693 18.7195 25.7457 18.3872 25.3466 18.3872Z" fill="#31A590"/>
<path d="M22.0481 21.4819H14.9521C14.553 21.4819 14.2295 21.8142 14.2295 22.2241C14.2295 22.634 14.553 22.9663 14.9521 22.9663H22.0481C22.4472 22.9663 22.7708 22.634 22.7708 22.2241C22.7708 21.8142 22.4472 21.4819 22.0481 21.4819Z" fill="#31A590"/>
<path d="M18.501 36.5156C18.1019 36.5156 17.7783 36.8479 17.7783 37.2578C17.7783 37.6677 18.1019 38 18.501 38H18.503C18.9021 38 19.2246 37.6677 19.2246 37.2578C19.2246 36.8479 18.9001 36.5156 18.501 36.5156Z" fill="#31A590"/>
</g>
<defs>
<clipPath id="clip0_262_630">
<rect width="37" height="38" fill="white"/>
</clipPath>
</defs>
</svg>
