<svg width="40" height="40" viewBox="0 0 40 40" fill="none" xmlns="http://www.w3.org/2000/svg">
<g clip-path="url(#clip0_262_619)">
<path d="M37.6562 13.4376H27.0312V12.6563C27.0312 12.2248 26.6814 11.8751 26.25 11.8751H23.8277C23.7041 11.2682 23.4389 10.7122 23.0688 10.2426L29.9938 1.2582C30.2572 0.916481 30.1938 0.425857 29.852 0.162497C29.5103 -0.100862 29.0197 -0.0374247 28.7563 0.304372L21.8755 9.23148C21.3184 8.92515 20.6795 8.75008 20.0001 8.75008C19.3207 8.75008 18.6817 8.92515 18.1246 9.23148L11.2437 0.304372C10.9803 -0.0374247 10.4898 -0.100862 10.1481 0.162497C9.80633 0.425935 9.74281 0.916481 10.0063 1.2582L16.9312 10.2426C16.5611 10.7121 16.296 11.2681 16.1723 11.8751H13.75C13.3186 11.8751 12.9688 12.2248 12.9688 12.6563V13.4376H2.34375C1.05141 13.4376 0 14.489 0 15.7813V37.6563C0 38.9487 1.05141 40.0001 2.34375 40.0001H37.6562C38.9486 40.0001 40 38.9487 40 37.6563V15.7813C40 14.489 38.9486 13.4376 37.6562 13.4376ZM38.4375 37.6563C38.4375 38.0871 38.087 38.4376 37.6562 38.4376H2.34375C1.91297 38.4376 1.5625 38.0871 1.5625 37.6563V15.7813C1.5625 15.3505 1.91297 15.0001 2.34375 15.0001H12.9688V15.7813C12.9688 16.2128 13.3186 16.5626 13.75 16.5626H26.25C26.6814 16.5626 27.0312 16.2128 27.0312 15.7813V15.0001H37.6562C38.087 15.0001 38.4375 15.3505 38.4375 15.7813V37.6563Z" fill="#31A590"/>
<path d="M14.5312 23.5938C14.5312 21.4398 12.7789 19.6875 10.625 19.6875C8.47109 19.6875 6.71875 21.4398 6.71875 23.5938C6.71875 25.7477 8.47109 27.5 10.625 27.5C12.7789 27.5 14.5312 25.7477 14.5312 23.5938ZM10.625 25.9375C9.33266 25.9375 8.28125 24.8861 8.28125 23.5938C8.28125 22.3014 9.33266 21.25 10.625 21.25C11.9173 21.25 12.9688 22.3014 12.9688 23.5938C12.9688 24.8861 11.9173 25.9375 10.625 25.9375Z" fill="#31A590"/>
<path d="M10.625 27.5C7.60953 27.5 5.15625 29.9533 5.15625 32.9688V34.5312C5.15625 34.9627 5.50609 35.3125 5.9375 35.3125H15.3125C15.7439 35.3125 16.0938 34.9627 16.0938 34.5312V32.9688C16.0938 29.9532 13.6405 27.5 10.625 27.5ZM14.5312 33.75H6.71875V32.9688C6.71875 30.8148 8.47109 29.0625 10.625 29.0625C12.7789 29.0625 14.5312 30.8148 14.5312 32.9688V33.75Z" fill="#31A590"/>
<path d="M34.5312 24.375H20C19.5686 24.375 19.2188 24.7248 19.2188 25.1562C19.2188 25.5877 19.5686 25.9375 20 25.9375H34.5312C34.9627 25.9375 35.3125 25.5877 35.3125 25.1562C35.3125 24.7248 34.9627 24.375 34.5312 24.375Z" fill="#31A590"/>
<path d="M34.5312 29.0625H20C19.5686 29.0625 19.2188 29.4123 19.2188 29.8438C19.2188 30.2752 19.5686 30.625 20 30.625H34.5312C34.9627 30.625 35.3125 30.2752 35.3125 29.8438C35.3125 29.4123 34.9627 29.0625 34.5312 29.0625Z" fill="#31A590"/>
<path d="M34.5312 33.75H20C19.5686 33.75 19.2188 34.0998 19.2188 34.5312C19.2188 34.9627 19.5686 35.3125 20 35.3125H34.5312C34.9627 35.3125 35.3125 34.9627 35.3125 34.5312C35.3125 34.0998 34.9627 33.75 34.5312 33.75Z" fill="#31A590"/>
<path d="M21.5625 21.25H23.125C23.5564 21.25 23.9062 20.9002 23.9062 20.4688C23.9062 20.0373 23.5564 19.6875 23.125 19.6875H21.5625C21.1311 19.6875 20.7812 20.0373 20.7812 20.4688C20.7812 20.9002 21.1311 21.25 21.5625 21.25Z" fill="#31A590"/>
<path d="M26.25 21.25H27.8125C28.2439 21.25 28.5938 20.9002 28.5938 20.4688C28.5938 20.0373 28.2439 19.6875 27.8125 19.6875H26.25C25.8186 19.6875 25.4688 20.0373 25.4688 20.4688C25.4688 20.9002 25.8186 21.25 26.25 21.25Z" fill="#31A590"/>
<path d="M30.9375 21.25H32.5C32.9314 21.25 33.2812 20.9002 33.2812 20.4688C33.2812 20.0373 32.9314 19.6875 32.5 19.6875H30.9375C30.5061 19.6875 30.1562 20.0373 30.1562 20.4688C30.1562 20.9002 30.5061 21.25 30.9375 21.25Z" fill="#31A590"/>
</g>
<defs>
<clipPath id="clip0_262_619">
<rect width="40" height="40" fill="white"/>
</clipPath>
</defs>
</svg>
