<svg width="23" height="22" viewBox="0 0 23 22" fill="none" xmlns="http://www.w3.org/2000/svg">
<g clip-path="url(#clip0_530_690)">
<path d="M13.5162 11.0755C13.5162 12.2304 12.58 13.1666 11.4251 13.1666C10.2702 13.1666 9.33398 12.2304 9.33398 11.0755C9.33398 9.92057 10.2702 8.98437 11.4251 8.98437C12.58 8.98437 13.5162 9.92057 13.5162 11.0755Z" fill="url(#paint0_linear_530_690)"/>
<path d="M16.3167 7.37478C16.2162 7.10239 16.0558 6.85584 15.8474 6.65346C15.645 6.44508 15.3987 6.28472 15.1261 6.18419C14.905 6.09834 14.573 5.99615 13.9613 5.96832C13.2997 5.93814 13.1013 5.93164 11.4263 5.93164C9.75111 5.93164 9.55274 5.93798 8.89126 5.96815C8.27963 5.99615 7.94739 6.09834 7.72651 6.18419C7.45395 6.28472 7.2074 6.44508 7.00519 6.65346C6.79681 6.85584 6.63645 7.10222 6.53576 7.37478C6.44991 7.59583 6.34772 7.92807 6.31988 8.5397C6.2897 9.20117 6.2832 9.39955 6.2832 11.0747C6.2832 12.7498 6.2897 12.9481 6.31988 13.6098C6.34772 14.2214 6.44991 14.5535 6.53576 14.7745C6.63645 15.0471 6.79665 15.2935 7.00502 15.4959C7.2074 15.7042 7.45379 15.8646 7.72634 15.9651C7.94739 16.0511 8.27963 16.1533 8.89126 16.1812C9.55274 16.2113 9.75094 16.2177 11.4261 16.2177C13.1015 16.2177 13.2999 16.2113 13.9612 16.1812C14.5728 16.1533 14.905 16.0511 15.1261 15.9651C15.6732 15.7541 16.1056 15.3216 16.3167 14.7745C16.4025 14.5535 16.5047 14.2214 16.5327 13.6098C16.5629 12.9481 16.5692 12.7498 16.5692 11.0747C16.5692 9.39955 16.5629 9.20117 16.5327 8.5397C16.5049 7.92807 16.4027 7.59583 16.3167 7.37478ZM11.4263 14.2959C9.64709 14.2959 8.20478 12.8538 8.20478 11.0746C8.20478 9.29536 9.64709 7.85322 11.4263 7.85322C13.2053 7.85322 14.6477 9.29536 14.6477 11.0746C14.6477 12.8538 13.2053 14.2959 11.4263 14.2959ZM14.775 8.47868C14.3593 8.47868 14.0222 8.14161 14.0222 7.72586C14.0222 7.3101 14.3593 6.97303 14.775 6.97303C15.1908 6.97303 15.5278 7.3101 15.5278 7.72586C15.5277 8.14161 15.1908 8.47868 14.775 8.47868Z" fill="url(#paint1_linear_530_690)"/>
<path d="M11.425 0.150391C5.39221 0.150391 0.5 5.0426 0.5 11.0754C0.5 17.1082 5.39221 22.0004 11.425 22.0004C17.4578 22.0004 22.35 17.1082 22.35 11.0754C22.35 5.0426 17.4578 0.15039 11.425 0.150391ZM17.6605 13.6618C17.6302 14.3296 17.524 14.7855 17.3689 15.1846C17.043 16.0273 16.3769 16.6934 15.5342 17.0193C15.1353 17.1744 14.6792 17.2804 14.0116 17.3109C13.3426 17.3414 13.1289 17.3487 11.4252 17.3487C9.7213 17.3487 9.50776 17.3414 8.83861 17.3109C8.17097 17.2804 7.71487 17.1744 7.31596 17.0193C6.8972 16.8618 6.51812 16.6149 6.20472 16.2957C5.88565 15.9824 5.63876 15.6032 5.48123 15.1846C5.3262 14.7857 5.22001 14.3296 5.18967 13.6619C5.15883 12.9928 5.15166 12.7791 5.15166 11.0754C5.15166 9.37169 5.15883 9.15798 5.1895 8.48901C5.21984 7.8212 5.32586 7.36526 5.4809 6.96618C5.63843 6.54759 5.88548 6.16834 6.20472 5.85511C6.51795 5.53587 6.8972 5.28899 7.31579 5.13145C7.71487 4.97642 8.17081 4.8704 8.83861 4.83989C9.50759 4.80939 9.7213 4.80205 11.425 4.80205C13.1287 4.80205 13.3424 4.80939 14.0114 4.84006C14.6792 4.8704 15.1351 4.97642 15.5342 5.13129C15.9528 5.28882 16.332 5.53587 16.6454 5.85511C16.9645 6.16851 17.2116 6.54759 17.3689 6.96618C17.5241 7.36526 17.6302 7.8212 17.6607 8.489C17.6912 9.15798 17.6983 9.37169 17.6983 11.0754C17.6983 12.7791 17.6912 12.9928 17.6605 13.6618Z" fill="url(#paint2_linear_530_690)"/>
</g>
<defs>
<linearGradient id="paint0_linear_530_690" x1="11.4251" y1="8.98437" x2="8.53512" y2="12.9526" gradientUnits="userSpaceOnUse">
<stop stop-color="#50067D"/>
<stop offset="1" stop-color="#19E7DA"/>
</linearGradient>
<linearGradient id="paint1_linear_530_690" x1="11.4262" y1="5.93164" x2="4.31842" y2="15.6914" gradientUnits="userSpaceOnUse">
<stop stop-color="#50067D"/>
<stop offset="1" stop-color="#19E7DA"/>
</linearGradient>
<linearGradient id="paint2_linear_530_690" x1="11.425" y1="0.15039" x2="-3.67368" y2="20.8825" gradientUnits="userSpaceOnUse">
<stop stop-color="#50067D"/>
<stop offset="1" stop-color="#19E7DA"/>
</linearGradient>
<clipPath id="clip0_530_690">
<rect width="21.85" height="21.85" fill="white" transform="translate(0.5 0.150391)"/>
</clipPath>
</defs>
</svg>
