<svg width="1266" height="34" viewBox="0 0 1266 34" fill="none" xmlns="http://www.w3.org/2000/svg">
<path d="M671.098 10.5021C671.833 10.5009 672.464 10.6049 673.024 10.849C673.619 11.0581 674.075 11.3723 674.39 11.7918C674.706 12.1763 674.882 12.6661 674.883 13.1911C674.884 13.6811 674.779 14.1012 674.57 14.4866C674.395 14.8368 674.151 15.1172 673.906 15.2926C673.626 15.4681 673.382 15.5735 673.102 15.6789C672.857 15.7843 672.647 15.8196 672.437 15.82L672.157 15.8554L669.462 15.8598C668.797 15.8608 668.237 16.1067 667.783 16.5625C667.329 17.0182 667.12 17.5785 667.121 18.2085C667.122 18.8735 667.333 19.3982 667.788 19.8525C668.244 20.3417 668.805 20.5508 669.47 20.5498L672.41 20.545C673.25 20.5437 673.985 20.7175 674.58 21.1016C674.826 21.2412 675.001 21.4509 675.211 21.6605C675.387 21.9053 675.527 22.15 675.633 22.4299C675.738 22.7097 675.773 22.9896 675.774 23.3046C675.776 24.2846 675.462 25.0551 674.798 25.5812C673.924 26.2826 672.489 26.6349 670.529 26.6381C670.039 26.6388 669.619 26.5695 669.164 26.4302C668.744 26.2909 668.358 26.0815 668.008 25.8371C667.658 25.5577 667.377 25.2431 667.131 24.8585C666.675 24.1592 666.01 23.7753 665.135 23.7767C664.68 23.7774 664.26 23.9181 663.875 24.1637C663.316 24.5146 662.967 25.0052 662.828 25.6354C662.689 26.2656 662.795 26.8605 663.145 27.3849C663.953 28.6436 665.004 29.5869 666.3 30.2849C667.596 30.9828 669.032 31.3655 670.537 31.3631C673.617 31.3581 675.996 30.6193 677.743 29.1815C679.561 27.7436 680.468 25.7821 680.464 23.2971C680.46 20.9171 679.547 19.0636 677.69 17.7366C678.948 16.4045 679.54 14.8636 679.538 13.1836C679.534 11.0486 678.726 9.29988 677.114 7.90247C675.502 6.50505 673.506 5.77326 671.091 5.77713C669.586 5.77955 668.186 6.16679 666.893 6.86887C665.564 7.571 664.55 8.51763 663.747 9.77892C663.398 10.3045 663.294 10.8997 663.435 11.5294C663.576 12.1592 663.927 12.6486 664.452 12.9978C664.838 13.2422 665.258 13.3815 665.713 13.3808C666.588 13.3794 667.252 12.9933 667.706 12.2926C668.09 11.732 668.545 11.2762 669.139 10.9603C669.734 10.6443 670.398 10.5032 671.098 10.5021Z" fill="white"/>
<path d="M687.353 6.06603C686.058 6.06811 685.01 7.11979 685.012 8.41479L685.045 28.8198C685.047 30.1148 686.099 31.1631 687.394 31.161C688.689 31.1589 689.737 30.1072 689.735 28.8122L689.702 8.40726C689.7 7.11226 688.648 6.06395 687.353 6.06603Z" fill="white"/>
<path d="M706.184 6.03581C706.114 6.03592 706.009 6.03609 705.939 6.0362L697.539 6.04968C697.189 6.05024 696.874 6.12075 696.594 6.2262C695.755 6.57755 695.196 7.41844 695.198 8.39844L695.231 28.8034C695.233 30.0984 696.284 31.1467 697.579 31.1447C698.874 31.1426 699.923 30.0909 699.92 28.7959L699.913 23.8609L705.968 23.8512C706.038 23.8511 706.143 23.8509 706.213 23.8158C711.007 23.7031 714.886 19.7419 714.878 14.9119C714.87 10.0819 710.979 6.16811 706.184 6.03581ZM705.96 19.1612L699.905 19.1709L699.892 10.7359L705.947 10.7262C708.257 10.7225 710.15 12.6094 710.153 14.9194C710.157 17.2644 708.305 19.1574 705.96 19.1612Z" fill="white"/>
<path d="M738.934 27.2633L730.517 17.0568L737.331 9.94082C738.24 9.02936 738.202 7.52442 737.291 6.65088C736.344 5.7424 734.874 5.77976 733.966 6.69122L723.623 17.4878L723.608 8.35284C723.606 7.05784 722.555 6.00953 721.26 6.01161C719.965 6.01369 718.916 7.06537 718.918 8.36037L718.951 28.7653C718.953 30.0603 720.005 31.1087 721.3 31.1066C722.595 31.1045 723.643 30.0528 723.641 28.7578L723.634 24.2428L727.233 20.457L735.299 30.2441C735.754 30.8034 736.455 31.0823 737.12 31.0812C737.645 31.0803 738.17 30.9045 738.589 30.5538C739.603 29.7472 739.74 28.277 738.934 27.2633Z" fill="white"/>
<path d="M754.13 5.25885C754.13 5.25885 754.13 5.25885 754.095 5.25891C746.78 5.27065 740.839 11.2302 740.851 18.5802C740.863 25.9302 746.822 31.8706 754.137 31.8589C761.487 31.8471 767.428 25.8875 767.416 18.5375C767.404 11.2226 761.445 5.24711 754.13 5.25885ZM754.13 27.1689C749.405 27.1765 745.549 23.3326 745.541 18.5727C745.533 13.8127 749.377 9.95649 754.102 9.9489C758.862 9.94126 762.718 13.7851 762.726 18.5451C762.734 23.3051 758.89 27.1612 754.13 27.1689Z" fill="white"/>
<path d="M790.15 17.1711C790.953 15.9798 791.441 14.579 791.439 13.039C791.432 9.08399 788.207 5.86916 784.252 5.87551C784.112 5.87573 784.007 5.8759 783.867 5.91112L774.067 5.92685C772.772 5.92893 771.724 6.98062 771.726 8.27561L771.759 28.6806C771.761 29.9756 772.812 31.0239 774.107 31.0218L785.447 31.0036C785.517 31.0035 785.622 31.0033 785.692 31.0032C789.857 30.8565 793.177 27.4562 793.17 23.2562C793.166 20.7712 791.973 18.5681 790.15 17.1711ZM784.26 10.6005C784.33 10.6004 784.435 10.6002 784.505 10.6001C785.765 10.7031 786.747 11.7865 786.749 13.0465C786.751 14.4465 785.633 15.5333 784.268 15.5355L784.233 15.5356L776.428 15.5481L776.42 10.6131L784.26 10.6005ZM785.44 26.3136L776.445 26.3281L776.435 20.2731L784.24 20.2605L784.275 20.2605L785.43 20.2586C787.11 20.2559 788.477 21.6187 788.48 23.2637C788.483 24.9437 787.12 26.3109 785.44 26.3136Z" fill="white"/>
<path d="M819.547 8.19886C819.546 7.84886 819.44 7.49903 819.3 7.18426C819.159 6.90448 818.949 6.62482 818.704 6.41521C818.669 6.38027 818.669 6.38027 818.669 6.38027C818.634 6.34533 818.599 6.34538 818.564 6.31044C818.178 6.03106 817.688 5.85684 817.198 5.85763C817.128 5.85774 817.058 5.85785 817.023 5.85791C816.743 5.89336 816.463 5.92881 816.218 6.0692C815.938 6.17465 815.659 6.3851 815.449 6.59544C815.449 6.63044 815.414 6.66549 815.379 6.70055L802.244 22.2617L802.222 8.22667C802.22 6.93167 801.168 5.88336 799.873 5.88544C798.578 5.88751 797.53 6.9392 797.532 8.2342L797.564 28.6392C797.564 28.6742 797.564 28.6742 797.564 28.6742L797.564 28.7092C797.565 29.0242 797.636 29.3741 797.776 29.6888C797.916 29.9336 798.057 30.1434 798.267 30.353C798.302 30.388 798.337 30.4229 798.372 30.4579C798.477 30.5277 798.582 30.5975 798.723 30.6673L798.723 30.7023C798.723 30.7023 798.723 30.7023 798.758 30.7023C798.828 30.7371 798.933 30.772 799.003 30.8069L799.003 30.8419C799.003 30.8419 799.003 30.8419 799.038 30.8418L799.073 30.8418C799.248 30.9115 799.458 30.9811 799.668 30.9808C799.668 30.9808 799.668 30.9808 799.703 30.9807C799.773 30.9806 799.843 30.9805 799.913 30.9804C800.228 30.9799 800.578 30.9093 800.893 30.7688C801.173 30.6284 801.452 30.4529 801.662 30.2076C801.662 30.2076 801.662 30.1726 801.697 30.1725C802.046 29.752 802.046 29.752 801.697 30.1725L814.832 14.6114L814.854 28.6114C814.856 29.9064 815.908 30.9547 817.238 30.9526C818.533 30.9505 819.581 29.8988 819.579 28.6038L819.547 8.19886Z" fill="white"/>
<path d="M829.768 2.86245C829.773 5.62744 832.436 7.75817 835.796 7.75278C839.191 7.74733 841.813 5.60812 841.808 2.84312C841.807 1.86313 841 1.02442 839.985 1.02605C838.97 1.02768 838.167 1.86897 838.168 2.84897C838.169 3.33897 837.225 4.11048 835.79 4.11279C834.39 4.11503 833.444 3.34655 833.443 2.85655C833.442 1.87655 832.6 1.0379 831.585 1.03953C830.605 1.0411 829.767 1.88245 829.768 2.86245ZM846.822 8.15508C846.821 7.80509 846.716 7.45525 846.575 7.14048C846.435 6.8607 846.224 6.58104 845.979 6.37143C845.944 6.33649 845.944 6.33649 845.944 6.33649C845.909 6.30155 845.874 6.30161 845.839 6.26666C845.453 5.98728 844.963 5.81307 844.473 5.81385C844.403 5.81396 844.333 5.81408 844.298 5.81413C844.018 5.84958 843.738 5.88503 843.493 6.02543C843.214 6.13087 842.934 6.34132 842.724 6.55166C842.724 6.58666 842.689 6.62172 842.655 6.65677L829.519 22.2179L829.497 8.18289C829.495 6.88789 828.443 5.83958 827.148 5.84166C825.853 5.84374 824.805 6.89542 824.807 8.19042L824.84 28.5954C824.84 28.6304 824.84 28.6304 824.84 28.6304L824.84 28.6654C824.84 28.9804 824.911 29.3303 825.051 29.6451C825.192 29.8898 825.332 30.0996 825.542 30.3093C825.578 30.3442 825.613 30.3792 825.648 30.4141C825.753 30.4839 825.858 30.5538 825.998 30.6235L825.998 30.6585C825.998 30.6585 825.998 30.6585 826.033 30.6585C826.103 30.6934 826.208 30.7282 826.278 30.7631L826.278 30.7981C826.278 30.7981 826.278 30.7981 826.313 30.798L826.348 30.798C826.523 30.8677 826.733 30.9374 826.943 30.937C826.943 30.937 826.943 30.937 826.978 30.937C827.048 30.9369 827.118 30.9367 827.188 30.9366C827.503 30.9361 827.853 30.8656 828.168 30.7251C828.448 30.5846 828.728 30.4092 828.937 30.1638C828.937 30.1638 828.937 30.1288 828.972 30.1288C829.322 29.7082 829.322 29.7082 828.972 30.1288L842.107 14.5677L842.13 28.5676C842.132 29.8626 843.183 30.911 844.513 30.9088C845.808 30.9067 846.857 29.8551 846.855 28.5601L846.822 8.15508Z" fill="white"/>
<path d="M874.1 5.0663C874.1 5.0663 874.1 5.0663 874.065 5.06635C866.75 5.07809 860.81 11.0376 860.822 18.3876C860.833 25.7376 866.793 31.6781 874.108 31.6663C881.458 31.6545 887.398 25.695 887.387 18.345C887.375 11.03 881.415 5.05456 874.1 5.0663ZM874.1 26.9763C869.375 26.9839 865.519 23.1401 865.512 18.3801C865.504 13.6201 869.348 9.76393 874.073 9.75635C878.833 9.74871 882.689 13.5925 882.697 18.3525C882.704 23.1125 878.86 26.9687 874.1 26.9763Z" fill="white"/>
<path d="M903.495 10.0591C905.63 10.0557 907.661 10.8924 909.203 12.36C910.15 13.2684 911.62 13.2311 912.528 12.2846C913.437 11.3732 913.399 9.86823 912.453 8.99475C910.034 6.65363 906.847 5.36374 903.487 5.36913C896.347 5.38059 890.547 11.1999 890.558 18.3399C890.569 25.4799 896.389 31.2806 903.529 31.2691C906.819 31.2638 909.967 30.0338 912.378 27.7549C913.916 26.3174 912.862 23.6941 910.762 23.6975C910.167 23.6984 909.607 23.9093 909.153 24.3301C907.615 25.8025 905.621 26.5757 903.521 26.5791C898.936 26.5865 895.255 22.8824 895.248 18.3324C895.241 13.7824 898.91 10.0665 903.495 10.0591Z" fill="white"/>
<path d="M935.892 16.9371C936.695 15.7458 937.183 14.3451 937.181 12.8051C937.174 8.85007 933.949 5.63524 929.994 5.64159C929.854 5.64181 929.749 5.64198 929.609 5.67721L919.809 5.69294C918.514 5.69502 917.466 6.7467 917.468 8.0417L917.501 28.4467C917.503 29.7417 918.554 30.79 919.849 30.7879L931.189 30.7697C931.259 30.7696 931.364 30.7694 931.434 30.7693C935.599 30.6226 938.919 27.2223 938.912 23.0223C938.908 20.5373 937.715 18.3342 935.892 16.9371ZM930.002 10.3666C930.072 10.3665 930.177 10.3663 930.247 10.3662C931.507 10.4692 932.489 11.5526 932.491 12.8126C932.493 14.2126 931.375 15.2994 930.01 15.3016L929.975 15.3016L922.17 15.3142L922.162 10.3792L930.002 10.3666ZM931.182 26.0797L922.187 26.0941L922.177 20.0392L929.982 20.0266L930.017 20.0266L931.172 20.0247C932.852 20.022 934.219 21.3848 934.222 23.0298C934.225 24.7098 932.862 26.077 931.182 26.0797Z" fill="white"/>
<path d="M951.01 30.7379L941.98 30.7524L941.977 28.9324L944.916 28.2627L944.884 8.27769L941.943 7.58241L941.94 5.76242L950.97 5.74792L950.973 7.56792L948.034 8.27264L948.066 28.2576L951.007 28.9179L951.01 30.7379Z" fill="white"/>
<path d="M972.42 5.5035L955.305 5.53097C954.01 5.53304 952.962 6.58473 952.964 7.91473C952.966 9.20973 954.018 10.258 955.313 10.256L961.508 10.246L961.537 28.306C961.539 29.601 962.59 30.6493 963.885 30.6472C965.18 30.6451 966.229 29.5935 966.227 28.2985L966.198 10.2385L972.428 10.2285C973.723 10.2264 974.771 9.17473 974.769 7.87973C974.767 6.54973 973.715 5.50142 972.42 5.5035Z" fill="white"/>
<path d="M996.894 5.56922C995.599 5.57129 994.551 6.62298 994.553 7.91798L994.565 15.793L982.805 15.8118L982.793 7.93685C982.791 6.64185 981.739 5.59354 980.444 5.59562C979.149 5.5977 978.101 6.64938 978.103 7.94438L978.135 28.3494C978.137 29.6443 979.189 30.7277 980.484 30.7256C981.779 30.7235 982.827 29.6368 982.825 28.3418L982.813 20.5018L994.573 20.483L994.585 28.3229C994.587 29.6179 995.639 30.6663 996.934 30.6642C998.229 30.6621 999.277 29.6104 999.275 28.3154L999.243 7.91045C999.241 6.61545 998.189 5.56714 996.894 5.56922Z" fill="white"/>
<path d="M1007.07 5.55288C1005.77 5.55496 1004.73 6.60664 1004.73 7.90164L1004.76 28.3066C1004.76 29.6016 1005.82 30.6499 1007.11 30.6479C1008.41 30.6458 1009.45 29.5941 1009.45 28.2991L1009.42 7.89412C1009.42 6.59912 1008.36 5.5508 1007.07 5.55288Z" fill="white"/>
<path d="M1019.88 2.55733C1019.88 5.32232 1022.54 7.45305 1025.9 7.44766C1029.3 7.44221 1031.92 5.303 1031.92 2.538C1031.91 1.558 1031.11 0.719295 1030.09 0.720925C1029.08 0.722554 1028.27 1.56384 1028.28 2.54384C1028.28 3.03384 1027.33 3.80536 1025.9 3.80766C1024.5 3.80991 1023.55 3.04143 1023.55 2.55143C1023.55 1.57143 1022.71 0.732778 1021.69 0.734407C1020.71 0.73598 1019.87 1.57733 1019.88 2.55733ZM1036.93 7.84996C1036.93 7.49996 1036.82 7.15013 1036.68 6.83536C1036.54 6.55558 1036.33 6.27592 1036.09 6.06631C1036.05 6.03137 1036.05 6.03137 1036.05 6.03137C1036.02 5.99642 1035.98 5.99648 1035.95 5.96154C1035.56 5.68216 1035.07 5.50794 1034.58 5.50873C1034.51 5.50884 1034.44 5.50895 1034.41 5.50901C1034.13 5.54446 1033.85 5.57991 1033.6 5.7203C1033.32 5.82575 1033.04 6.0362 1032.83 6.24654C1032.83 6.28154 1032.8 6.31659 1032.76 6.35165L1019.63 21.9128L1019.6 7.87777C1019.6 6.58277 1018.55 5.53446 1017.26 5.53653C1015.96 5.53861 1014.91 6.5903 1014.91 7.88529L1014.95 28.2903C1014.95 28.3253 1014.95 28.3253 1014.95 28.3253L1014.95 28.3603C1014.95 28.6753 1015.02 29.0252 1015.16 29.3399C1015.3 29.5847 1015.44 29.7945 1015.65 30.0041C1015.68 30.0391 1015.72 30.074 1015.75 30.109C1015.86 30.1788 1015.97 30.2486 1016.11 30.3184L1016.11 30.3534C1016.11 30.3534 1016.11 30.3534 1016.14 30.3534C1016.21 30.3882 1016.32 30.4231 1016.39 30.458L1016.39 30.493C1016.39 30.493 1016.39 30.493 1016.42 30.4929L1016.46 30.4929C1016.63 30.5626 1016.84 30.6322 1017.05 30.6319C1017.05 30.6319 1017.05 30.6319 1017.09 30.6318C1017.16 30.6317 1017.23 30.6316 1017.3 30.6315C1017.61 30.631 1017.96 30.5604 1018.28 30.4199C1018.56 30.2795 1018.83 30.104 1019.04 29.8587C1019.04 29.8587 1019.04 29.8237 1019.08 29.8236C1019.43 29.4031 1019.43 29.4031 1019.08 29.8236L1032.21 14.2625L1032.24 28.2625C1032.24 29.5575 1033.29 30.6058 1034.62 30.6037C1035.92 30.6016 1036.96 29.5499 1036.96 28.2549L1036.93 7.84996Z" fill="white"/>
<path d="M1077.84 14.0843C1077.31 12.8602 1076.54 11.7764 1075.56 10.798C1074.61 9.85449 1073.38 9.08645 1071.88 8.52887C1070.41 7.93623 1068.8 7.62381 1067.01 7.55668L1067.01 6.61168C1067.01 5.94668 1066.76 5.38707 1066.31 4.89781C1065.85 4.44354 1065.29 4.19944 1064.63 4.2005C1063.96 4.20157 1063.4 4.44747 1062.91 4.90325C1062.46 5.39398 1062.21 5.95438 1062.22 6.61938L1062.22 7.59937C1060.5 7.63713 1058.89 7.95471 1057.46 8.51701C1055.99 9.07937 1054.8 9.85128 1053.86 10.7628C1052.88 11.7094 1052.15 12.7605 1051.62 13.9864C1051.1 15.1772 1050.79 16.4377 1050.75 17.7678L1050.75 17.9078C1050.75 17.9778 1050.75 18.0128 1050.75 18.0478C1050.76 19.1328 1050.9 20.1826 1051.21 21.1971C1051.57 22.2115 1052.06 23.1207 1052.72 23.9946C1053.35 24.8686 1054.16 25.6373 1055.07 26.3009C1055.95 26.9295 1057.03 27.4877 1058.29 27.8707C1059.52 28.2537 1060.85 28.4966 1062.25 28.5293L1062.25 29.5093C1062.25 30.1393 1062.5 30.699 1062.95 31.1882C1063.45 31.6424 1064.01 31.8865 1064.67 31.8855C1065.34 31.8844 1065.9 31.6385 1066.35 31.1828C1066.8 30.692 1067.05 30.1316 1067.05 29.5017L1067.05 28.5217C1068.83 28.4488 1070.44 28.1312 1071.91 27.5338C1073.41 26.9364 1074.64 26.1645 1075.58 25.1829C1076.56 24.2364 1077.33 23.1151 1077.85 21.8893C1078.37 20.6285 1078.65 19.368 1078.65 18.038C1078.65 16.638 1078.36 15.3435 1077.84 14.0843ZM1062.24 23.7344C1060.07 23.6328 1058.43 23.0405 1057.27 21.9223C1056.11 20.8392 1055.52 19.5451 1055.51 18.0401C1055.51 16.5351 1056.07 15.2392 1057.22 14.1524C1058.38 13.0655 1060.05 12.4679 1062.22 12.3944L1062.24 23.7344ZM1073.44 20.0414C1073.16 20.6718 1072.74 21.2675 1072.21 21.7933C1071.66 22.3542 1070.96 22.7754 1070.05 23.1268C1069.17 23.4782 1068.16 23.6899 1067.04 23.7267L1067.02 12.3517C1069.22 12.4531 1070.94 13.0454 1072.1 14.1285C1073.29 15.2116 1073.85 16.5057 1073.85 18.0107C1073.85 18.7457 1073.72 19.4109 1073.44 20.0414Z" fill="white"/>
<path d="M1104.94 27.0958L1094.54 6.70749C1094.54 6.70749 1094.54 6.74249 1094.58 6.74243C1094.4 6.39271 1094.16 6.11311 1093.84 5.86861C1093.77 5.79872 1093.7 5.76384 1093.63 5.72895C1093.63 5.72895 1093.6 5.694 1093.56 5.69406C1093.56 5.65906 1093.53 5.65912 1093.49 5.65917C1093.46 5.62423 1093.42 5.62429 1093.39 5.58934C1093.39 5.58934 1093.35 5.5894 1093.32 5.55445C1093.25 5.51957 1093.14 5.51973 1093.07 5.48485L1093.04 5.4849C1092.93 5.45007 1092.86 5.45018 1092.79 5.4153C1092.76 5.41535 1092.72 5.41541 1092.72 5.41541C1092.65 5.41552 1092.55 5.41569 1092.48 5.4158L1092.44 5.38086C1092.44 5.38086 1092.44 5.38086 1092.41 5.41592C1092.34 5.41603 1092.23 5.4162 1092.13 5.41636C1092.09 5.41642 1092.06 5.41648 1092.02 5.45153C1091.99 5.45159 1091.95 5.45165 1091.88 5.45176C1091.85 5.48681 1091.78 5.48693 1091.74 5.52198C1091.71 5.52204 1091.71 5.52204 1091.67 5.52209C1091.5 5.59238 1091.32 5.66266 1091.15 5.76794C1091.15 5.80294 1091.11 5.80299 1091.08 5.83805C1091.04 5.8731 1091.01 5.90816 1090.97 5.90822C1090.94 5.94327 1090.9 5.97833 1090.87 6.01339C1090.83 6.04844 1090.8 6.0485 1090.8 6.0835C1090.66 6.22372 1090.55 6.36389 1090.45 6.50406C1090.45 6.53906 1090.41 6.53911 1090.41 6.57412C1090.38 6.60917 1090.38 6.64417 1090.34 6.67923L1080.02 27.1358C1079.21 28.6771 1080.37 30.5303 1082.12 30.5275C1082.96 30.5261 1083.8 30.0698 1084.19 29.2291L1085.83 26.0065L1099.13 25.9852L1100.78 29.2025C1101.34 30.3566 1102.77 30.8443 1103.93 30.2475C1105.08 29.6506 1105.53 28.2499 1104.94 27.0958ZM1088.23 21.3126L1092.45 12.9408L1096.7 21.299L1088.23 21.3126Z" fill="white"/>
<path d="M1128.72 26.6377L1120.3 16.4312L1127.12 9.31521C1128.02 8.40375 1127.99 6.89881 1127.08 6.02527C1126.13 5.11679 1124.66 5.15415 1123.75 6.06561L1113.41 16.8622L1113.39 7.72724C1113.39 6.43224 1112.34 5.38392 1111.04 5.386C1109.75 5.38808 1108.7 6.43976 1108.7 7.73476L1108.74 28.1397C1108.74 29.4347 1109.79 30.483 1111.08 30.481C1112.38 30.4789 1113.43 29.4272 1113.43 28.1322L1113.42 23.6172L1117.02 19.8314L1125.08 29.6185C1125.54 30.1778 1126.24 30.4566 1126.9 30.4556C1127.43 30.4547 1127.95 30.2789 1128.37 29.9282C1129.39 29.1216 1129.53 27.6514 1128.72 26.6377Z" fill="white"/>
<path d="M1152.67 5.70419C1152.25 5.45987 1151.8 5.3206 1151.38 5.32127C1150.61 5.32251 1149.84 5.70874 1149.42 6.37441L1142.68 16.6052L1135.21 6.32722C1134.75 5.69796 1134.02 5.34913 1133.28 5.35031C1132.83 5.35104 1132.34 5.49183 1131.92 5.8075C1130.87 6.57919 1130.66 8.04952 1131.4 9.09834L1139.92 20.7747L1135.94 26.8361C1135.24 27.8872 1135.52 29.3567 1136.61 30.055C1137.03 30.3343 1137.45 30.4387 1137.91 30.4379C1138.68 30.4367 1139.41 30.0855 1139.86 29.3848L1144.65 22.1321C1144.68 22.097 1144.72 22.097 1144.72 22.062L1144.75 22.0269C1144.75 21.9919 1144.75 21.9919 1144.79 21.9919L1144.79 21.9569C1144.79 21.9569 1144.79 21.9919 1144.75 21.9919C1144.75 22.0269 1144.72 22.027 1144.72 22.062C1144.72 22.027 1144.72 22.027 1144.75 22.0269L1144.75 21.9919L1144.79 21.9569L1153.34 8.95812C1154.04 7.872 1153.72 6.43751 1152.67 5.70419Z" fill="white"/>
<path d="M1157.61 29.1463C1158.28 28.4802 1158.83 27.7443 1159.32 26.9035C1159.81 26.0628 1160.23 25.1521 1160.51 24.1016C1160.82 23.0861 1161.07 22.0707 1161.27 21.0904C1161.45 20.0751 1161.62 18.9198 1161.72 17.5547C1161.83 16.1895 1161.89 14.9994 1161.93 13.9493C1161.96 12.8643 1161.96 11.5693 1161.99 9.95924L1170.01 9.94637L1170.1 27.8662C1170.11 28.5312 1170.35 29.0558 1170.81 29.5101C1171.26 29.9644 1171.79 30.1735 1172.45 30.1725C1173.08 30.1715 1173.64 29.9606 1174.1 29.5048C1174.55 29.0491 1174.8 28.4887 1174.76 27.8588L1174.69 7.62885C1174.69 6.99885 1174.45 6.43925 1173.99 5.98498C1173.53 5.53071 1172.97 5.28661 1172.34 5.28762L1159.71 5.3079C1159.11 5.30885 1158.62 5.51964 1158.2 5.90531C1157.68 6.36115 1157.4 6.9566 1157.4 7.6216L1157.37 7.62166C1157.37 8.14666 1157.37 8.84665 1157.37 9.82666C1157.37 10.9117 1157.37 11.7167 1157.37 12.2767C1157.38 12.8366 1157.34 13.5717 1157.31 14.5168C1157.31 15.4618 1157.28 16.1968 1157.24 16.6869C1157.21 17.1769 1157.14 17.807 1157.07 18.5771C1157 19.3473 1156.9 19.9774 1156.79 20.3976C1156.69 20.8528 1156.58 21.3429 1156.45 21.9382C1156.27 22.5334 1156.1 22.9887 1155.92 23.374C1155.71 23.7593 1155.5 24.1097 1155.22 24.4951C1154.98 24.8455 1154.67 25.196 1154.35 25.4765L1153.69 26.0376C1153.16 26.4584 1152.88 27.0189 1152.85 27.7539C1152.78 28.489 1152.96 29.0838 1153.38 29.5731C1153.8 30.0624 1154.36 30.3415 1155.09 30.4103C1155.86 30.4791 1156.46 30.3031 1156.91 29.8824L1157.61 29.1463Z" fill="white"/>
<path d="M1190.93 12.5728C1190.86 12.5729 1190.76 12.5731 1190.69 12.5732L1184.63 12.5829L1184.62 7.61291C1184.62 6.31791 1183.57 5.2696 1182.27 5.27168C1180.98 5.27376 1179.93 6.32544 1179.93 7.62044L1179.97 28.0254C1179.97 29.3204 1181.02 30.4037 1182.32 30.4016L1190.72 30.3882C1190.79 30.3881 1190.89 30.3529 1190.96 30.3528C1195.75 30.2051 1199.63 26.2788 1199.63 21.4489C1199.62 16.6189 1195.73 12.7051 1190.93 12.5728ZM1190.71 25.6632L1184.65 25.6729L1184.64 17.2729L1190.69 17.2632C1193 17.2595 1194.9 19.1464 1194.9 21.4564C1194.9 23.7664 1193.02 25.6595 1190.71 25.6632Z" fill="white"/>
<path d="M1217.93 5.10945L1200.82 5.13692C1199.52 5.13899 1198.47 6.19068 1198.48 7.52068C1198.48 8.81568 1199.53 9.86399 1200.83 9.86191L1207.02 9.85197L1207.05 27.9119C1207.05 29.2069 1208.1 30.2553 1209.4 30.2532C1210.69 30.2511 1211.74 29.1994 1211.74 27.9044L1211.71 9.84444L1217.94 9.83444C1219.23 9.83236 1220.28 8.78068 1220.28 7.48568C1220.28 6.15568 1219.23 5.10737 1217.93 5.10945Z" fill="white"/>
<path d="M1239.58 9.86971C1240.87 9.86763 1241.92 8.81595 1241.92 7.52095C1241.92 6.22595 1240.87 5.17764 1239.57 5.17972L1225.96 5.20157C1225.54 5.20224 1225.15 5.30786 1224.84 5.48336C1224.7 5.55359 1224.56 5.62381 1224.45 5.72898C1224.35 5.83415 1224.24 5.93932 1224.14 6.04449C1223.79 6.46505 1223.61 6.99033 1223.62 7.55033L1223.65 27.9553C1223.65 28.5503 1223.82 29.04 1224.18 29.4595C1224.28 29.5643 1224.39 29.6691 1224.49 29.774C1224.6 29.8788 1224.74 29.9486 1224.88 30.0183C1225.19 30.2278 1225.58 30.2972 1226 30.2965L1239.61 30.2747C1240.91 30.2726 1241.95 29.2209 1241.95 27.9259C1241.95 26.6309 1240.9 25.5826 1239.6 25.5847L1228.33 25.6028L1228.33 20.1078L1237.6 20.0929C1238.9 20.0908 1239.94 19.0391 1239.94 17.7441C1239.94 16.4491 1238.89 15.4008 1237.59 15.4029L1228.32 15.4178L1228.31 9.8878L1239.58 9.86971Z" fill="white"/>
<path d="M1263.56 5.03621L1246.45 5.06368C1245.15 5.06576 1244.1 6.11744 1244.11 7.44744C1244.11 8.74244 1245.16 9.79075 1246.45 9.78867L1252.65 9.77873L1252.68 27.8387C1252.68 29.1337 1253.73 30.182 1255.03 30.1799C1256.32 30.1779 1257.37 29.1262 1257.37 27.8312L1257.34 9.7712L1263.57 9.7612C1264.86 9.75912 1265.91 8.70744 1265.91 7.41244C1265.91 6.08244 1264.86 5.03413 1263.56 5.03621Z" fill="white"/>
<path d="M11.7122 7.1502C11.6422 7.15031 11.6072 7.15037 11.5372 7.15048L2.40222 7.16514C1.10722 7.16722 0.0589049 8.2189 0.0609834 9.5139L0.0937336 29.9189C0.095812 31.2139 1.1475 32.2622 2.44249 32.2601L11.6825 32.2453C11.6825 32.2453 11.7175 32.2452 11.7525 32.2452C18.4374 32.1644 23.4338 26.8014 23.4224 19.6964C23.411 12.5914 18.3973 7.20947 11.7122 7.1502ZM18.7324 19.7039C18.7397 24.2539 15.735 27.5488 11.57 27.5555L4.77996 27.5664L4.75474 11.8514L11.5447 11.8405C15.7097 11.8338 18.725 15.119 18.7324 19.7039Z" fill="white"/>
<path d="M30.1219 7.12065C28.8269 7.12273 27.7786 8.17441 27.7807 9.46941L27.8134 29.8744C27.8155 31.1694 28.8672 32.2177 30.1622 32.2156C31.4572 32.2135 32.5055 31.1619 32.5034 29.8669L32.4707 9.46188C32.4686 8.16689 31.4169 7.11857 30.1219 7.12065Z" fill="white"/>
<path d="M53.7378 22.9028C56.5357 21.5683 58.4561 18.6952 58.4508 15.4052C58.4435 10.8902 54.8326 7.22099 50.3524 7.08818C50.2824 7.08829 50.2124 7.08841 50.1074 7.08858L40.3074 7.1043C39.0124 7.10638 37.9641 8.15807 37.9662 9.45306L37.999 29.858C38.001 31.153 39.0527 32.2014 40.3477 32.1993C41.6427 32.1972 42.691 31.1455 42.689 29.8505L42.6791 23.7255L48.4191 23.7163L54.2762 31.2669C54.7323 31.8962 55.4327 32.1751 56.1327 32.1739C56.6227 32.1732 57.1475 32.0323 57.5669 31.6816C58.5807 30.91 58.7883 29.4397 57.9816 28.391L53.7378 22.9028ZM50.1266 19.0236C50.0916 19.0236 49.6016 19.0244 49.5666 19.0245C49.5316 19.0245 49.5316 19.0245 49.5316 19.0245C49.5316 19.0245 49.5316 19.0245 49.5666 19.0245C49.5316 19.0245 49.5316 19.0245 49.5316 19.0245L42.6716 19.0355L42.66 11.7905L50.115 11.7786C52.145 11.7753 53.7575 13.3827 53.7608 15.4127C53.764 17.4077 52.1566 19.0203 50.1266 19.0236Z" fill="white"/>
<path d="M79.0772 27.4471L67.8072 27.4652L67.7984 21.9702L77.0734 21.9553C78.3684 21.9532 79.4167 20.9016 79.4146 19.6066C79.4125 18.3116 78.3609 17.2632 77.0659 17.2653L67.7909 17.2802L67.782 11.7502L79.052 11.7321C80.347 11.73 81.3953 10.6784 81.3932 9.38336C81.3911 8.08837 80.3395 7.04005 79.0445 7.04213L65.4295 7.06398C64.1345 7.06606 63.0862 8.11774 63.0882 9.41274L63.121 29.8177C63.1231 31.1127 64.1748 32.161 65.4697 32.159L79.0847 32.1371C80.3797 32.135 81.428 31.0833 81.426 29.7883C81.4239 28.4933 80.3722 27.445 79.0772 27.4471Z" fill="white"/>
<path d="M104.062 24.992C103.467 24.993 102.908 25.2039 102.453 25.6246C100.916 27.0971 98.9221 27.8703 96.8221 27.8736C92.2371 27.881 88.5561 24.1769 88.5488 19.6269C88.5415 15.0769 92.2106 11.361 96.7956 11.3536C98.9306 11.3502 100.962 12.187 102.504 13.6545C103.451 14.563 104.921 14.5256 105.829 13.5791C106.738 12.6677 106.7 11.1627 105.754 10.2543C103.335 7.94815 100.148 6.65826 96.7881 6.66365C89.6481 6.67511 83.8474 12.4944 83.8588 19.6344C83.8703 26.7744 89.6896 32.5751 96.8296 32.5636C100.12 32.5583 103.268 31.3283 105.679 29.0494C107.217 27.6119 106.162 24.9886 104.062 24.992Z" fill="white"/>
<path d="M128.055 6.96347L110.94 6.99094C109.645 6.99302 108.597 8.0447 108.599 9.3397C108.601 10.6347 109.653 11.683 110.948 11.6809L117.143 11.671L117.172 29.731C117.174 31.026 118.225 32.0743 119.52 32.0722C120.815 32.0701 121.864 31.0184 121.862 29.7234L121.833 11.6635L128.063 11.6535C129.358 11.6514 130.406 10.5997 130.404 9.3047C130.402 8.0097 129.35 6.96139 128.055 6.96347Z" fill="white"/>
<path d="M144.442 6.27217C144.442 6.27217 144.442 6.27217 144.407 6.27222C137.092 6.28396 131.152 12.2435 131.164 19.5935C131.175 26.9085 137.135 32.8839 144.45 32.8722L144.485 32.8721C151.8 32.8604 157.74 26.8658 157.729 19.5509C157.717 12.2009 151.757 6.26042 144.442 6.27217ZM144.442 28.1822C139.717 28.1898 135.861 24.311 135.854 19.586C135.846 14.826 139.69 10.9698 144.415 10.9622C149.175 10.9546 153.031 14.7984 153.039 19.5584C153.046 24.2834 149.202 28.1746 144.442 28.1822Z" fill="white"/>
<path d="M177.81 22.7036C180.608 21.3691 182.528 18.4961 182.523 15.2061C182.516 10.6911 178.905 7.02185 174.425 6.88905C174.355 6.88916 174.285 6.88927 174.18 6.88944L164.38 6.90517C163.085 6.90725 162.036 7.95893 162.038 9.25393L162.071 29.6589C162.073 30.9539 163.125 32.0022 164.42 32.0001C165.715 31.9981 166.763 30.9464 166.761 29.6514L166.751 23.5264L172.491 23.5172L178.348 31.0678C178.804 31.697 179.505 31.9759 180.205 31.9748C180.695 31.974 181.22 31.8332 181.639 31.4825C182.653 30.7109 182.86 29.2405 182.054 28.1918L177.81 22.7036ZM174.199 18.8244C174.164 18.8245 173.674 18.8253 173.639 18.8253C173.604 18.8254 173.604 18.8254 173.604 18.8254C173.604 18.8254 173.604 18.8254 173.639 18.8253C173.604 18.8254 173.604 18.8254 173.604 18.8254L166.744 18.8364L166.732 11.5914L174.187 11.5794C176.217 11.5762 177.83 13.1836 177.833 15.2136C177.836 17.2086 176.229 18.8212 174.199 18.8244Z" fill="white"/>
<path d="M227.063 6.80456C226.993 6.80467 226.888 6.80484 226.818 6.80495L218.418 6.81844C217.123 6.82051 216.074 7.8722 216.076 9.1672L216.109 29.5722C216.111 30.8672 217.163 31.9155 218.458 31.9134C219.753 31.9113 220.801 30.8596 220.799 29.5646L220.791 24.6297L226.846 24.6199C226.916 24.6198 227.021 24.6197 227.091 24.5845C231.886 24.4718 235.765 20.5106 235.757 15.6806C235.749 10.8506 231.858 6.93686 227.063 6.80456ZM226.839 19.9299L220.784 19.9397L220.77 11.5047L226.825 11.4949C229.135 11.4912 231.028 13.3782 231.032 15.6882C231.036 18.0332 229.184 19.9262 226.839 19.9299Z" fill="white"/>
<path d="M255.569 22.5788C258.366 21.2443 260.287 18.3713 260.282 15.0813C260.274 10.5663 256.663 6.89705 252.183 6.76424C252.113 6.76435 252.043 6.76447 251.938 6.76464L242.138 6.78036C240.843 6.78244 239.795 7.83413 239.797 9.12912L239.83 29.5341C239.832 30.8291 240.884 31.8774 242.179 31.8753C243.474 31.8733 244.522 30.8216 244.52 29.5266L244.51 23.4016L250.25 23.3924L256.107 30.943C256.563 31.5722 257.263 31.8511 257.963 31.85C258.453 31.8492 258.978 31.7084 259.398 31.3577C260.411 30.5861 260.619 29.1157 259.812 28.067L255.569 22.5788ZM251.957 18.6996C251.922 18.6997 251.432 18.7005 251.397 18.7005C251.362 18.7006 251.362 18.7006 251.362 18.7006C251.362 18.7006 251.362 18.7006 251.397 18.7005C251.362 18.7006 251.362 18.7006 251.362 18.7006L244.502 18.7116L244.491 11.4666L251.946 11.4546C253.976 11.4514 255.588 13.0588 255.592 15.0888C255.595 17.0838 253.987 18.6964 251.957 18.6996Z" fill="white"/>
<path d="M277.059 6.05931C277.059 6.05931 277.059 6.05931 277.024 6.05937C269.709 6.07111 263.769 12.0307 263.781 19.3806C263.792 26.6956 269.752 32.6711 277.067 32.6593L277.102 32.6593C284.417 32.6475 290.357 26.653 290.346 19.338C290.334 11.988 284.374 6.04757 277.059 6.05931ZM277.059 27.9693C272.334 27.9769 268.478 24.0981 268.471 19.3731C268.463 14.6131 272.307 10.7569 277.032 10.7494C281.792 10.7417 285.648 14.5855 285.656 19.3455C285.663 24.0705 281.819 27.9617 277.059 27.9693Z" fill="white"/>
<path d="M306.307 6.67737C306.237 6.67749 306.202 6.67754 306.132 6.67765L296.997 6.69232C295.702 6.69439 294.653 7.74608 294.655 9.04108L294.688 29.4461C294.69 30.741 295.742 31.7894 297.037 31.7873L306.277 31.7725C306.277 31.7725 306.312 31.7724 306.347 31.7723C313.032 31.6916 318.028 26.3286 318.017 19.2236C318.005 12.1186 312.992 6.73664 306.307 6.67737ZM313.327 19.2311C313.334 23.7811 310.329 27.0759 306.164 27.0826L299.374 27.0935L299.349 11.3785L306.139 11.3676C310.304 11.361 313.319 14.6461 313.327 19.2311Z" fill="white"/>
<path d="M341.446 6.69097C340.151 6.69305 339.103 7.74474 339.105 9.03974L339.126 22.2347C339.131 25.1397 336.055 27.5247 332.905 27.5297C329.58 27.535 326.706 25.0897 326.701 22.2547L326.68 9.05968C326.678 7.76468 325.626 6.71636 324.331 6.71844C323.036 6.72052 321.988 7.7722 321.99 9.06721L322.011 22.2622C322.02 27.6872 326.997 32.2292 332.912 32.2197C338.827 32.2102 343.825 27.6522 343.816 22.2272L343.795 9.03221C343.793 7.73721 342.741 6.6889 341.446 6.69097Z" fill="white"/>
<path d="M367.963 24.5684C367.368 24.5694 366.809 24.7803 366.355 25.201C364.817 26.6735 362.823 27.4467 360.723 27.4501C356.138 27.4574 352.457 23.7533 352.45 19.2033C352.443 14.6533 356.112 10.9374 360.697 10.9301C362.832 10.9267 364.863 11.7634 366.405 13.2309C367.352 14.1394 368.822 14.102 369.73 13.1556C370.639 12.2441 370.601 10.7392 369.655 9.8307C367.236 7.52458 364.049 6.2347 360.689 6.24009C353.549 6.25155 347.748 12.0709 347.76 19.2109C347.771 26.3508 353.591 32.1515 360.731 32.1401C364.021 32.1348 367.169 30.9047 369.58 28.6258C371.118 27.1884 370.063 24.5651 367.963 24.5684Z" fill="white"/>
<path d="M390.659 26.947L379.389 26.9651L379.38 21.4701L388.655 21.4552C389.95 21.4531 390.998 20.4015 390.996 19.1065C390.994 17.8115 389.942 16.7632 388.647 16.7652L379.373 16.7801L379.364 11.2501L390.634 11.232C391.929 11.23 392.977 10.1783 392.975 8.88327C392.973 7.58827 391.921 6.53996 390.626 6.54204L377.011 6.56389C375.716 6.56597 374.668 7.61765 374.67 8.91265L374.703 29.3176C374.705 30.6126 375.756 31.6609 377.051 31.6589L390.666 31.637C391.961 31.6349 393.01 30.5832 393.008 29.2882C393.006 27.9932 391.954 26.9449 390.659 26.947Z" fill="white"/>
<path d="M413.103 22.326C415.9 20.9915 417.821 18.1184 417.816 14.8284C417.808 10.3134 414.197 6.64421 409.717 6.5114C409.647 6.51151 409.577 6.51162 409.472 6.51179L399.672 6.52752C398.377 6.5296 397.329 7.58128 397.331 8.87628L397.364 29.2813C397.366 30.5763 398.417 31.6246 399.712 31.6225C401.007 31.6204 402.056 30.5687 402.054 29.2737L402.044 23.1487L407.784 23.1395L413.641 30.6901C414.097 31.3194 414.797 31.5983 415.497 31.5972C415.987 31.5964 416.512 31.4555 416.932 31.1049C417.945 30.3332 418.153 28.8629 417.346 27.8142L413.103 22.326ZM409.491 18.4468C409.456 18.4468 408.966 18.4476 408.931 18.4477C408.896 18.4477 408.896 18.4477 408.896 18.4477C408.896 18.4477 408.896 18.4477 408.931 18.4477C408.896 18.4477 408.896 18.4477 408.896 18.4477L402.036 18.4587L402.025 11.2138L409.48 11.2018C411.51 11.1985 413.122 12.8059 413.126 14.8359C413.129 16.8309 411.521 18.4435 409.491 18.4468Z" fill="white"/>
<path d="M476.184 8.64472L476.184 8.60972C476.184 8.53972 476.184 8.50472 476.149 8.46978C476.148 8.43478 476.148 8.43478 476.148 8.39978C476.148 8.25978 476.113 8.11983 476.078 8.01489C476.043 7.97995 476.043 7.97995 476.043 7.97995C476.007 7.84 475.937 7.70012 475.867 7.59523L475.867 7.56023C475.797 7.45534 475.692 7.31551 475.621 7.21062C475.621 7.21062 475.586 7.21068 475.586 7.17568C475.516 7.10579 475.446 7.0709 475.376 7.00102C475.376 6.96602 475.376 6.96602 475.341 6.96607C475.341 6.93107 475.306 6.93113 475.271 6.89619C475.236 6.86124 475.236 6.86124 475.236 6.86124C475.201 6.8613 475.166 6.82635 475.131 6.79141C475.096 6.75647 475.061 6.75652 475.026 6.72158C474.991 6.68663 474.956 6.68669 474.921 6.65175C474.851 6.65186 474.816 6.61692 474.78 6.58197C474.71 6.58209 474.675 6.54714 474.64 6.5472C474.57 6.51231 474.5 6.51242 474.43 6.47753L474.395 6.47759C474.325 6.4427 474.29 6.44276 474.255 6.44281C474.22 6.44287 474.185 6.44293 474.15 6.40798C474.08 6.4081 474.045 6.40815 474.01 6.40821C473.975 6.40826 473.94 6.40832 473.94 6.40832C473.905 6.40838 473.87 6.40843 473.835 6.40849C473.73 6.40866 473.625 6.40883 473.555 6.40894C473.52 6.40899 473.52 6.44399 473.485 6.44405C473.345 6.44428 473.24 6.47944 473.1 6.51467L473.065 6.54972C472.925 6.58495 472.821 6.65512 472.681 6.69034C472.681 6.72534 472.646 6.7254 472.646 6.7254C472.541 6.79557 472.401 6.86579 472.296 6.97096C472.296 6.97096 472.296 7.00596 472.261 7.00602C472.191 7.07613 472.121 7.14624 472.052 7.25135L472.017 7.25141C472.017 7.28641 472.017 7.28641 471.982 7.32146L463.634 18.2899L455.602 7.38275C455.567 7.38281 455.567 7.38281 455.567 7.38281C455.496 7.24293 455.391 7.13809 455.286 7.06826C455.286 7.03326 455.251 7.03332 455.251 7.03332C455.146 6.92849 455.041 6.85865 454.936 6.78882C454.901 6.78888 454.901 6.75388 454.866 6.75394C454.761 6.6841 454.621 6.61433 454.515 6.5795C454.48 6.57955 454.48 6.57955 454.445 6.57961C454.34 6.50978 454.2 6.475 454.06 6.47523L454.025 6.47528C453.92 6.44045 453.815 6.44062 453.71 6.44079C453.675 6.44085 453.64 6.4409 453.64 6.4409C453.605 6.44096 453.57 6.44101 453.57 6.44101C453.5 6.44113 453.465 6.44118 453.395 6.4413C453.36 6.47635 453.325 6.47641 453.29 6.47646C453.255 6.47652 453.22 6.47658 453.185 6.51163C453.15 6.51169 453.15 6.51169 453.115 6.51174C453.01 6.54691 452.905 6.58208 452.8 6.61725C452.8 6.61725 452.8 6.61725 452.765 6.61731C452.731 6.65236 452.661 6.68747 452.591 6.72259L452.556 6.72264C452.486 6.79276 452.381 6.82792 452.311 6.89804C452.311 6.89804 452.311 6.89804 452.276 6.89809C452.241 6.96815 452.171 7.00326 452.101 7.07337C452.066 7.10843 452.031 7.14349 451.996 7.17854C451.961 7.2136 451.961 7.2136 451.927 7.24865C451.857 7.35376 451.752 7.45893 451.682 7.56405L451.682 7.59905C451.612 7.73916 451.542 7.84427 451.508 7.98433L451.473 8.01938C451.438 8.15944 451.403 8.2645 451.368 8.40455C451.368 8.43955 451.368 8.43955 451.368 8.47455C451.369 8.50955 451.369 8.54455 451.369 8.57955C451.369 8.61455 451.369 8.64955 451.369 8.71955C451.369 8.71955 451.369 8.75455 451.369 8.78955L451.402 29.1945C451.404 30.4895 452.455 31.5378 453.75 31.5358C455.046 31.5337 456.094 30.482 456.092 29.187L456.07 15.922L461.718 23.613C461.753 23.6479 461.788 23.6828 461.823 23.7178C461.823 23.7528 461.858 23.7527 461.858 23.7877C461.963 23.8926 462.068 23.9974 462.174 24.0672C462.174 24.0672 462.174 24.0672 462.209 24.1022C462.209 24.1022 462.209 24.1022 462.244 24.1021C462.314 24.172 462.419 24.2418 462.489 24.2767C462.524 24.2767 462.524 24.3117 462.559 24.3116C462.594 24.3116 462.594 24.3466 462.629 24.3465C463.47 24.7652 464.555 24.7284 465.358 23.7821C465.358 23.7821 465.358 23.7821 465.393 23.7821C465.428 23.712 465.463 23.6769 465.498 23.6419L471.505 15.7222L471.527 29.1622C471.529 30.4572 472.58 31.5055 473.875 31.5035C475.17 31.5014 476.219 30.4497 476.217 29.1547L476.184 8.74972C476.184 8.71472 476.184 8.67972 476.184 8.64472Z" fill="white"/>
<path d="M504.922 28.0586L494.53 7.67028C494.53 7.67028 494.53 7.70528 494.565 7.70522C494.389 7.3555 494.144 7.0759 493.828 6.8314C493.758 6.76151 493.688 6.72663 493.618 6.69174C493.618 6.69174 493.583 6.65679 493.548 6.65685C493.548 6.62185 493.513 6.62191 493.478 6.62196C493.443 6.58702 493.408 6.58708 493.373 6.55213C493.373 6.55213 493.338 6.55219 493.303 6.51724C493.233 6.48236 493.128 6.48252 493.058 6.44764L493.023 6.44769C492.918 6.41286 492.848 6.41297 492.778 6.37809C492.743 6.37814 492.708 6.3782 492.708 6.3782C492.638 6.37831 492.533 6.37848 492.463 6.37859L492.427 6.34365C492.427 6.34365 492.427 6.34365 492.393 6.3787C492.323 6.37882 492.218 6.37898 492.113 6.37915C492.078 6.37921 492.043 6.37927 492.008 6.41432C491.973 6.41438 491.938 6.41443 491.868 6.41455C491.833 6.4496 491.763 6.44972 491.728 6.48477C491.693 6.48483 491.693 6.48483 491.658 6.48488C491.483 6.55517 491.308 6.62544 491.168 6.73067C491.133 6.76573 491.098 6.76578 491.063 6.80084C491.028 6.83589 490.993 6.87095 490.958 6.87101C490.923 6.90606 490.888 6.94112 490.853 6.97617C490.819 7.01123 490.784 7.01129 490.784 7.04629C490.644 7.18651 490.539 7.32668 490.434 7.46685C490.434 7.50185 490.399 7.5019 490.399 7.53691C490.364 7.57196 490.365 7.60696 490.33 7.64202L480.002 28.0986C479.2 29.6399 480.358 31.4931 482.108 31.4902C482.948 31.4889 483.787 31.0326 484.171 30.1919L485.811 26.9693L499.111 26.9479L500.761 30.1653C501.323 31.3194 502.758 31.8071 503.912 31.2102C505.066 30.6134 505.519 29.2127 504.922 28.0586ZM488.218 22.2754L492.44 13.9036L496.688 22.2618L488.218 22.2754Z" fill="white"/>
<path d="M530.736 28.9622C530.736 28.9272 530.736 28.8922 530.736 28.8572L530.703 8.66222C530.701 7.36722 529.649 6.28391 528.354 6.28598C527.024 6.28812 525.976 7.3748 525.978 8.6698L526.001 22.6698L512.816 7.18593C512.395 6.6616 511.729 6.31267 511.029 6.31379C509.594 6.31609 508.616 7.54267 508.688 8.80255L508.721 29.1025C508.723 30.3975 509.775 31.4458 511.07 31.4438C512.365 31.4417 513.413 30.39 513.411 29.095L513.388 15.06L526.573 30.5789C526.573 30.5789 526.573 30.5439 526.538 30.5439C526.573 30.5439 526.573 30.5789 526.573 30.5789C526.608 30.6138 526.679 30.6837 526.714 30.7186C526.714 30.7536 526.749 30.7536 526.749 30.7886C526.819 30.8235 526.854 30.8584 526.889 30.8934C526.889 30.8934 526.924 30.8933 526.924 30.9283C526.959 30.9633 526.994 30.9982 527.064 30.9981C527.064 31.0331 527.064 31.0331 527.064 31.0331C527.099 31.033 527.099 31.033 527.099 31.033C527.134 31.068 527.169 31.1029 527.204 31.1029C527.204 31.1379 527.204 31.1379 527.239 31.1378C527.274 31.1378 527.309 31.1727 527.309 31.1727C527.344 31.1726 527.344 31.1726 527.344 31.2076C527.379 31.2076 527.379 31.2076 527.379 31.2076C527.414 31.2075 527.414 31.2075 527.414 31.2075C527.414 31.2075 527.414 31.2075 527.379 31.2076L527.414 31.2075C527.519 31.2774 527.66 31.3121 527.765 31.347C527.835 31.3469 527.87 31.3468 527.905 31.3817C527.975 31.3816 528.08 31.4165 528.15 31.4163C528.22 31.4162 528.255 31.4162 528.29 31.4161C528.395 31.416 528.465 31.4158 528.57 31.4157C528.605 31.4156 528.64 31.4156 528.675 31.4155C528.78 31.4153 528.885 31.3802 528.99 31.345C529.025 31.3449 529.06 31.3449 529.06 31.3099C529.165 31.3097 529.235 31.2746 529.339 31.2044C529.374 31.2044 529.409 31.1693 529.444 31.1693C529.514 31.1342 529.584 31.099 529.654 31.0639C529.654 31.0289 529.689 30.9939 529.724 30.9938C529.794 30.9237 529.864 30.8536 529.934 30.8185C529.969 30.7834 529.969 30.7834 530.004 30.7484C530.074 30.6783 530.143 30.6081 530.213 30.503C530.213 30.503 530.248 30.503 530.248 30.468C530.248 30.468 530.283 30.4329 530.283 30.3979C530.318 30.3629 530.388 30.2928 530.423 30.2227C530.423 30.1877 530.458 30.1526 530.458 30.0826C530.493 30.0476 530.527 29.9775 530.562 29.9075C530.562 29.8725 530.597 29.8024 530.597 29.7674C530.632 29.6974 530.667 29.5923 530.667 29.4873C530.702 29.4522 530.702 29.4172 530.702 29.3822C530.701 29.3122 530.736 29.2072 530.736 29.1022C530.736 29.0672 530.736 29.0322 530.736 28.9622Z" fill="white"/>
<path d="M559.439 27.9711L549.046 7.58278C549.046 7.58278 549.046 7.61778 549.081 7.61772C548.906 7.268 548.66 6.9884 548.345 6.7439C548.275 6.67401 548.205 6.63913 548.135 6.60424C548.135 6.60424 548.099 6.56929 548.065 6.56935C548.064 6.53435 548.029 6.53441 547.995 6.53446C547.959 6.49952 547.924 6.49958 547.889 6.46463C547.889 6.46463 547.854 6.46469 547.819 6.42974C547.749 6.39486 547.644 6.39502 547.574 6.36014L547.539 6.36019C547.434 6.32536 547.364 6.32547 547.294 6.29059C547.259 6.29064 547.224 6.2907 547.224 6.2907C547.154 6.29081 547.049 6.29098 546.979 6.29109L546.944 6.25615C546.944 6.25615 546.944 6.25615 546.909 6.2912C546.839 6.29132 546.734 6.29149 546.629 6.29165C546.594 6.29171 546.559 6.29177 546.524 6.32682C546.489 6.32688 546.454 6.32693 546.384 6.32705C546.349 6.3621 546.279 6.36222 546.244 6.39727C546.209 6.39733 546.209 6.39733 546.174 6.39738C545.999 6.46767 545.825 6.53795 545.685 6.64317C545.65 6.67823 545.615 6.67828 545.58 6.71334C545.545 6.74839 545.51 6.78345 545.475 6.78351C545.44 6.81856 545.405 6.85362 545.37 6.88867C545.335 6.92373 545.3 6.92379 545.3 6.95879C545.16 7.09901 545.056 7.23918 544.951 7.37935C544.951 7.41435 544.916 7.4144 544.916 7.44941C544.881 7.48446 544.881 7.51946 544.846 7.55452L534.519 28.0111C533.716 29.5524 534.874 31.4056 536.624 31.4027C537.464 31.4014 538.304 30.9451 538.687 30.1044L540.327 26.8818L553.627 26.8604L555.277 30.0778C555.839 31.2319 557.275 31.7196 558.429 31.1227C559.583 30.5259 560.036 29.1252 559.439 27.9711ZM542.735 22.1879L546.956 13.8161L551.205 22.1743L542.735 22.1879Z" fill="white"/>
<path d="M583.975 26.5317L583.963 19.0418C583.961 17.7468 582.909 16.6984 581.614 16.7005L573.249 16.7139C571.954 16.716 570.906 17.7677 570.908 19.0627C570.91 20.3577 571.962 21.406 573.257 21.4039L579.277 21.3943L579.283 25.4893C577.85 26.5066 575.996 27.1045 574.141 27.1075C569.556 27.1149 565.875 23.4108 565.868 18.8608C565.86 14.3108 569.529 10.5949 574.114 10.5875C576.249 10.5841 578.281 11.4209 579.823 12.8884C580.279 13.3427 580.874 13.5517 581.469 13.5507C582.064 13.5498 582.694 13.3038 583.148 12.813C584.056 11.9016 584.019 10.3966 583.073 9.52317C580.654 7.18204 577.467 5.89216 574.107 5.89755C566.967 5.90901 561.166 11.7283 561.178 18.8683C561.189 26.0083 567.008 31.809 574.148 31.7975C577.438 31.7922 580.796 30.5268 583.138 28.3881C583.138 28.3881 583.138 28.3881 583.138 28.3531C583.138 28.3531 583.173 28.353 583.173 28.318C583.208 28.318 583.243 28.2829 583.243 28.2479C583.278 28.2479 583.313 28.2128 583.313 28.1778L583.313 28.2128L583.313 28.1778C583.348 28.1777 583.348 28.1427 583.382 28.1077C583.417 28.1076 583.417 28.0726 583.452 28.0376C583.487 28.0025 583.487 27.9675 583.522 27.9325L583.557 27.8974L583.522 27.9325C583.557 27.9324 583.557 27.8974 583.592 27.8624C583.592 27.8624 583.557 27.8624 583.557 27.8974C583.592 27.8624 583.592 27.8624 583.592 27.8274C583.627 27.7923 583.627 27.7923 583.627 27.7573C583.662 27.7572 583.662 27.7222 583.662 27.7222C583.697 27.6872 583.697 27.6522 583.732 27.6171C583.732 27.5821 583.732 27.5821 583.767 27.5471C583.732 27.5821 583.732 27.5821 583.732 27.6171L583.732 27.5821C583.767 27.5471 583.767 27.5121 583.766 27.4771C583.801 27.477 583.801 27.477 583.801 27.442C583.766 27.4771 583.767 27.5121 583.767 27.5471C583.836 27.372 583.871 27.2669 583.906 27.0569C583.906 27.0919 583.906 27.1269 583.871 27.1969C583.871 27.1619 583.871 27.1619 583.906 27.1269C583.906 27.0919 583.906 27.0569 583.941 27.0218C583.906 27.0219 583.906 27.0219 583.906 27.0569C583.941 26.9868 583.941 26.9518 583.941 26.9168C583.94 26.8818 583.94 26.8818 583.94 26.8468C583.94 26.8468 583.94 26.8118 583.94 26.7768C583.975 26.7417 583.975 26.7417 583.975 26.7067C583.975 26.6717 583.975 26.6017 583.975 26.5667L583.975 26.5317ZM583.871 27.2319C583.871 27.1969 583.871 27.1969 583.871 27.1969L583.871 27.2319Z" fill="white"/>
<path d="M604.897 26.6032L593.627 26.6213L593.618 21.1263L602.893 21.1114C604.188 21.1093 605.236 20.0576 605.234 18.7626C605.232 17.4676 604.18 16.4193 602.886 16.4214L593.611 16.4363L593.602 10.9063L604.872 10.8882C606.167 10.8861 607.215 9.83442 607.213 8.53942C607.211 7.24442 606.159 6.19611 604.864 6.19819L591.249 6.22004C589.954 6.22212 588.906 7.2738 588.908 8.5688L588.941 28.9738C588.943 30.2688 589.994 31.3171 591.289 31.315L604.904 31.2932C606.199 31.2911 607.248 30.2394 607.246 28.9444C607.244 27.6494 606.192 26.6011 604.897 26.6032Z" fill="white"/>
<path d="M627.341 21.9821C630.138 20.6476 632.059 17.7746 632.054 14.4846C632.046 9.96956 628.435 6.30035 623.955 6.16754C623.885 6.16766 623.815 6.16777 623.71 6.16794L613.91 6.18367C612.615 6.18575 611.567 7.23743 611.569 8.53243L611.602 28.9374C611.604 30.2324 612.656 31.2807 613.951 31.2786C615.245 31.2766 616.294 30.2249 616.292 28.9299L616.282 22.8049L622.022 22.7957L627.879 30.3463C628.335 30.9755 629.035 31.2544 629.735 31.2533C630.225 31.2525 630.75 31.1117 631.17 30.761C632.183 29.9894 632.391 28.519 631.584 27.4703L627.341 21.9821ZM623.729 18.1029C623.694 18.103 623.204 18.1038 623.169 18.1038C623.134 18.1039 623.134 18.1039 623.134 18.1039C623.134 18.1039 623.134 18.1039 623.169 18.1038C623.134 18.1039 623.134 18.1039 623.134 18.1039L616.274 18.1149L616.263 10.8699L623.718 10.8579C625.748 10.8547 627.36 12.4621 627.364 14.4921C627.367 16.4871 625.759 18.0997 623.729 18.1029Z" fill="white"/>
</svg>
