<svg width="378" height="47" viewBox="0 0 378 47" fill="none" xmlns="http://www.w3.org/2000/svg">
<path d="M261.84 11.2617H261.41V10.4609H260.18V11.2617H259.75C257.68 11.2617 256.469 12.4531 256.469 14.1914C256.469 15.9688 257.641 17.1211 259.75 17.1211H260.18V18.1172H261.41V17.1211H261.84C263.91 17.1211 265.121 15.9297 265.121 14.1914C265.121 12.4141 263.949 11.2617 261.84 11.2617ZM259.77 16.0664C258.422 16.0664 257.719 15.4414 257.719 14.1914C257.719 12.9805 258.461 12.3164 259.77 12.3164H260.18V16.0664H259.77ZM261.82 16.0664H261.41V12.3164H261.82C263.168 12.3164 263.871 12.9414 263.871 14.1914C263.871 15.4023 263.129 16.0664 261.82 16.0664ZM271.273 16.9844C271.02 16.9844 270.902 16.8672 270.902 16.6133V13.9766C270.902 12.7656 270.043 12.043 268.637 12.043C267.621 12.043 266.781 12.3945 266.098 13.0391L266.82 13.8008C267.289 13.3125 267.914 13.0195 268.578 13.0195C269.32 13.0195 269.809 13.332 269.809 13.8008C269.809 14.25 269.379 14.3281 268.5 14.4453C267.367 14.6211 265.98 14.9336 265.98 16.3789C265.98 17.3945 266.742 18.0977 267.895 18.0977C268.754 18.0977 269.535 17.707 269.945 17.1016C270.023 17.7852 270.355 18.0391 271.078 18.0391C271.273 18.0391 271.43 18.0195 271.488 18V16.9844H271.273ZM268.09 17.1406C267.484 17.1406 267.133 16.8477 267.133 16.3008C267.133 15.5391 267.895 15.4219 268.637 15.3047C269.203 15.207 269.555 15.1484 269.77 15.0117V15.7734C269.77 16.5156 268.988 17.1406 268.09 17.1406ZM276.781 18H278.207L275.648 14.4844L278.09 12.1406H276.605L273.969 14.7578V12.1406H272.797V18H273.969V16.0859L274.809 15.2852L276.781 18ZM283.305 12.1406L281.703 17.043L279.652 12.1406H278.363L281.117 18.3906C280.902 18.7812 280.668 18.9961 280.355 18.9961C279.848 18.9961 279.711 18.6055 279.73 18.1562L278.656 18.332C278.656 19.2305 279.164 20.0508 280.336 20.0508C281.332 20.0508 281.977 19.2695 282.348 18.2148L284.516 12.1406H283.305ZM290.531 12.1406H285.785V15.168C285.785 16.7891 285.629 16.9258 285.121 16.9258H284.809V18C284.945 18.0195 285.141 18.0391 285.355 18.0391C286.488 18.0391 286.938 17.4141 286.938 15.2852V13.1758H289.359V18H290.531V12.1406ZM295.141 14.3477H293.539V12.1406H292.367V18H295.141C296.43 18 297.25 17.2773 297.25 16.1641C297.25 15.0508 296.449 14.3477 295.141 14.3477ZM295.023 17.0234H293.539V15.3047H295.023C295.707 15.3047 296.059 15.6172 296.059 16.1641C296.059 16.7109 295.707 17.0234 295.023 17.0234ZM303.207 12.1406H297.816V13.1758H299.926V18H301.098V13.1758H303.207V12.1406ZM304.77 15.4414H309.281C309.32 15.3047 309.32 15.207 309.32 15.0703C309.32 13.2344 308.207 12.043 306.488 12.043C304.77 12.043 303.598 13.2734 303.598 15.0703C303.598 16.8086 304.652 18.0977 306.586 18.0977C307.816 18.0977 308.637 17.6289 309.125 17.043L308.324 16.3398C307.992 16.7695 307.445 17.1016 306.586 17.1016C305.551 17.1016 304.906 16.457 304.77 15.4414ZM306.488 13.0195C307.367 13.0195 307.973 13.5859 308.129 14.543H304.789C304.965 13.6055 305.57 13.0195 306.488 13.0195ZM315.062 12.1406H309.672V13.1758H311.781V18H312.953V13.1758H315.062V12.1406ZM319.34 11.3203H320.629V10.1484H319.34V11.3203ZM319.398 18H320.57V12.1406H319.398V18ZM326.371 14.9922C326.898 14.7578 327.211 14.3086 327.211 13.6641C327.211 12.6094 326.41 12.1406 325.121 12.1406H322.504V18H325.336C326.605 18 327.367 17.4531 327.367 16.3984C327.367 15.6953 327.016 15.2266 326.371 14.9922ZM323.637 13.0781H325.18C325.727 13.0781 326.059 13.332 326.059 13.8008C326.059 14.3477 325.785 14.5625 325.121 14.5625H323.637V13.0781ZM325.219 17.0625H323.637V15.4414H325.141C325.805 15.4414 326.195 15.7539 326.195 16.2617C326.195 16.7695 325.844 17.0625 325.219 17.0625ZM329.516 15.4414H334.027C334.066 15.3047 334.066 15.207 334.066 15.0703C334.066 13.2344 332.953 12.043 331.234 12.043C329.516 12.043 328.344 13.2734 328.344 15.0703C328.344 16.8086 329.398 18.0977 331.332 18.0977C332.562 18.0977 333.383 17.6289 333.871 17.043L333.07 16.3398C332.738 16.7695 332.191 17.1016 331.332 17.1016C330.297 17.1016 329.652 16.457 329.516 15.4414ZM331.234 13.0195C332.113 13.0195 332.719 13.5859 332.875 14.543H329.535C329.711 13.6055 330.316 13.0195 331.234 13.0195ZM339.457 12.1406V14.4844H336.605V12.1406H335.434V18H336.605V15.5391H339.457V18H340.629V12.1406H339.457ZM347.133 12.1406H341.742V13.1758H343.852V18H345.023V13.1758H347.133V12.1406ZM263.832 25.1406H262.055L260.395 29.6914L258.715 25.1406H256.918V31H258.051V26.3711L259.75 31H261L262.699 26.3711V31H263.832V25.1406ZM266.41 28.4414H270.922C270.961 28.3047 270.961 28.207 270.961 28.0703C270.961 26.2344 269.848 25.043 268.129 25.043C266.41 25.043 265.238 26.2734 265.238 28.0703C265.238 29.8086 266.293 31.0977 268.227 31.0977C269.457 31.0977 270.277 30.6289 270.766 30.043L269.965 29.3398C269.633 29.7695 269.086 30.1016 268.227 30.1016C267.191 30.1016 266.547 29.457 266.41 28.4414ZM268.129 26.0195C269.008 26.0195 269.613 26.5859 269.77 27.543H266.43C266.605 26.6055 267.211 26.0195 268.129 26.0195ZM276.352 25.1406V27.4844H273.5V25.1406H272.328V31H273.5V28.5391H276.352V31H277.523V25.1406H276.352ZM280.102 28.4414H284.613C284.652 28.3047 284.652 28.207 284.652 28.0703C284.652 26.2344 283.539 25.043 281.82 25.043C280.102 25.043 278.93 26.2734 278.93 28.0703C278.93 29.8086 279.984 31.0977 281.918 31.0977C283.148 31.0977 283.969 30.6289 284.457 30.043L283.656 29.3398C283.324 29.7695 282.777 30.1016 281.918 30.1016C280.883 30.1016 280.238 29.457 280.102 28.4414ZM281.82 26.0195C282.699 26.0195 283.305 26.5859 283.461 27.543H280.121C280.297 26.6055 280.902 26.0195 281.82 26.0195ZM290.941 29.9648V25.1406H286.137V27.582C286.137 28.7344 286.078 29.4961 285.961 29.9648H285.277V32.3672H286.391V31H290.609V32.3672H291.723V29.9648H290.941ZM287.094 29.9648C287.211 29.3789 287.27 28.5781 287.27 27.6406V26.1758H289.789V29.9648H287.094ZM299.867 31H301.273L298.891 27.4453L301.176 25.1406H299.711L297.25 27.7188V25.1406H296.078V27.7383L293.617 25.1406H292.133L294.438 27.4648L292.035 31H293.461L295.258 28.2461L296.078 29.0664V31H297.25V29.0469L298.051 28.2461L299.867 31ZM309.203 25.1406H307.426L305.766 29.6914L304.086 25.1406H302.289V31H303.422V26.3711L305.121 31H306.371L308.07 26.3711V31H309.203V25.1406ZM311.781 28.4414H316.293C316.332 28.3047 316.332 28.207 316.332 28.0703C316.332 26.2344 315.219 25.043 313.5 25.043C311.781 25.043 310.609 26.2734 310.609 28.0703C310.609 29.8086 311.664 31.0977 313.598 31.0977C314.828 31.0977 315.648 30.6289 316.137 30.043L315.336 29.3398C315.004 29.7695 314.457 30.1016 313.598 30.1016C312.562 30.1016 311.918 29.457 311.781 28.4414ZM313.5 26.0195C314.379 26.0195 314.984 26.5859 315.141 27.543H311.801C311.977 26.6055 312.582 26.0195 313.5 26.0195ZM321.723 25.1406V27.4844H318.871V25.1406H317.699V31H318.871V28.5391H321.723V31H322.895V25.1406H321.723ZM329.398 25.1406H324.008V26.1758H326.117V31H327.289V26.1758H329.398V25.1406ZM334.672 25.1406L333.07 30.043L331.02 25.1406H329.73L332.484 31.3906C332.27 31.7812 332.035 31.9961 331.723 31.9961C331.215 31.9961 331.078 31.6055 331.098 31.1562L330.023 31.332C330.023 32.2305 330.531 33.0508 331.703 33.0508C332.699 33.0508 333.344 32.2695 333.715 31.2148L335.883 25.1406H334.672ZM344.711 25.1406H339.32V26.1758H341.43V31H342.602V26.1758H344.711V25.1406ZM350.434 29.9844C350.18 29.9844 350.062 29.8672 350.062 29.6133V26.9766C350.062 25.7656 349.203 25.043 347.797 25.043C346.781 25.043 345.941 25.3945 345.258 26.0391L345.98 26.8008C346.449 26.3125 347.074 26.0195 347.738 26.0195C348.48 26.0195 348.969 26.332 348.969 26.8008C348.969 27.25 348.539 27.3281 347.66 27.4453C346.527 27.6211 345.141 27.9336 345.141 29.3789C345.141 30.3945 345.902 31.0977 347.055 31.0977C347.914 31.0977 348.695 30.707 349.105 30.1016C349.184 30.7852 349.516 31.0391 350.238 31.0391C350.434 31.0391 350.59 31.0195 350.648 31V29.9844H350.434ZM347.25 30.1406C346.645 30.1406 346.293 29.8477 346.293 29.3008C346.293 28.5391 347.055 28.4219 347.797 28.3047C348.363 28.207 348.715 28.1484 348.93 28.0117V28.7734C348.93 29.5156 348.148 30.1406 347.25 30.1406ZM263.715 38.1406V42.9648H261.488V38.1406H260.316V42.9648H258.09V38.1406H256.918V44H264.887V38.1406H263.715ZM269.262 44.0977C271.02 44.0977 272.23 42.8672 272.23 41.0703C272.23 39.2344 271.059 38.043 269.262 38.043C267.504 38.043 266.293 39.2734 266.293 41.0703C266.293 42.9062 267.465 44.0977 269.262 44.0977ZM269.262 43.1016C268.188 43.1016 267.484 42.3008 267.484 41.0703C267.484 39.8398 268.188 39.0391 269.262 39.0391C270.336 39.0391 271.039 39.8398 271.039 41.0703C271.039 42.3008 270.336 43.1016 269.262 43.1016ZM277.641 38.1406L276.039 43.043L273.988 38.1406H272.699L275.453 44.3906C275.238 44.7812 275.004 44.9961 274.691 44.9961C274.184 44.9961 274.047 44.6055 274.066 44.1562L272.992 44.332C272.992 45.2305 273.5 46.0508 274.672 46.0508C275.668 46.0508 276.312 45.2695 276.684 44.2148L278.852 38.1406H277.641ZM279.457 41.2461H282.855V40.1133H279.457V41.2461ZM289.809 41.3828C289.789 39.8398 288.734 38.7461 287.289 38.7461C286.332 38.7461 285.59 39.0977 285.16 39.7031C285.258 38.7461 285.746 38.2188 286.781 38.0039L288.48 37.6523C289.164 37.4961 289.555 37.1055 289.613 36.4414L289.633 36.2461L288.52 36.0508L288.48 36.2266C288.441 36.4609 288.324 36.5781 288.109 36.6172L286.723 36.9102C284.926 37.2812 284.105 38.4727 284.105 40.7383C284.105 42.7891 285.219 44.0977 286.977 44.0977C288.656 44.0977 289.828 42.9648 289.809 41.3828ZM286.977 43.1016C286 43.1016 285.336 42.3789 285.336 41.3438C285.336 40.3086 285.98 39.6641 286.977 39.6641C287.973 39.6641 288.598 40.3281 288.598 41.4023C288.598 42.4375 287.973 43.1016 286.977 43.1016ZM291.195 37.3203H292.484V36.1484H291.195V37.3203ZM291.254 44H292.426V38.1406H291.254V44ZM297.621 40.9727C298.129 40.7188 298.383 40.3086 298.383 39.7422C298.363 38.707 297.523 38.043 296.234 38.043C295.121 38.043 294.242 38.5703 293.832 39.4297L294.789 39.9375C295.043 39.332 295.531 39 296.195 39C296.84 39 297.23 39.293 297.23 39.8008C297.23 40.2695 296.879 40.5625 296.254 40.5625H295.551V41.4805H296.293C297.016 41.4805 297.445 41.793 297.445 42.2812C297.445 42.8086 296.957 43.1211 296.176 43.1211C295.473 43.1211 294.926 42.7695 294.613 42.1055L293.637 42.5352C294.027 43.5117 294.945 44.0977 296.156 44.0977C297.641 44.0977 298.637 43.375 298.637 42.3398C298.637 41.6758 298.285 41.1875 297.621 40.9727ZM303.91 38.1406V40.4844H301.059V38.1406H299.887V44H301.059V41.5391H303.91V44H305.082V38.1406H303.91ZM307.66 41.4414H312.172C312.211 41.3047 312.211 41.207 312.211 41.0703C312.211 39.2344 311.098 38.043 309.379 38.043C307.66 38.043 306.488 39.2734 306.488 41.0703C306.488 42.8086 307.543 44.0977 309.477 44.0977C310.707 44.0977 311.527 43.6289 312.016 43.043L311.215 42.3398C310.883 42.7695 310.336 43.1016 309.477 43.1016C308.441 43.1016 307.797 42.457 307.66 41.4414ZM309.379 39.0195C310.258 39.0195 310.863 39.5859 311.02 40.543H307.68C307.855 39.6055 308.461 39.0195 309.379 39.0195ZM316.078 44.0977C317.328 44.0977 318.363 43.4531 318.695 42.3398L317.582 41.9883C317.328 42.6719 316.781 43.1016 316.078 43.1016C315.004 43.1016 314.34 42.3008 314.34 41.0703C314.34 39.8398 315.004 39.0391 316.078 39.0391C316.801 39.0391 317.328 39.4688 317.582 40.1523L318.695 39.8008C318.363 38.6875 317.348 38.043 316.078 38.043C314.34 38.043 313.148 39.2734 313.148 41.0703C313.148 42.8672 314.34 44.0977 316.078 44.0977ZM324.008 38.1406L322.406 43.043L320.355 38.1406H319.066L321.82 44.3906C321.605 44.7812 321.371 44.9961 321.059 44.9961C320.551 44.9961 320.414 44.6055 320.434 44.1562L319.359 44.332C319.359 45.2305 319.867 46.0508 321.039 46.0508C322.035 46.0508 322.68 45.2695 323.051 44.2148L325.219 38.1406H324.008Z" fill="white"/>
<path d="M27.1582 12.7656H25.4883V9.07422H18.7207V12.7656H16.875C7.55859 12.7656 2.02148 18.0391 2.02148 25.8613C2.02148 33.9473 7.4707 38.957 16.875 38.957H18.7207V43.5273H25.4883V38.957H27.1582C36.6504 38.957 42.1875 33.6836 42.1875 25.8613C42.1875 17.7754 36.6504 12.7656 27.1582 12.7656ZM17.1387 33.4199C11.6016 33.4199 8.78906 30.959 8.78906 25.8613C8.78906 21.0273 11.7773 18.3027 17.1387 18.3027H18.7207V33.4199H17.1387ZM27.0703 33.4199H25.4883V18.3027H27.0703C32.5195 18.3027 35.4199 20.7637 35.4199 25.8613C35.4199 30.6953 32.4316 33.4199 27.0703 33.4199ZM48.7793 43H55.5469V9.60156H48.7793V43ZM103.623 9.60156H93.6914L84.2871 34.9141L74.9707 9.60156H64.8633V43H71.4551V17.8633L80.7715 43H87.8027L97.0312 18.127V43H103.623V9.60156ZM113.027 43H119.795V9.60156H113.027V43ZM165.938 9.60156V36.8477H154.248V9.60156H147.48V36.8477H135.879V9.60156H129.111V43H172.617V9.60156H165.938ZM196.611 22.5215H188.789V15.4902H205.928V9.60156H182.021V43H196.611C204.082 43 208.652 39.1328 208.652 32.6289C208.652 26.3887 204.082 22.5215 196.611 22.5215ZM195.82 37.4629H188.701V27.8828H195.82C199.775 27.8828 201.797 29.5527 201.797 32.6289C201.797 35.793 199.775 37.4629 195.82 37.4629Z" fill="white"/>
</svg>
