<svg width="47" height="47" viewBox="0 0 47 47" fill="none" xmlns="http://www.w3.org/2000/svg">
<path fill-rule="evenodd" clip-rule="evenodd" d="M4.26251 37.6482C11.2258 37.6513 18.186 37.6513 25.1514 37.6482C25.3065 38.9678 25.9702 40.1266 26.9384 40.9345H7.89666C5.97122 40.9345 4.58055 39.4759 4.26251 37.6482ZM39.1156 6.08347C41.0416 6.08347 42.4343 7.54151 42.7529 9.36929H35.2856C35.5692 7.49869 37.1604 6.08347 39.1156 6.08347ZM13.2708 6.08347H35.8653C34.7718 7.00049 34.0569 8.3708 34.0569 9.90248L34.0537 37.0554C34.0537 39.2075 32.3434 40.923 30.194 40.9345C30.1919 40.9345 30.1888 40.9345 30.1856 40.9345C30.1835 40.9345 30.1804 40.9345 30.1752 40.9345C28.0315 40.9345 26.3238 39.2341 26.2992 37.0993C26.3207 36.786 26.1248 36.457 25.7034 36.4658H9.39491V9.96306C9.39491 7.80576 11.1115 6.08347 13.2708 6.08347ZM13.2708 4.90063C10.478 4.90063 8.20999 7.16917 8.20999 9.96254V36.4653H3.42539C3.01754 36.4653 2.83789 36.7776 2.83789 37.0549C2.83789 39.8488 5.10329 42.1168 7.89718 42.1168H30.1762C33.2871 42.1168 35.164 39.4514 35.2371 37.0549V10.5521H43.5874C43.9138 10.5521 44.1812 10.2884 44.1812 9.96254C44.1812 7.16865 41.9126 4.90063 39.1161 4.90063H13.2708Z" fill="#31A590"/>
<path d="M39.2922 17.6267H40.9926L41.0202 39.0033L40.1847 40.1235L39.3199 38.9782L39.2922 17.6267ZM38.6426 16.4444C38.3376 16.4741 38.1094 16.7295 38.1094 17.0319L38.1371 39.1783C38.1371 39.3046 38.1778 39.43 38.2566 39.5334L39.7089 41.4651C39.9486 41.7831 40.4218 41.7805 40.6583 41.4619L42.0892 39.5506C42.1655 39.4467 42.2067 39.325 42.2036 39.1965L42.1759 17.0319C42.1759 16.7055 41.9096 16.4412 41.5832 16.4444H38.6426Z" fill="#31A590"/>
<path d="M38.8099 14.3005C38.0214 14.3005 38.0814 15.4834 38.8731 15.4834H41.4404C42.2592 15.4834 42.2592 14.3005 41.4404 14.3005H38.8099Z" fill="#31A590"/>
<path d="M14.9147 13.4712C13.5982 13.4712 12.5156 14.5459 12.5156 15.8619V19.4391C12.5156 20.7531 13.5977 21.8241 14.9147 21.8241H18.4073C19.7239 21.8241 20.8096 20.7525 20.8096 19.4391V18.4704C20.8096 17.6798 19.6236 17.6798 19.6236 18.4704V19.4391C19.6236 20.1139 19.093 20.6418 18.4079 20.6418H14.9152C14.2296 20.6418 13.7026 20.1139 13.7026 19.4391V15.8619C13.7026 15.1851 14.2301 14.6572 14.9152 14.6572H18.1843C18.976 14.6572 18.976 13.4712 18.1843 13.4712H14.9147Z" fill="#31A590"/>
<path d="M21.1635 13.9606C21.0084 13.9632 20.8616 14.028 20.7525 14.1371L16.9726 17.9044L15.7893 16.7289C15.5605 16.4787 15.171 16.4678 14.9323 16.7075C14.6926 16.9467 14.701 17.3357 14.9506 17.565L16.5559 19.1614C16.7862 19.3896 17.1565 19.3896 17.3883 19.1614L21.5906 14.9753C21.9713 14.5972 21.6972 13.9496 21.1635 13.9606Z" fill="#31A590"/>
<path d="M16.9268 29.584L19.0267 31.6405L14.8682 31.6352L16.9268 29.584ZM13.6985 26.3723L16.0861 28.7468L13.6985 31.1235V26.3723ZM14.9147 24.4683C13.5982 24.4683 12.5156 25.5456 12.5156 26.859V30.4362C12.5156 31.7527 13.5977 32.827 14.9147 32.827H18.4073C19.7239 32.827 20.8096 31.7527 20.8096 30.4362V28.3625C20.82 27.5609 19.6121 27.5609 19.6236 28.3625V30.5798L17.7681 28.7468L20.5484 25.9775C20.937 25.602 20.6597 24.9435 20.1181 24.9576C19.9662 24.9639 19.8194 25.0249 19.7103 25.1372L16.9279 27.9118L14.6656 25.6568H17.5838C18.3833 25.6678 18.3833 24.4604 17.5838 24.4688H14.9147V24.4683Z" fill="#31A590"/>
<path d="M23.2176 20.6414C22.8829 20.6278 22.6035 20.8967 22.6035 21.2341C22.6035 21.5693 22.8829 21.8373 23.2176 21.8242H30.3308C30.6656 21.8373 30.945 21.5693 30.945 21.2341C30.945 20.8967 30.6656 20.6278 30.3308 20.6414H23.2176Z" fill="#31A590"/>
<path d="M25.3048 13.4712C24.9753 13.4712 24.709 13.7375 24.709 14.0639C24.709 14.3934 24.9753 14.6572 25.3048 14.6572H30.3312C31.1229 14.6572 31.1229 13.4712 30.3312 13.4712H25.3048Z" fill="#31A590"/>
<path d="M23.2176 18.2501C22.8829 18.2391 22.6035 18.506 22.6035 18.8428C22.6035 19.1781 22.8829 19.447 23.2176 19.4334H30.3308C30.6656 19.447 30.945 19.1781 30.945 18.8428C30.945 18.506 30.6656 18.2391 30.3308 18.2501H23.2176Z" fill="#31A590"/>
<path d="M23.2176 15.862C22.8829 15.849 22.6035 16.1174 22.6035 16.4527C22.6035 16.7895 22.8829 17.059 23.2176 17.0454H30.3308C30.6656 17.059 30.945 16.7895 30.945 16.4527C30.945 16.1174 30.6656 15.849 30.3308 15.862H23.2176Z" fill="#31A590"/>
<path d="M23.2168 31.6404C22.4251 31.6404 22.4251 32.8263 23.2168 32.8263H30.33C31.1217 32.8263 31.1217 31.6404 30.33 31.6404H23.2168Z" fill="#31A590"/>
<path d="M25.3047 24.4683C24.513 24.4683 24.513 25.6563 25.3047 25.6563H30.3311C31.1228 25.6563 31.1228 24.4683 30.3311 24.4683H25.3047Z" fill="#31A590"/>
<path d="M23.2177 29.2498C22.8892 29.2498 22.625 29.5171 22.625 29.8425C22.625 30.172 22.8892 30.4383 23.2177 30.4383H30.3309C31.1226 30.4383 31.1226 29.2503 30.3309 29.2503H23.2177V29.2498Z" fill="#31A590"/>
<path d="M23.2177 26.8589C22.8892 26.8589 22.625 27.1252 22.625 27.4547C22.625 27.7811 22.8892 28.0475 23.2177 28.0475H30.3309C31.1226 28.0475 31.1226 26.8594 30.3309 26.8594H23.2177V26.8589Z" fill="#31A590"/>
</svg>
