<svg width="49" height="49" viewBox="0 0 49 49" fill="none" xmlns="http://www.w3.org/2000/svg">
<path d="M20.2486 24.9512C20.067 24.8604 19.8567 24.8454 19.6641 24.9096C19.4715 24.9738 19.3122 25.1119 19.2214 25.2935L19.1197 25.497C18.9244 25.8876 18.6242 26.2161 18.2527 26.4457C17.8813 26.6752 17.4532 26.7968 17.0165 26.7968C16.5799 26.7968 16.1518 26.6752 15.7803 26.4457C15.4089 26.2161 15.1087 25.8876 14.9134 25.497L14.8118 25.2936C14.721 25.112 14.5617 24.9739 14.3691 24.9097C14.1764 24.8455 13.9662 24.8604 13.7845 24.9512C13.6029 25.0421 13.4648 25.2013 13.4006 25.394C13.3364 25.5866 13.3514 25.7969 13.4422 25.9785L13.5439 26.1818C13.8664 26.8267 14.362 27.3691 14.9754 27.7481C15.5887 28.1272 16.2955 28.328 17.0166 28.328C17.7376 28.328 18.4444 28.1272 19.0578 27.7481C19.6711 27.3691 20.1668 26.8267 20.4893 26.1818L20.5909 25.9784C20.6817 25.7968 20.6967 25.5865 20.6325 25.3939C20.5683 25.2013 20.4302 25.042 20.2486 24.9512Z" fill="#31A590"/>
<path d="M43.3871 18.536C43.1101 17.8207 42.6254 17.2047 41.9954 16.7671C41.9857 16.7393 41.9745 16.712 41.9618 16.6854C41.403 15.5335 40.6086 14.5117 39.6301 13.6861C38.6515 12.8605 37.5106 12.2495 36.281 11.8927C36.9764 10.7575 38.0249 9.88161 39.2657 9.39942C39.4955 9.88761 39.8898 10.2793 40.3795 10.5059C40.8692 10.7325 41.423 10.7794 41.9438 10.6385C42.4646 10.4976 42.9192 10.1778 43.2279 9.73527C43.5365 9.29272 43.6796 8.75563 43.6318 8.21819C43.5841 7.68075 43.3487 7.17726 42.9669 6.79601C42.5851 6.41477 42.0813 6.1801 41.5438 6.13317C41.0062 6.08623 40.4694 6.23002 40.0273 6.53932C39.5852 6.84862 39.2661 7.30369 39.1259 7.82472C37.2118 8.44367 35.6202 9.79483 34.6989 11.5832C32.8561 11.3882 30.9976 11.7579 29.3698 12.6434C27.742 13.5288 26.4218 14.8882 25.5842 16.5412L25.2971 15.0386L27.0986 13.3477C27.2046 13.2482 27.2801 13.1207 27.3163 12.9799C27.3524 12.8391 27.3478 12.691 27.3029 12.5528C27.258 12.4146 27.1747 12.292 27.0627 12.1994C26.9507 12.1067 26.8146 12.0479 26.6704 12.0297L25.8398 11.925V8.24448C26.4244 8.02053 26.9121 7.59899 27.2184 7.05301C27.5246 6.50702 27.63 5.87106 27.5163 5.25546C27.4026 4.63987 27.077 4.08351 26.596 3.68292C26.1149 3.28234 25.5088 3.06281 24.8828 3.06244H24.8541C24.5855 2.59699 24.1991 2.21047 23.7338 1.94172C23.2684 1.67298 22.7405 1.53149 22.2031 1.53149C21.6657 1.53149 21.1378 1.67298 20.6725 1.94172C20.2071 2.21047 19.8207 2.59699 19.5521 3.06244H19.5234C18.8463 3.06291 18.1944 3.31973 17.6989 3.78126C17.2034 4.24279 16.901 4.8748 16.8525 5.55022C16.804 6.22563 17.013 6.89437 17.4375 7.42195C17.862 7.94954 18.4705 8.29685 19.1406 8.39406V11.9212L18.2793 12.0298C18.1351 12.048 17.999 12.1068 17.887 12.1994C17.775 12.292 17.6917 12.4146 17.6468 12.5528C17.6019 12.6911 17.5972 12.8392 17.6334 12.98C17.6696 13.1207 17.745 13.2483 17.851 13.3477L19.6526 15.0387L19.1889 17.4658C19.1617 17.6085 19.1756 17.7561 19.2291 17.8912C19.2825 18.0263 19.3734 18.1435 19.4909 18.2289C19.6085 18.3143 19.748 18.3645 19.893 18.3736C20.038 18.3827 20.1827 18.3503 20.31 18.2803L22.475 17.0894L24.6399 18.2803C24.7182 18.3228 24.8034 18.3512 24.8916 18.3641C24.7598 18.8696 24.6718 19.3856 24.6286 19.9062H11.8199C11.636 19.9062 11.4583 19.9724 11.3192 20.0926C11.1801 20.2129 11.0889 20.3792 11.0623 20.5612L10.7536 22.6746L7.03322 27.8831C6.92366 28.0365 6.87454 28.225 6.89527 28.4123C6.916 28.5997 7.00513 28.7728 7.14557 28.8985L9.95312 31.4118V42.1093C9.95312 42.2977 10.0226 42.4795 10.1482 42.6199C10.2739 42.7603 10.4469 42.8494 10.6341 42.8702L16.8437 43.5602V46.7031C16.8437 46.9061 16.9244 47.1009 17.068 47.2444C17.2116 47.388 17.4063 47.4687 17.6094 47.4687H34.4531C34.6562 47.4687 34.8509 47.388 34.9945 47.2444C35.1381 47.1009 35.2187 46.9061 35.2187 46.7031V39.9081L36.1484 36.2534C37.126 32.4171 37.486 28.4495 37.2148 24.4999H42.9388C43.6952 24.4998 44.4235 24.2139 44.9779 23.6994C45.5324 23.185 45.872 22.4801 45.9287 21.7259C45.9853 20.9716 45.755 20.2239 45.2836 19.6323C44.8123 19.0408 44.1349 18.6492 43.3871 18.536ZM24.3086 8.42181V11.7319L24.2193 11.7207L23.1678 9.48479C23.106 9.35331 23.008 9.24215 22.8853 9.16428C22.7626 9.08642 22.6203 9.04507 22.475 9.04507C22.3297 9.04507 22.1874 9.08642 22.0647 9.16428C21.9421 9.24215 21.8441 9.35331 21.7822 9.48479L20.7306 11.7207L20.6719 11.7281V8.42181H24.3086ZM18.375 5.74213C18.3753 5.43764 18.4964 5.14572 18.7117 4.93042C18.927 4.71512 19.2189 4.59402 19.5234 4.59369H20.0384C20.1967 4.59369 20.3511 4.54462 20.4804 4.45323C20.6096 4.36185 20.7074 4.23264 20.7602 4.0834C20.8655 3.78486 21.0609 3.52634 21.3193 3.34348C21.5777 3.16062 21.8865 3.06242 22.2031 3.06242C22.5197 3.06242 22.8285 3.16062 23.0869 3.34348C23.3453 3.52634 23.5407 3.78486 23.646 4.0834C23.6988 4.23264 23.7966 4.36185 23.9258 4.45323C24.0551 4.54462 24.2095 4.59369 24.3678 4.59369H24.8828C25.1874 4.59369 25.4795 4.71468 25.6949 4.93006C25.9102 5.14543 26.0312 5.43754 26.0312 5.74213C26.0312 6.04671 25.9102 6.33882 25.6949 6.55419C25.4795 6.76957 25.1874 6.89056 24.8828 6.89056H19.5234C19.2189 6.89023 18.927 6.76913 18.7117 6.55383C18.4964 6.33853 18.3753 6.04661 18.375 5.74213ZM23.9424 14.2104C23.8484 14.2987 23.7781 14.4094 23.7382 14.5321C23.6984 14.6548 23.6902 14.7856 23.7144 14.9123L23.9515 16.1539L22.8443 15.5447C22.7313 15.4825 22.6044 15.4499 22.4753 15.4499C22.3463 15.4499 22.2194 15.4825 22.1064 15.5447L20.9988 16.1539L21.236 14.9123C21.2602 14.7856 21.252 14.6548 21.2121 14.5321C21.1722 14.4094 21.102 14.2987 21.008 14.2104L20.0864 13.3454L21.3401 13.1873C21.4681 13.1711 21.5899 13.1229 21.6943 13.047C21.7987 12.9712 21.8823 12.8702 21.9372 12.7534L22.4751 11.6097L23.0131 12.7534C23.068 12.8702 23.1515 12.9712 23.2558 13.047C23.3602 13.1229 23.482 13.1711 23.6101 13.1873L24.8638 13.3454L23.9424 14.2104ZM41.3437 7.65619C41.4952 7.65619 41.6432 7.70109 41.7691 7.78522C41.895 7.86935 41.9931 7.98892 42.0511 8.12882C42.109 8.26872 42.1242 8.42266 42.0947 8.57118C42.0651 8.7197 41.9922 8.85612 41.8851 8.96319C41.778 9.07027 41.6416 9.14319 41.4931 9.17273C41.3446 9.20227 41.1907 9.18711 41.0508 9.12916C40.9109 9.07121 40.7913 8.97308 40.7071 8.84717C40.623 8.72127 40.5781 8.57324 40.5781 8.42181C40.5783 8.21883 40.6591 8.02422 40.8026 7.88069C40.9461 7.73715 41.1408 7.65642 41.3437 7.65619ZM33.7353 13.0634C34.9119 13.0582 36.0734 13.3281 37.1272 13.8515C38.1809 14.3749 39.0977 15.1374 39.8045 16.0781C39.2393 16.0795 38.6816 16.207 38.172 16.4513C37.3736 15.6111 36.3531 15.0148 35.2292 14.7318C34.1052 14.4488 32.924 14.4907 31.8229 14.8525C30.7218 15.2144 29.7461 15.8815 29.0092 16.7761C28.2723 17.6707 27.8045 18.7562 27.6602 19.9062H26.166C26.3579 18.0314 27.2379 16.2943 28.6359 15.0305C30.0339 13.7666 31.8508 13.0658 33.7353 13.0634ZM34.1483 19.9062H32.4113C32.5147 19.7266 32.6535 19.5698 32.8193 19.4455C32.9852 19.3213 33.1746 19.232 33.376 19.1833C33.5775 19.1345 33.7867 19.1273 33.9911 19.1619C34.1954 19.1966 34.3905 19.2725 34.5646 19.385C34.4071 19.5428 34.2676 19.7176 34.1486 19.9062H34.1483ZM36.2376 18.536C36.1495 18.5492 36.0627 18.5663 35.9772 18.5873C35.6033 18.1848 35.128 17.8903 34.6011 17.7348C34.0742 17.5792 33.5152 17.5683 32.9827 17.7032C32.4501 17.8381 31.9637 18.1138 31.5744 18.5014C31.1851 18.889 30.9073 19.3742 30.7701 19.9062H29.2069C29.3463 19.0799 29.7092 18.3075 30.2562 17.6727C30.8031 17.0379 31.5134 16.5648 32.31 16.3048C33.1066 16.0447 33.9592 16.0076 34.7754 16.1975C35.5916 16.3873 36.3403 16.7968 36.9403 17.3817C36.6394 17.7216 36.4015 18.1125 36.2379 18.536H36.2376ZM34.6644 35.8762L33.7111 39.6236C33.6954 39.6853 33.6875 39.7488 33.6875 39.8124V45.9374H18.375V42.8749C18.375 42.6865 18.3055 42.5047 18.1799 42.3643C18.0542 42.224 17.8812 42.1348 17.694 42.114L11.4844 41.4241V35.4162H13.0365C13.5691 35.4177 14.0968 35.3135 14.5889 35.1097C15.0809 34.9059 15.5277 34.6065 15.9034 34.2288C16.047 34.0852 16.1276 33.8905 16.1276 33.6874C16.1276 33.4843 16.0469 33.2896 15.9033 33.146C15.7597 33.0024 15.565 32.9218 15.3619 32.9218C15.1588 32.9218 14.9641 33.0024 14.8205 33.146C14.5868 33.3811 14.3087 33.5674 14.0025 33.6942C13.6963 33.8211 13.3679 33.8859 13.0365 33.885H11.4844V31.0696C11.4844 30.9619 11.4617 30.8554 11.4177 30.7571C11.3738 30.6588 11.3096 30.5709 11.2294 30.4991L8.67788 28.2149L12.1074 23.4136C12.1782 23.3145 12.2244 23.1999 12.242 23.0793L12.4818 21.4374H33.6889C33.6889 21.4587 33.6875 21.4798 33.6875 21.5012C33.6882 22.1173 33.8784 22.7183 34.2323 23.2227C34.5861 23.7271 35.0865 24.1105 35.6656 24.3209C35.9632 28.2015 35.625 32.1046 34.6644 35.8762ZM42.9388 22.9687H36.6862C36.299 22.9656 35.9288 22.8096 35.6561 22.5347C35.3835 22.2599 35.2305 21.8884 35.2305 21.5012C35.2305 21.1141 35.3835 20.7426 35.6561 20.4677C35.9288 20.1929 36.299 20.0369 36.6862 20.0338H36.817C36.9925 20.0338 37.1626 19.9735 37.299 19.863C37.4353 19.7525 37.5296 19.5986 37.566 19.4269C37.6755 18.9123 37.9584 18.4509 38.3673 18.1199C38.7762 17.7889 39.2864 17.6083 39.8125 17.6083C40.3386 17.6083 40.8488 17.7889 41.2577 18.1199C41.6666 18.4509 41.9495 18.9123 42.059 19.4269C42.0954 19.5986 42.1897 19.7525 42.326 19.863C42.4624 19.9735 42.6325 20.0338 42.808 20.0338H42.9388C43.326 20.0369 43.6962 20.1929 43.9688 20.4677C44.2415 20.7426 44.3945 21.1141 44.3945 21.5012C44.3945 21.8884 44.2415 22.2599 43.9688 22.5347C43.6962 22.8096 43.326 22.9656 42.9388 22.9687Z" fill="#31A590"/>
<path d="M29.8594 9.95307C30.0624 9.95307 30.2572 9.87241 30.4008 9.72883C30.5444 9.58524 30.625 9.3905 30.625 9.18745V9.05605C30.6225 8.04524 30.9658 7.06399 31.598 6.2753C32.0924 6.68383 32.7168 6.90161 33.358 6.8891C33.9992 6.8766 34.6146 6.63464 35.0926 6.20714C35.5707 5.77964 35.8796 5.19493 35.9634 4.55912C36.0471 3.92331 35.9002 3.27854 35.5492 2.74181C35.1982 2.20509 34.6664 1.81198 34.0504 1.63383C33.4343 1.45568 32.7748 1.50429 32.1915 1.77085C31.6082 2.03741 31.1398 2.50424 30.8713 3.08663C30.6028 3.66902 30.552 4.32837 30.7281 4.94502C29.6753 6.05442 29.09 7.5266 29.0938 9.05605V9.18745C29.0938 9.3905 29.1744 9.58524 29.318 9.72883C29.4616 9.87241 29.6563 9.95307 29.8594 9.95307ZM33.3047 3.06245C33.5318 3.06245 33.7539 3.1298 33.9427 3.25599C34.1316 3.38219 34.2788 3.56155 34.3657 3.7714C34.4526 3.98125 34.4754 4.21216 34.4311 4.43493C34.3868 4.65771 34.2774 4.86234 34.1168 5.02295C33.9562 5.18356 33.7515 5.29294 33.5288 5.33726C33.306 5.38157 33.0751 5.35883 32.8652 5.2719C32.6554 5.18498 32.476 5.03778 32.3498 4.84892C32.2236 4.66006 32.1563 4.43802 32.1563 4.21089C32.1566 3.9064 32.2777 3.61448 32.493 3.39918C32.7083 3.18388 33.0002 3.06278 33.3047 3.06245Z" fill="#31A590"/>
<path d="M13.0156 11.4843C13.3367 11.4845 13.6543 11.4169 13.9475 11.286C14.8306 12.4427 15.31 13.8571 15.3125 15.3124C15.3125 15.5154 15.3932 15.7102 15.5368 15.8538C15.6803 15.9973 15.8751 16.078 16.0781 16.078C16.2812 16.078 16.4759 15.9973 16.6195 15.8538C16.7631 15.7102 16.8438 15.5154 16.8438 15.3124C16.8413 13.4722 16.2192 11.6864 15.0778 10.2429C15.0732 10.2371 15.0683 10.2319 15.0631 10.2261C15.2892 9.78003 15.3635 9.27228 15.2746 8.78009C15.1858 8.2879 14.9386 7.83818 14.5708 7.49929C14.203 7.16041 13.7345 6.95089 13.2367 6.90258C12.7389 6.85428 12.2389 6.96983 11.8128 7.23167C11.3867 7.49352 11.0577 7.88733 10.8759 8.35326C10.694 8.81918 10.6693 9.33174 10.8054 9.813C10.9416 10.2943 11.2311 10.7179 11.63 11.0196C12.029 11.3212 12.5155 11.4844 13.0156 11.4843ZM13.0156 8.42176C13.1671 8.42176 13.3151 8.46666 13.441 8.55079C13.5669 8.63492 13.665 8.75449 13.723 8.89439C13.7809 9.03429 13.7961 9.18823 13.7665 9.33675C13.737 9.48527 13.6641 9.62169 13.557 9.72876C13.4499 9.83584 13.3135 9.90876 13.165 9.9383C13.0165 9.96784 12.8625 9.95268 12.7226 9.89473C12.5827 9.83678 12.4632 9.73865 12.379 9.61274C12.2949 9.48684 12.25 9.33881 12.25 9.18738C12.2502 8.9844 12.331 8.78979 12.4745 8.64626C12.618 8.50272 12.8126 8.42199 13.0156 8.42176Z" fill="#31A590"/>
<path d="M10.6314 16.3748C11.1399 16.4692 11.6244 16.6647 12.056 16.9497C12.4877 17.2347 12.8578 17.6033 13.1445 18.0339C13.2576 18.2016 13.4326 18.3178 13.6311 18.3569C13.8296 18.3961 14.0356 18.355 14.2039 18.2428C14.3723 18.1305 14.4894 17.9562 14.5296 17.7578C14.5698 17.5595 14.5298 17.3534 14.4185 17.1844C13.9862 16.5353 13.4184 15.9876 12.7542 15.5791C12.0899 15.1705 11.345 14.9108 10.5707 14.8178C10.3601 14.2111 9.93862 13.7002 9.38295 13.3783C8.82727 13.0563 8.17443 12.9447 7.54336 13.0638C6.91229 13.1829 6.34501 13.5247 5.94486 14.027C5.54472 14.5293 5.33835 15.1587 5.36336 15.8004C5.38837 16.4421 5.64309 17.0535 6.08111 17.5231C6.51913 17.9928 7.11129 18.2894 7.74971 18.359C8.38813 18.4286 9.03031 18.2666 9.55925 17.9023C10.0882 17.5381 10.4687 16.996 10.6314 16.3748ZM6.89083 15.6953C6.89083 15.4681 6.95818 15.2461 7.08438 15.0572C7.21057 14.8684 7.38993 14.7212 7.59978 14.6343C7.80963 14.5473 8.04054 14.5246 8.26332 14.5689C8.48609 14.6132 8.69072 14.7226 8.85133 14.8832C9.01195 15.0438 9.12132 15.2485 9.16564 15.4712C9.20995 15.694 9.18721 15.9249 9.10028 16.1348C9.01336 16.3446 8.86616 16.524 8.6773 16.6502C8.48844 16.7764 8.26641 16.8437 8.03927 16.8437C7.73478 16.8434 7.44286 16.7223 7.22756 16.507C7.01226 16.2917 6.89116 15.9998 6.89083 15.6953Z" fill="#31A590"/>
<path d="M6.88566 9.64052C6.89756 9.54066 6.88968 9.43943 6.86245 9.34262C6.83522 9.24581 6.78919 9.15531 6.72697 9.07629C6.66476 8.99727 6.58759 8.93129 6.49987 8.8821C6.41215 8.83291 6.3156 8.80149 6.21574 8.78963C5.05007 8.6515 3.86837 8.80708 2.77818 9.24221C2.68482 9.27955 2.59974 9.33491 2.52778 9.40513C2.45582 9.47535 2.3984 9.55906 2.35879 9.65147C2.31918 9.74389 2.29816 9.8432 2.29693 9.94374C2.2957 10.0443 2.31429 10.1441 2.35163 10.2374C2.38897 10.3308 2.44433 10.4159 2.51455 10.4878C2.58477 10.5598 2.66848 10.6172 2.7609 10.6568C2.85331 10.6964 2.95262 10.7174 3.05316 10.7187C3.1537 10.7199 3.25349 10.7013 3.34685 10.664C4.19914 10.3238 5.12296 10.2021 6.03429 10.3099C6.13417 10.322 6.23547 10.3143 6.33238 10.2872C6.42928 10.2602 6.51988 10.2142 6.59899 10.152C6.67809 10.0898 6.74413 10.0126 6.79332 9.92485C6.84252 9.83708 6.8739 9.74045 6.88566 9.64052Z" fill="#31A590"/>
<path d="M8.63329 11.3358C8.85727 11.5005 9.06843 11.682 9.26493 11.8786L9.41202 12.0257C9.55561 12.1693 9.75035 12.25 9.95342 12.25C10.1565 12.25 10.3512 12.1693 10.4948 12.0257C10.6384 11.8822 10.7191 11.6874 10.7191 11.4844C10.7191 11.2813 10.6384 11.0865 10.4948 10.943L10.3477 10.7959C10.0962 10.5444 9.82592 10.3123 9.53931 10.1016C9.37559 9.98144 9.17084 9.9312 8.97008 9.96197C8.76933 9.99274 8.58902 10.102 8.46882 10.2657C8.34862 10.4294 8.29838 10.6342 8.32916 10.8349C8.35993 11.0357 8.46919 11.216 8.6329 11.3362L8.63329 11.3358Z" fill="#31A590"/>
</svg>
