<svg width="37" height="37" viewBox="0 0 37 37" fill="none" xmlns="http://www.w3.org/2000/svg">
<g clip-path="url(#clip0_328_1248)">
<path d="M36.6955 4.66982C36.6735 4.64916 32.3274 0.504359 32.3274 0.504359C32.1613 0.344941 31.9894 0.180176 31.6685 0.180176H14.1716C13.6605 0.180176 13.2447 0.59592 13.2447 1.10698V3.95302L7.07793 5.01012C6.58363 5.09684 6.25121 5.56989 6.33684 6.06368L6.64983 7.88853C4.6454 8.56306 2.58749 9.2584 0.600833 9.97202C0.131396 10.1437 -0.114958 10.6656 0.0525537 11.1379L4.0044 22.1234C4.08389 22.3445 4.29223 22.4821 4.51445 22.4821C4.5753 22.4821 4.6373 22.4718 4.69786 22.45C4.97955 22.3487 5.12575 22.0382 5.02443 21.7565L1.13105 10.9334C3.00273 10.2633 4.94103 9.60744 6.83533 8.96984L8.69769 19.8274L10.8407 32.3317C10.9181 32.7731 11.306 33.0871 11.744 33.0871C11.7935 33.0871 11.8438 33.0831 11.8943 33.0748L17.6984 32.0787L22.2338 31.3013L15.4125 33.7531L10.0334 35.6871L5.85592 24.0676C5.75467 23.7859 5.44429 23.6397 5.16253 23.7409C4.88084 23.8422 4.73464 24.1526 4.83589 24.4343L9.07268 36.219C9.20817 36.5896 9.55924 36.8199 9.93033 36.8199C10.0329 36.8199 10.137 36.8023 10.2385 36.7652L15.7791 34.7732L28.3602 30.2512L30.7636 29.8392H36.0731C36.5841 29.8392 36.9999 29.4225 36.9999 28.9103V5.28054C37 4.95614 36.824 4.79065 36.6955 4.66982ZM35.2595 4.79817H32.5474L32.4802 4.79846C32.3503 4.79932 32.0463 4.80156 31.9692 4.72496C31.9514 4.70726 31.9306 4.64814 31.9306 4.53837L31.9243 1.61776L35.2595 4.79817ZM35.916 28.7551H14.3287V18.1922C14.3287 17.8929 14.086 17.6502 13.7867 17.6502C13.4874 17.6502 13.2447 17.8929 13.2447 18.1922V28.9102C13.2447 29.4223 13.6605 29.8391 14.1716 29.8391H24.3475L17.5151 31.0102L11.8797 31.9773L9.76607 19.6441L7.43413 6.0488L13.2446 5.05276V15.6774C13.2446 15.9767 13.4873 16.2194 13.7866 16.2194C14.086 16.2194 14.3286 15.9767 14.3286 15.6774V1.26409H30.8395L30.8466 4.5396C30.8466 4.93663 30.9674 5.25778 31.2055 5.49423C31.5714 5.85751 32.0886 5.8828 32.4096 5.8828C32.4372 5.8828 32.4634 5.88258 32.4879 5.88244L35.916 5.88222V28.7551Z" fill="#31A590"/>
<path d="M16.9414 8.59595C16.9414 8.89527 17.1841 9.13794 17.4834 9.13794H32.9798C33.2791 9.13794 33.5217 8.89527 33.5217 8.59595C33.5217 8.29662 33.2791 8.05396 32.9798 8.05396H17.4834C17.1841 8.05396 16.9414 8.29662 16.9414 8.59595Z" fill="#31A590"/>
<path d="M32.9798 11.9044H17.4834C17.1841 11.9044 16.9414 12.1471 16.9414 12.4464C16.9414 12.7457 17.1841 12.9884 17.4834 12.9884H32.9798C33.2791 12.9884 33.5217 12.7457 33.5217 12.4464C33.5217 12.1471 33.2791 11.9044 32.9798 11.9044Z" fill="#31A590"/>
<path d="M32.9798 15.7549H17.4834C17.1841 15.7549 16.9414 15.9976 16.9414 16.2969C16.9414 16.5962 17.1841 16.8389 17.4834 16.8389H32.9798C33.2791 16.8389 33.5217 16.5962 33.5217 16.2969C33.5217 15.9976 33.2791 15.7549 32.9798 15.7549Z" fill="#31A590"/>
<path d="M32.9798 19.6053H17.4834C17.1841 19.6053 16.9414 19.848 16.9414 20.1473C16.9414 20.4467 17.1841 20.6893 17.4834 20.6893H32.9798C33.2791 20.6893 33.5217 20.4467 33.5217 20.1473C33.5217 19.848 33.2791 19.6053 32.9798 19.6053Z" fill="#31A590"/>
<path d="M32.9798 23.4558H17.4834C17.1841 23.4558 16.9414 23.6985 16.9414 23.9978C16.9414 24.2971 17.1841 24.5398 17.4834 24.5398H32.9798C33.2791 24.5398 33.5217 24.2971 33.5217 23.9978C33.5217 23.6985 33.2791 23.4558 32.9798 23.4558Z" fill="#31A590"/>
</g>
<defs>
<clipPath id="clip0_328_1248">
<rect width="37" height="37" fill="white"/>
</clipPath>
</defs>
</svg>
