<svg width="45" height="45" viewBox="0 0 45 45" fill="none" xmlns="http://www.w3.org/2000/svg">
<path d="M20.0391 9.84375C20.6216 9.84375 21.0938 9.37155 21.0938 8.78906C21.0938 8.20657 20.6216 7.73438 20.0391 7.73438C19.4566 7.73438 18.9844 8.20657 18.9844 8.78906C18.9844 9.37155 19.4566 9.84375 20.0391 9.84375Z" fill="#31A590"/>
<path d="M42.3896 16.245C41.6633 15.4389 40.6757 14.915 39.601 14.7656C39.5301 14.7415 33.0469 14.7656 33.0469 14.7656C32.8604 14.7656 32.6816 14.8397 32.5497 14.9715C32.4178 15.1034 32.3438 15.2822 32.3438 15.4687V20.3906H21.0938C20.9245 20.3906 20.7609 20.4517 20.633 20.5626C20.5051 20.6735 20.4215 20.8269 20.3977 20.9945L20.2746 21.8572C20.1128 22.9899 19.7073 24.074 19.0858 25.0347C18.4644 25.9954 17.642 26.8098 16.6752 27.4218H14.0625V28.8281H16.0894L15.5426 33.75H4.21875C4.03227 33.75 3.85343 33.824 3.72157 33.9559C3.5897 34.0878 3.51562 34.2666 3.51562 34.4531V42.8906C3.51562 43.0771 3.5897 43.2559 3.72157 43.3878C3.85343 43.5196 4.03227 43.5937 4.21875 43.5937H18.2812C18.3976 43.5937 18.5121 43.5649 18.6146 43.5097C18.7171 43.4545 18.8042 43.3748 18.8683 43.2777C18.9323 43.1806 18.9713 43.069 18.9816 42.9531C18.992 42.8372 18.9734 42.7206 18.9276 42.6136L16.875 37.8243V34.4921L17.5363 28.5403C18.5941 27.8455 19.5015 26.9453 20.2046 25.8931C21.4453 24.038 21.7037 21.7968 21.7037 21.7968H35.1725C35.5135 22.3312 35.962 22.7889 36.4894 23.1406C37.0168 23.4924 37.6116 23.7306 38.236 23.84C38.8604 23.9495 39.5008 23.9279 40.1164 23.7765C40.732 23.6252 41.3094 23.3474 41.8119 22.9609C42.3144 22.5744 42.7309 22.0875 43.0351 21.5313C43.3393 20.9751 43.5244 20.3617 43.5788 19.7301C43.6331 19.0985 43.5554 18.4625 43.3507 17.8625C43.146 17.2625 42.8187 16.7117 42.3896 16.245ZM15.4688 37.2656H13.3594V35.1562H15.4688V37.2656ZM10.5469 37.2656V35.1562H11.9531V37.2656H10.5469ZM9.14062 35.1562V37.2656H7.73438V35.1562H9.14062ZM6.32812 35.1562V37.2656H4.92188V35.1562H6.32812ZM4.92188 42.1875V38.6718H15.7083L17.2149 42.1875H4.92188ZM39.0234 22.5C38.44 22.5011 37.8676 22.3404 37.3701 22.0356C36.8725 21.7308 36.4693 21.294 36.2053 20.7736C36.1464 20.6583 36.0567 20.5615 35.9462 20.4939C35.8357 20.4263 35.7087 20.3906 35.5792 20.3906H33.75V16.1718C33.75 16.1718 39.2815 16.1829 39.3118 16.1856C40.1213 16.2615 40.8705 16.646 41.404 17.2594C41.9376 17.8728 42.2146 18.6681 42.1775 19.4803C42.1404 20.2924 41.7921 21.0591 41.2048 21.6214C40.6176 22.1836 39.8364 22.4982 39.0234 22.5Z" fill="#31A590"/>
<path d="M7.73438 32.3438C7.84803 32.3437 7.95999 32.3162 8.06067 32.2634C8.16134 32.2107 8.24773 32.1343 8.31243 32.0409L14.6126 22.9406C14.6126 22.9406 16.4048 21.0558 16.4722 21.0571C17.0756 21.0713 17.6757 20.9644 18.2371 20.7427C18.7984 20.521 19.3096 20.189 19.7405 19.7664C20.1714 19.3437 20.5131 18.8389 20.7455 18.2819C20.978 17.7249 21.0964 17.127 21.0938 16.5234C21.0938 16.405 21.0878 16.2881 21.0789 16.1719H30.9375V14.7656H22.1227C22.37 14.3382 22.5001 13.8532 22.5 13.3594V11.9531H24.6094C24.7208 11.9531 24.8306 11.9267 24.9298 11.8759C25.0289 11.8251 25.1146 11.7515 25.1798 11.6612C25.2449 11.5708 25.2877 11.4662 25.3045 11.3561C25.3213 11.246 25.3117 11.1334 25.2765 11.0277L23.7341 6.39958C23.5869 5.95682 23.3907 5.53192 23.1491 5.13281C23.4815 4.85516 23.7204 4.48185 23.8332 4.06364C23.946 3.64543 23.9273 3.20262 23.7795 2.79544C23.6318 2.38826 23.3622 2.03646 23.0075 1.78791C22.6527 1.53935 22.23 1.40609 21.7969 1.40625H15.4688C14.3503 1.40751 13.2779 1.85238 12.487 2.64328C11.6961 3.43418 11.2513 4.5065 11.25 5.625V11.6619L8.99499 13.9169L9.98938 14.9113L15.2578 9.7026C15.3902 9.573 15.4661 9.3964 15.469 9.21117C15.4719 9.02595 15.4015 8.84706 15.2733 8.71339L14.8837 8.30733C14.7406 8.15649 14.6617 7.95585 14.6639 7.74789C14.666 7.53993 14.7491 7.34097 14.8954 7.19314C14.9698 7.11875 15.0582 7.05984 15.1555 7.01982C15.2528 6.97981 15.3571 6.95949 15.4623 6.96004C15.5676 6.96059 15.6716 6.98199 15.7685 7.02302C15.8654 7.06404 15.9532 7.12386 16.0269 7.19903L17.0469 8.24027C17.1341 8.32923 17.2433 8.39345 17.3634 8.42636C17.4835 8.45926 17.6102 8.45968 17.7305 8.42757C17.8508 8.39546 17.9604 8.33197 18.0482 8.24359C18.1359 8.15521 18.1986 8.04512 18.2298 7.92457L18.8254 5.625H21.792C22.0511 6.00063 22.2557 6.41101 22.3998 6.84396L23.6338 10.5469H21.7969C21.6104 10.5469 21.4316 10.621 21.2997 10.7528C21.1678 10.8847 21.0938 11.0635 21.0938 11.25V13.3594C21.0937 13.5652 21.0483 13.7686 20.961 13.955C20.8736 14.1414 20.7464 14.3063 20.5882 14.4381C20.2135 13.7069 19.6486 13.0904 18.9529 12.6533C18.2573 12.2162 17.4567 11.9748 16.6354 11.9545C15.8141 11.9342 15.0025 12.1357 14.2861 12.5379C13.5697 12.94 12.975 13.5279 12.5646 14.2396L2.8125 24.9111V19.7569C2.8125 17.8124 4.36254 16.2046 6.26722 16.1727C6.49367 16.169 6.71996 16.1867 6.9431 16.2254C7.506 16.3251 8.036 16.5609 8.48698 16.9123L9.35165 15.8033C8.71891 15.3104 7.97527 14.9798 7.1855 14.8402C6.87478 14.7861 6.55964 14.7614 6.24428 14.7666C3.57653 14.8112 1.40625 17.0499 1.40625 19.7569V30.2344C1.40688 30.7936 1.62932 31.3298 2.02477 31.7252C2.42021 32.1207 2.95638 32.3431 3.51562 32.3438H7.73438ZM18.2812 4.21875C18.1255 4.21875 17.9741 4.27048 17.8509 4.36582C17.7277 4.46115 17.6397 4.59469 17.6006 4.74548L17.1804 6.36732L17.031 6.21483C16.8277 6.00617 16.5848 5.84021 16.3166 5.72669C16.0483 5.61318 15.7601 5.5544 15.4688 5.55381H15.4571C15.1679 5.55298 14.8813 5.60957 14.6141 5.72029C14.3468 5.83102 14.1042 5.99367 13.9003 6.19884C13.5119 6.59145 13.2841 7.11497 13.2616 7.66677C13.2392 8.21857 13.4236 8.75887 13.7788 9.18176L12.6562 10.281V5.625C12.6571 4.87934 12.9537 4.16445 13.4809 3.63719C14.0082 3.10992 14.7231 2.81334 15.4688 2.8125H21.7969C21.9834 2.8125 22.1622 2.88658 22.2941 3.01844C22.4259 3.1503 22.5 3.32914 22.5 3.51563C22.5 3.70211 22.4259 3.88095 22.2941 4.01281C22.1622 4.14467 21.9834 4.21875 21.7969 4.21875H18.2812ZM13.753 14.9947C14.0304 14.4895 14.4404 14.0695 14.9388 13.78C15.4371 13.4905 16.005 13.3425 16.5813 13.3518C17.1576 13.3611 17.7204 13.5274 18.2091 13.8328C18.6979 14.1382 19.0941 14.5712 19.3551 15.0851C19.616 15.5989 19.7319 16.1743 19.6901 16.7491C19.6484 17.3239 19.4506 17.8765 19.1182 18.3473C18.7857 18.8181 18.3311 19.1892 17.8034 19.4208C17.2756 19.6525 16.6947 19.7357 16.1231 19.6617C16.0119 19.6476 15.899 19.6604 15.7937 19.6989C15.6884 19.7374 15.5939 19.8004 15.518 19.8829L14.0462 21.4805L10.8301 18.2414C10.8301 18.2414 13.7268 15.0422 13.753 14.9947ZM2.8125 30.2344V26.9923L9.86581 19.2977L13.1504 22.5823L7.36603 30.9375H3.51562C3.32921 30.9373 3.15049 30.8631 3.01867 30.7313C2.88686 30.5995 2.81271 30.4208 2.8125 30.2344Z" fill="#31A590"/>
</svg>
