<svg width="44" height="44" viewBox="0 0 44 44" fill="none" xmlns="http://www.w3.org/2000/svg">
<g clip-path="url(#clip0_435_2616)">
<path d="M4.69455 29.0999C5.54178 29.9414 6.47964 30.6866 7.49101 31.3217L3.26661 35.5491C2.85374 35.9616 2.62179 36.5212 2.62179 37.1049C2.62179 37.6887 2.85374 38.2486 3.26661 38.6611L5.34205 40.7362C5.75459 41.1491 6.31415 41.381 6.89788 41.381C7.48161 41.381 8.0415 41.1491 8.45404 40.7362L15.4054 33.7848H15.4736C15.6404 33.7828 15.8059 33.7519 15.962 33.6939C16.0167 33.6898 16.0704 33.6791 16.1227 33.6623C19.3116 32.3482 21.8838 32.0491 24.2181 32.7251C24.9559 32.9396 25.6621 33.2511 26.318 33.6512C26.3489 33.9869 26.4952 34.3014 26.7326 34.5408L35.5472 43.3548C36.4062 44.2134 37.7986 44.2134 38.6579 43.3548L40.7316 41.281C41.1442 40.8685 41.3758 40.3089 41.3758 39.7255C41.3758 39.1418 41.1442 38.5822 40.7316 38.1697L37.6186 35.062L32.9455 30.3889C33.3311 30.2637 33.7192 30.1233 34.1079 29.9636C38.0248 28.3211 41.1395 25.2058 42.7816 21.2889C43.5617 19.4266 43.9745 17.4314 43.9984 15.4123C44.0276 13.4107 43.6637 11.4226 42.9276 9.56093C41.3865 5.68597 38.3175 2.61695 34.4429 1.07522C32.5803 0.341783 30.5924 -0.021747 28.5905 0.0047709C26.5721 0.0282678 24.5769 0.440805 22.7149 1.21989C21.4985 1.72944 20.3498 2.38802 19.2955 3.18054C18.0283 2.83413 16.7226 2.6485 15.4091 2.62769C13.4072 2.59949 11.4187 2.96235 9.55604 3.69679C5.67806 5.23382 2.60769 8.30486 1.07134 12.1832C0.336556 14.0455 -0.0269736 16.0333 0.00155829 18.0352C0.0260622 20.0533 0.438264 22.0475 1.21567 23.9098C2.02296 25.8516 3.20518 27.6152 4.69455 29.0999ZM8.96929 38.1442L7.4128 36.5873C7.1211 36.3426 6.69077 36.3618 6.42224 36.6313C6.15337 36.9008 6.13557 37.3312 6.38095 37.6219L7.93778 39.1787L7.4185 39.6973C7.12781 39.9732 6.67197 39.9732 6.38095 39.6973L4.30349 37.6219C4.16587 37.4846 4.08867 37.2979 4.08867 37.1033C4.08867 36.9086 4.16587 36.7219 4.30349 36.5843L6.89419 33.9936L8.45102 35.5504C8.73869 35.8284 9.19621 35.8244 9.47884 35.5414C9.76181 35.2588 9.76584 34.8012 9.4879 34.5136L7.93107 32.9567L8.81489 32.0732C9.16667 32.2515 9.51945 32.4287 9.88533 32.5815C11.0528 33.0625 12.274 33.4022 13.5223 33.5925L8.96929 38.1442ZM18.5298 31.3378L28.7123 21.1553C28.1686 23.1485 28.1615 25.2501 28.6925 27.2467C28.9235 28.0452 29.2518 28.8126 29.67 29.5309L26.9061 32.2948C26.1884 31.8759 25.4218 31.5469 24.6236 31.3156C22.626 30.7846 20.5234 30.792 18.5298 31.3378ZM39.6948 40.2465L37.6186 42.3202C37.3323 42.6062 36.8681 42.6062 36.5818 42.3202L36.0655 41.8016L37.6186 40.2458C37.8093 40.0615 37.8858 39.7889 37.8187 39.5325C37.7516 39.276 37.5515 39.076 37.2951 39.0088C37.0386 38.9417 36.766 39.0182 36.5818 39.2089L35.0266 40.7647L31.9153 37.6534L33.4704 36.0983C33.7484 35.8106 33.7444 35.3531 33.4617 35.0704C33.1788 34.7875 32.7216 34.7834 32.4336 35.0614L30.8784 36.6165L27.7671 33.5052L30.8784 30.3939L31.9153 31.4318L30.3591 32.9869C30.1738 33.1722 30.1013 33.4421 30.1691 33.6952C30.2369 33.9483 30.4347 34.1463 30.6878 34.2141C30.9405 34.282 31.2107 34.2098 31.396 34.0245L32.9515 32.4683L36.0628 35.5797L34.5073 37.1351C34.3167 37.3191 34.2405 37.592 34.3073 37.8481C34.3744 38.1046 34.5748 38.3049 34.8312 38.3717C35.0874 38.4389 35.3603 38.3627 35.5442 38.172L37.1054 36.6165L39.6974 39.2089C39.8347 39.3469 39.9116 39.5335 39.9113 39.7282C39.9106 39.9229 39.8327 40.1092 39.6948 40.2465ZM23.2785 2.5713C24.968 1.86572 26.7775 1.49212 28.6083 1.47131C30.4192 1.44278 32.2184 1.77173 33.9025 2.43904C37.4008 3.8314 40.1717 6.60268 41.5638 10.1014C42.2297 11.7854 42.5584 13.5839 42.5318 15.3949C42.5107 17.2256 42.1374 19.0349 41.4318 20.7243C39.9385 24.283 37.1074 27.1137 33.5483 28.6065C32.9572 28.8478 32.3503 29.0482 31.732 29.206C31.5246 29.0579 31.2819 28.967 31.0281 28.9428C30.628 28.2866 30.3168 27.5807 30.102 26.8429C29.4273 24.5086 29.7257 21.9371 31.0399 18.7495C31.055 18.7005 31.0647 18.6502 31.0691 18.5992C31.1345 18.4239 31.1661 18.2376 31.1614 18.0507C31.0973 16.1471 30.6891 14.271 29.956 12.5131C28.3166 8.59521 25.2016 5.47987 21.2843 3.84046C21.2041 3.80757 21.1222 3.78474 21.0413 3.75319C21.7516 3.29533 22.5001 2.89992 23.2785 2.5713ZM2.43583 12.7219C3.82281 9.22157 6.59544 6.44995 10.0965 5.06431C11.7255 4.42117 13.4612 4.09255 15.2127 4.09658H15.3923C17.2227 4.11806 19.0323 4.49132 20.7217 5.19623C24.2795 6.68727 27.1088 9.5173 28.5992 13.0754C29.2659 14.6712 29.6351 16.375 29.6881 18.1034L18.8276 28.9693L18.8195 28.9744L18.8145 28.9817L15.4779 32.3183L15.4742 32.3233C13.7472 32.2656 12.045 31.895 10.4499 31.23C6.88982 29.739 4.05845 26.9076 2.56775 23.3472C1.86385 21.6574 1.49025 19.8482 1.4681 18.0178C1.44158 16.2062 1.77053 14.407 2.43583 12.7219Z" fill="#31A590"/>
<path d="M25.894 14.2008C26.3099 15.2011 26.5815 16.2555 26.7006 17.3319C26.7416 17.7035 27.0551 17.9852 27.4291 17.9855C27.4562 17.9855 27.4834 17.9838 27.5103 17.9811C27.9117 17.9365 28.2014 17.576 28.1585 17.1745C28.0239 15.9591 27.7167 14.7691 27.2471 13.6399C26.5859 12.0529 25.6181 10.6115 24.399 9.39875C24.1113 9.12081 23.6541 9.12484 23.3711 9.40747C23.0882 9.69044 23.0842 10.148 23.3621 10.4356C24.4453 11.5121 25.3059 12.7917 25.894 14.2008Z" fill="#31A590"/>
<path d="M4.60135 23.2354C4.84639 23.2361 5.07565 23.1142 5.21193 22.9108C5.34855 22.7074 5.3744 22.4492 5.28108 22.2227C4.94541 21.4063 4.70541 20.5537 4.56611 19.682L4.52146 16.3089C4.63626 15.4512 4.85277 14.6107 5.16662 13.8048C5.26497 13.5607 5.22503 13.2825 5.06189 13.076C4.89876 12.8696 4.63761 12.7665 4.37746 12.8055C4.11732 12.8447 3.89813 13.0203 3.8028 13.2657C3.20732 14.7715 2.9126 16.3793 2.93476 17.9983C2.95456 19.6417 3.29023 21.266 3.9233 22.7829C4.03676 23.0571 4.30462 23.2357 4.60135 23.2354Z" fill="#31A590"/>
<path d="M39.117 20.5571C39.4912 20.7125 39.9202 20.5349 40.0756 20.161C40.7087 18.6444 41.0444 17.0204 41.0645 15.377C41.0887 13.7557 40.7946 12.1455 40.1995 10.6374C40.1042 10.392 39.885 10.2161 39.6248 10.1772C39.3647 10.1379 39.1035 10.2413 38.9404 10.4477C38.7773 10.6541 38.7373 10.9321 38.8357 11.1761C39.1495 11.9824 39.3664 12.8232 39.4808 13.6812L39.4362 17.054C39.2969 17.9261 39.0569 18.779 38.7212 19.5957C38.6457 19.7756 38.645 19.9784 38.7192 20.1586C38.7937 20.3392 38.9367 20.4825 39.117 20.5571Z" fill="#31A590"/>
<path d="M17.5996 39.6016C17.5996 42.0315 19.5697 44.0012 21.9996 44.0012C24.4295 44.0012 26.3992 42.0315 26.3992 39.6016C26.3992 37.1717 24.4295 35.2017 21.9996 35.2017C19.5707 35.2043 17.6023 37.1727 17.5996 39.6016ZM24.9326 39.6016C24.9326 41.2215 23.6195 42.5347 21.9996 42.5347C20.3796 42.5347 19.0661 41.2215 19.0661 39.6016C19.0661 37.9817 20.3796 36.6682 21.9996 36.6682C23.6195 36.6682 24.9326 37.9817 24.9326 39.6016Z" fill="#31A590"/>
<path d="M20.7461 38.3476C20.5346 38.5574 20.4712 38.8743 20.5853 39.1495C20.6995 39.4244 20.969 39.6033 21.2667 39.6016C21.3161 39.6003 21.3651 39.5953 21.4134 39.5869C21.4594 39.5788 21.5037 39.5641 21.5453 39.5429C21.592 39.5268 21.6366 39.5046 21.6773 39.4768C21.7159 39.4499 21.7525 39.4204 21.7874 39.3888C22.075 39.1012 22.075 38.6353 21.7874 38.3476C21.5 38.0599 21.0338 38.0599 20.7461 38.3476Z" fill="#31A590"/>
</g>
<defs>
<clipPath id="clip0_435_2616">
<rect width="44" height="44" fill="white"/>
</clipPath>
</defs>
</svg>
