<svg width="46" height="46" viewBox="0 0 46 46" fill="none" xmlns="http://www.w3.org/2000/svg">
<path d="M43.5311 44.6714H43.5341C43.9219 44.6714 44.2751 44.4434 44.4347 44.0898C44.5946 43.7352 44.5312 43.3182 44.2729 43.0274L41.6221 40.0419C40.9242 39.2217 39.7582 38.9686 38.7827 39.4265C38.4383 39.5882 38.1336 39.8332 37.9019 40.1349L37.6911 40.4092L36.3685 40.6455L31.9489 39.4001C30.3743 38.9564 28.7051 38.9401 27.1217 39.3533L26.7605 39.4476L22.6717 35.148C22.5192 33.7849 21.9027 32.5169 20.9186 31.5531L20.2833 30.9309C19.8512 28.6916 20.4632 26.3365 21.9404 24.5918L22.3481 24.1104C22.9887 23.4097 23.3939 22.5117 23.4898 21.5605L24.1717 21.6631L24.1129 21.889C23.9277 22.601 23.9043 23.3589 24.0453 24.0811C24.3786 25.7886 25.604 27.2111 27.2435 27.7935L27.6107 27.9239C27.6891 27.9517 27.7704 27.9653 27.8511 27.9653C28.0303 27.9653 28.2064 27.8981 28.3418 27.7718C28.538 27.5885 28.6156 27.3113 28.5433 27.0527L28.1235 25.5537C27.8887 24.715 28.0357 23.8216 28.5269 23.1024C29.1736 22.1553 29.2274 20.9454 28.6673 19.9447L28.5089 19.6617C28.6424 19.3107 28.7137 18.9349 28.7137 18.5506C28.7137 17.3672 28.0271 16.2658 26.9647 15.7448L26.5073 15.5204L25.7197 15.0551L24.7822 14.0749L25.5229 13.1424C25.9227 12.6389 26.2149 12.0437 26.3688 11.4194L27.8384 6.84654L29.2707 5.8094C29.4063 5.71122 29.5034 5.56882 29.5452 5.40668L30.2304 2.749C30.2795 2.5587 30.2485 2.35664 30.1446 2.18985C30.0408 2.02298 29.8732 1.90593 29.6808 1.86592L26.6435 1.23412C26.3185 1.16578 25.9894 1.33019 25.8474 1.63043L24.3734 4.74707L20.4951 11.6263C20.1968 12.1554 19.9893 12.7266 19.8782 13.3238L18.9977 18.0612L15.8095 19.0028C14.3416 19.4363 13.3724 20.8578 13.505 22.3827L13.6066 23.5517L13.5144 24.002C13.0816 26.115 13.0753 28.3279 13.489 30.4476L8.30305 28.7401C7.57018 28.4989 6.77049 28.5202 6.05227 28.7997L6.01314 28.8149C4.42052 29.435 3.52573 31.0954 3.88558 32.763C4.42578 35.266 5.2521 39.117 5.55018 40.5071L3.87829 41.4257C3.18538 41.8064 2.87295 42.6239 3.13515 43.3691L3.14125 43.3865C3.37129 44.0402 3.98849 44.4783 4.67838 44.4783H4.6846C5.38672 44.4757 6.5257 44.475 7.39707 44.4748C8.40219 44.4746 9.33209 43.9731 9.88506 43.1326L9.89843 43.1122C10.2869 42.5217 10.4589 41.8115 10.3828 41.1125C10.2468 39.8644 9.98767 37.4797 9.81824 35.9206C11.0673 36.6936 12.364 37.4006 13.6868 38.0293L14.3902 38.3635L23.3672 43.7386C24.2431 44.2631 25.2457 44.5455 26.2664 44.5552L43.5311 44.6714ZM38.2179 41.7754C38.3942 41.7439 38.5524 41.6478 38.6615 41.5058L39.0419 41.0106C39.1344 40.8901 39.256 40.7923 39.3936 40.7277C39.7842 40.5445 40.2516 40.6467 40.5299 40.9766C40.5339 40.9811 40.5378 40.9857 40.5417 40.9902L42.5313 43.2309L36.9617 43.2143L37.0221 41.989L38.2179 41.7754ZM14.8366 24.7521L18.9791 27.3198C18.7138 28.3889 18.6414 29.5059 18.778 30.6105L15.0312 30.783C14.5601 28.8186 14.4946 26.7447 14.8366 24.7521ZM27.3398 22.2917C26.6199 23.3459 26.3966 24.6515 26.7235 25.8832C26.0769 25.3699 25.6181 24.6352 25.4561 23.8056C25.3561 23.2935 25.3728 22.7559 25.5041 22.2509L25.6187 21.8102C26.298 21.7686 26.9508 21.5063 27.4747 21.0517L27.5527 20.984C27.6789 21.4244 27.6067 21.9009 27.3398 22.2917ZM25.8616 18.6091L26.5137 17.1403C26.9824 17.4493 27.2762 17.9821 27.2762 18.5506C27.2762 19.0399 27.0643 19.5046 26.6947 19.8253L26.5325 19.966C26.159 20.2902 25.6645 20.4338 25.1752 20.3603L23.6079 20.1245L23.6697 19.3586L25.3461 19.0222C25.5747 18.9763 25.7669 18.8224 25.8616 18.6091ZM25.249 16.4466L24.6987 17.686L23.79 17.8683L23.9948 15.3314L24.7494 16.1203C24.7948 16.1678 24.8466 16.2088 24.9031 16.2422L25.249 16.4466ZM21.2915 13.5866C21.3736 13.1453 21.5269 12.7232 21.7473 12.3323L25.6382 5.43063C25.6466 5.41572 25.6545 5.40046 25.6619 5.38501L26.9049 2.75673L28.6503 3.11979L28.2179 4.79699L26.8046 5.82037C26.6808 5.91003 26.5887 6.03699 26.5419 6.18264C26.5419 6.18264 24.9819 11.039 24.9776 11.0567C24.8741 11.4885 24.6735 11.9006 24.3972 12.2483L22.7569 14.3136C22.6682 14.4252 22.6148 14.5607 22.6033 14.7028L22.0661 21.3586C22.0144 22.0001 21.7527 22.6086 21.3331 23.0888C21.3205 23.1016 21.0762 23.3543 20.9678 23.4421C20.4681 23.8472 19.758 23.9033 19.2009 23.5819C18.7174 23.3029 18.4173 22.7828 18.4177 22.2244L18.418 21.8813C18.4182 21.5352 18.5354 21.1941 18.7481 20.9208C18.7481 20.9208 20.197 19.0581 20.2002 19.0538C20.2112 19.039 21.2915 13.5866 21.2915 13.5866ZM16.2167 20.3814L17.7629 19.7718C17.3549 20.296 16.9808 21.2165 16.9805 21.8804L16.9802 22.2233C16.9794 23.2942 17.555 24.2919 18.4826 24.8271C18.8878 25.0608 19.335 25.1904 19.7864 25.219C19.6639 25.448 19.5519 25.6822 19.4497 25.9202L15.0166 23.1724L14.9371 22.2581C14.8635 21.4114 15.4017 20.6221 16.2167 20.3814ZM8.68367 42.3433C8.39783 42.7777 7.91671 43.0373 7.39678 43.0373C6.52388 43.0375 5.3828 43.0382 4.67927 43.0408H4.67852C4.59648 43.0408 4.52537 42.9893 4.49748 42.91L4.49138 42.8926C4.46343 42.8132 4.49673 42.7261 4.57052 42.6856L6.56318 41.5908L8.9606 41.4944C8.95029 41.7866 8.86062 42.0742 8.69706 42.3228L8.68367 42.3433ZM24.1057 42.5054C24.1057 42.5054 15.0591 37.0898 15.0384 37.0799L14.3039 36.7309C12.679 35.9586 11.0946 35.0637 9.59456 34.0707L9.33762 33.9007C9.21755 33.8213 9.07932 33.7813 8.94091 33.7813C8.81155 33.7813 8.682 33.8163 8.56698 33.8863C8.32903 34.0312 8.19633 34.3007 8.22642 34.5777C8.22642 34.5777 8.58026 37.8351 8.8224 40.0613L6.94101 40.137C6.63118 38.6924 5.82243 34.9234 5.2907 32.4597C5.0807 31.4864 5.60384 30.5169 6.53395 30.1548L6.57312 30.1396C6.98193 29.9803 7.43672 29.9682 7.85353 30.1055C7.85353 30.1055 14.3519 32.2365 14.3646 32.2384C14.3734 32.2397 19.3444 32.0234 19.3444 32.0234L19.9127 32.5801C20.7079 33.3589 21.1868 34.3994 21.2613 35.51C21.2724 35.6774 21.3419 35.8356 21.4575 35.9572L26.011 40.7454C26.1912 40.9349 26.4603 41.0117 26.7133 40.9455L27.4847 40.7442C28.8211 40.3956 30.23 40.4092 31.5589 40.7837L35.5864 41.9186L35.5229 43.2055L26.2801 43.1177C25.5145 43.1104 24.7626 42.8987 24.1057 42.5054Z" fill="#31A590"/>
</svg>
