<svg width="45" height="45" viewBox="0 0 45 45" fill="none" xmlns="http://www.w3.org/2000/svg">
<mask id="mask0_435_2511" style="mask-type:luminance" maskUnits="userSpaceOnUse" x="0" y="0" width="45" height="45">
<path d="M0 -3.8147e-06H45V45H0V-3.8147e-06Z" fill="white"/>
</mask>
<g mask="url(#mask0_435_2511)">
<path fill-rule="evenodd" clip-rule="evenodd" d="M0 43.5882C0 44.3679 0.576724 45 1.2881 45H2.7119C3.42341 45 4 44.3679 4 43.5882V22.4118C4 21.6321 3.42341 21 2.7119 21H1.2881C0.576724 21 0 21.6321 0 22.4118V43.5882ZM1.2881 43.6338C1.26517 43.6338 1.24655 43.6134 1.24655 43.5882V22.4118C1.24655 22.3866 1.26517 22.3662 1.2881 22.3662H2.7119C2.73486 22.3662 2.75345 22.3866 2.75345 22.4118V43.5882C2.75345 43.6134 2.73486 43.6338 2.7119 43.6338H1.2881Z" fill="#31A590"/>
<path fill-rule="evenodd" clip-rule="evenodd" d="M40 43.5882C40 44.3679 40.7207 45 41.6101 45H43.3899C44.2791 45 45 44.3679 45 43.5882V22.4118C45 21.6321 44.2791 21 43.3899 21H41.6101C40.7207 21 40 21.6321 40 22.4118V43.5882ZM41.6101 43.6338C41.5814 43.6338 41.5582 43.6134 41.5582 43.5882V22.4118C41.5582 22.3866 41.5814 22.3662 41.6101 22.3662H43.3899C43.4185 22.3662 43.4418 22.3866 43.4418 22.4118V43.5882C43.4418 43.6134 43.4185 43.6338 43.3899 43.6338H41.6101Z" fill="#31A590"/>
<path fill-rule="evenodd" clip-rule="evenodd" d="M0 25C0 25.5523 0.279049 26 0.623273 26H3.37673C3.72095 26 4 25.5523 4 25C4 24.4477 3.72095 24 3.37673 24H0.623273C0.279049 24 0 24.4477 0 25Z" fill="#31A590"/>
<path fill-rule="evenodd" clip-rule="evenodd" d="M40 25C40 25.5523 40.3488 26 40.7791 26H44.2209C44.6512 26 45 25.5523 45 25C45 24.4477 44.6512 24 44.2209 24H40.7791C40.3488 24 40 24.4477 40 25Z" fill="#31A590"/>
<path fill-rule="evenodd" clip-rule="evenodd" d="M3 26.3767C3 26.721 3.2938 27 3.65622 27H41.3438C41.7062 27 42 26.721 42 26.3767V23.6233C42 23.279 41.7062 23 41.3438 23H38.2559C37.8934 23 37.5996 23.279 37.5996 23.6233C37.5996 23.9675 37.8934 24.2465 38.2559 24.2465H40.6876V25.7535H4.31244V24.2465H35.631C35.9934 24.2465 36.2872 23.9675 36.2872 23.6233C36.2872 23.279 35.9934 23 35.631 23H3.65622C3.2938 23 3 23.279 3 23.6233V26.3767Z" fill="#31A590"/>
<path fill-rule="evenodd" clip-rule="evenodd" d="M3 29.5C3 29.7761 3.2938 30 3.65622 30H41.3438C41.7062 30 42 29.7761 42 29.5C42 29.2239 41.7062 29 41.3438 29H3.65622C3.2938 29 3 29.2239 3 29.5Z" fill="#31A590"/>
<path fill-rule="evenodd" clip-rule="evenodd" d="M3 32.5C3 32.7761 3.2938 33 3.65622 33H41.3438C41.7062 33 42 32.7761 42 32.5C42 32.2239 41.7062 32 41.3438 32H3.65622C3.2938 32 3 32.2239 3 32.5Z" fill="#31A590"/>
<path fill-rule="evenodd" clip-rule="evenodd" d="M3 35.5C3 35.7761 3.2938 36 3.65622 36H41.3438C41.7062 36 42 35.7761 42 35.5C42 35.2239 41.7062 35 41.3438 35H3.65622C3.2938 35 3 35.2239 3 35.5Z" fill="#31A590"/>
<path fill-rule="evenodd" clip-rule="evenodd" d="M3 38.5C3 38.7761 3.2938 39 3.65622 39H41.3438C41.7062 39 42 38.7761 42 38.5C42 38.2239 41.7062 38 41.3438 38H3.65622C3.2938 38 3 38.2239 3 38.5Z" fill="#31A590"/>
<path fill-rule="evenodd" clip-rule="evenodd" d="M6.5 39C6.77614 39 7 38.7041 7 38.3391V26.6609C7 26.2959 6.77614 26 6.5 26C6.22386 26 6 26.2959 6 26.6609V38.3391C6 38.7041 6.22386 39 6.5 39Z" fill="#31A590"/>
<path fill-rule="evenodd" clip-rule="evenodd" d="M9.5 39C9.77614 39 10 38.7041 10 38.3391V26.6609C10 26.2959 9.77614 26 9.5 26C9.22386 26 9 26.2959 9 26.6609V38.3391C9 38.7041 9.22386 39 9.5 39Z" fill="#31A590"/>
<path fill-rule="evenodd" clip-rule="evenodd" d="M12 39C12.5523 39 13 38.7041 13 38.3391V26.6609C13 26.2959 12.5523 26 12 26C11.4477 26 11 26.2959 11 26.6609V38.3391C11 38.7041 11.4477 39 12 39Z" fill="#31A590"/>
<path fill-rule="evenodd" clip-rule="evenodd" d="M15 39C15.5523 39 16 38.7041 16 38.3391V26.6609C16 26.2959 15.5523 26 15 26C14.4477 26 14 26.2959 14 26.6609V38.3391C14 38.7041 14.4477 39 15 39Z" fill="#31A590"/>
<path fill-rule="evenodd" clip-rule="evenodd" d="M18 39C18.5523 39 19 38.7041 19 38.3391V26.6609C19 26.2959 18.5523 26 18 26C17.4477 26 17 26.2959 17 26.6609V38.3391C17 38.7041 17.4477 39 18 39Z" fill="#31A590"/>
<path fill-rule="evenodd" clip-rule="evenodd" d="M21 39C21.5523 39 22 38.7041 22 38.3391V26.6609C22 26.2959 21.5523 26 21 26C20.4477 26 20 26.2959 20 26.6609V38.3391C20 38.7041 20.4477 39 21 39Z" fill="#31A590"/>
<path fill-rule="evenodd" clip-rule="evenodd" d="M24 39C24.5523 39 25 38.7041 25 38.3391V26.6609C25 26.2959 24.5523 26 24 26C23.4477 26 23 26.2959 23 26.6609V38.3391C23 38.7041 23.4477 39 24 39Z" fill="#31A590"/>
<path fill-rule="evenodd" clip-rule="evenodd" d="M26.5 39C26.7761 39 27 38.7041 27 38.3391V26.6609C27 26.2959 26.7761 26 26.5 26C26.2239 26 26 26.2959 26 26.6609V38.3391C26 38.7041 26.2239 39 26.5 39Z" fill="#31A590"/>
<path fill-rule="evenodd" clip-rule="evenodd" d="M29.5 39C29.7761 39 30 38.7041 30 38.3391V26.6609C30 26.2959 29.7761 26 29.5 26C29.2239 26 29 26.2959 29 26.6609V38.3391C29 38.7041 29.2239 39 29.5 39Z" fill="#31A590"/>
<path fill-rule="evenodd" clip-rule="evenodd" d="M32 39C32.5523 39 33 38.7041 33 38.3391V26.6609C33 26.2959 32.5523 26 32 26C31.4477 26 31 26.2959 31 26.6609V38.3391C31 38.7041 31.4477 39 32 39Z" fill="#31A590"/>
<path fill-rule="evenodd" clip-rule="evenodd" d="M35 39C35.5523 39 36 38.7041 36 38.3391V26.6609C36 26.2959 35.5523 26 35 26C34.4477 26 34 26.2959 34 26.6609V38.3391C34 38.7041 34.4477 39 35 39Z" fill="#31A590"/>
<path fill-rule="evenodd" clip-rule="evenodd" d="M38 39C38.5523 39 39 38.7041 39 38.3391V26.6609C39 26.2959 38.5523 26 38 26C37.4477 26 37 26.2959 37 26.6609V38.3391C37 38.7041 37.4477 39 38 39Z" fill="#31A590"/>
<path fill-rule="evenodd" clip-rule="evenodd" d="M22 11.4079C22.0782 11.816 22.4252 12.0728 22.7752 11.9816L22.6336 11.2428C22.7752 11.9816 22.7754 11.9815 22.7757 11.9815L22.7764 11.9813L22.7782 11.9808L22.7832 11.9795C22.7872 11.9784 22.7926 11.9769 22.7992 11.9751C22.8124 11.9715 22.8308 11.9663 22.8541 11.9594C22.9006 11.9458 22.9666 11.9256 23.05 11.8981C23.2168 11.843 23.4534 11.7585 23.7426 11.6381C24.3203 11.3974 25.112 11.0115 25.9772 10.427C27.7055 9.25939 29.7548 7.27964 30.9468 4.05698C31.0887 3.67309 30.937 3.22766 30.6077 3.06209C30.2785 2.89652 29.8965 3.0735 29.7545 3.45739C28.7056 6.29331 26.8963 8.05638 25.3263 9.11697C24.5424 9.64658 23.825 9.99607 23.3058 10.2123C23.0466 10.3203 22.8379 10.3946 22.6965 10.4413C22.6258 10.4646 22.572 10.481 22.5372 10.4912C22.5198 10.4963 22.5071 10.4999 22.4995 10.502C22.4957 10.5031 22.4931 10.5038 22.4919 10.5041C22.4915 10.5042 22.4912 10.5043 22.4911 10.5043C22.4911 10.5043 22.4911 10.5043 22.4911 10.5043C22.491 10.5043 22.491 10.5043 22.4909 10.5043L22.4915 10.5042" fill="#31A590"/>
<path fill-rule="evenodd" clip-rule="evenodd" d="M25.7065 9.89032C26.0122 9.69318 26.092 9.29769 25.8847 9.00697L25.3312 9.36393C25.8847 9.00697 25.8845 9.00671 25.8843 9.00642L25.8838 9.00574L25.8825 9.00397L25.8788 8.99882C25.8758 8.99469 25.8718 8.98914 25.8667 8.98224C25.8566 8.96845 25.8422 8.94922 25.8238 8.92498C25.7869 8.87651 25.7335 8.80792 25.6637 8.72249C25.5242 8.55172 25.319 8.31314 25.05 8.03312C24.5128 7.474 23.7158 6.74443 22.673 6.05967C20.5823 4.68687 17.4855 3.48578 13.5395 4.22579C13.1771 4.29374 12.9413 4.62819 13.0128 4.97282C13.0842 5.31744 13.4358 5.54173 13.7982 5.47378C17.3003 4.81702 20.0347 5.87301 21.9132 7.10647C22.8549 7.72484 23.577 8.3857 24.0628 8.89122C24.3052 9.14353 24.4874 9.35583 24.6075 9.50285C24.6675 9.57632 24.7119 9.63336 24.7404 9.67079C24.7546 9.6895 24.7649 9.7033 24.7711 9.71178C24.7743 9.71603 24.7764 9.71894 24.7775 9.72047L24.7778 9.72088C24.7779 9.72102 24.778 9.72116 24.7781 9.7213C24.7782 9.72139 24.7782 9.72148 24.7783 9.72157C24.7783 9.72159 24.7783 9.7216 24.7783 9.72161C24.9858 10.0117 25.4011 10.0873 25.7065 9.89032Z" fill="#31A590"/>
<path fill-rule="evenodd" clip-rule="evenodd" d="M27.6975 7.90963C27.9873 7.72418 28.0861 7.31438 27.9182 6.99432L27.3935 7.33011C27.9182 6.99432 27.918 6.99404 27.9179 6.99373L27.9175 6.993L27.9165 6.99112L27.9136 6.98566C27.9113 6.98127 27.9081 6.9754 27.9041 6.9681C27.8962 6.9535 27.8851 6.93316 27.8706 6.90749C27.8418 6.85616 27.8 6.78345 27.7451 6.69259C27.6355 6.51095 27.4735 6.25626 27.2589 5.95449C26.8305 5.35189 26.1888 4.55611 25.3321 3.77894C23.6159 2.22217 21.0182 0.726352 17.5564 1.04265C17.2227 1.07315 16.9745 1.39672 17.0021 1.76537C17.0297 2.13402 17.3227 2.40814 17.6564 2.37765C20.7207 2.09766 23.0164 3.41183 24.5623 4.81411C25.3366 5.51647 25.9181 6.23748 26.305 6.78179C26.4982 7.05347 26.6419 7.27977 26.7361 7.43576C26.7832 7.51371 26.8178 7.57397 26.8399 7.6134C26.851 7.63312 26.8589 7.64761 26.8637 7.6565C26.8661 7.66094 26.8678 7.66398 26.8686 7.66556L26.8688 7.6659C26.8689 7.66605 26.869 7.6662 26.869 7.66635C26.8691 7.66645 26.8691 7.66655 26.8692 7.66665C26.8692 7.6667 26.8692 7.66674 26.8693 7.66679C27.0374 7.98617 27.408 8.09492 27.6975 7.90963Z" fill="#31A590"/>
<path fill-rule="evenodd" clip-rule="evenodd" d="M21.8441 11.741C22.0932 12.0671 22.5141 12.0881 22.7847 11.7877C23.0556 11.4871 23.0732 10.9782 22.8242 10.6512L22.3619 11.1645C22.8242 10.6512 22.824 10.651 22.8238 10.6507L22.8233 10.6501L22.822 10.6484L22.8184 10.6437C22.8156 10.64 22.8117 10.635 22.8069 10.6289C22.7973 10.6166 22.7839 10.5997 22.7668 10.5783C22.7325 10.5357 22.6833 10.4755 22.6195 10.4006C22.4919 10.2509 22.306 10.0418 22.0657 9.79541C21.5858 9.30329 20.8852 8.65869 19.9956 8.04079C18.2183 6.80642 15.6573 5.65951 12.5887 6.09374C12.2233 6.14545 11.9618 6.54504 12.0046 6.98625C12.0474 7.42746 12.3784 7.74321 12.7438 7.6915C15.4441 7.30937 17.7169 8.31398 19.3312 9.43522C20.1373 9.99511 20.772 10.5793 21.2033 11.0216C21.4186 11.2424 21.5824 11.4269 21.6906 11.5539C21.7447 11.6174 21.7848 11.6664 21.8104 11.6984C21.8233 11.7143 21.8325 11.726 21.838 11.7331C21.8407 11.7366 21.8426 11.739 21.8435 11.7402L21.8437 11.7405C21.8436 11.7403 21.8434 11.7401 22.3338 11.1957L21.8434 11.7401C21.8436 11.7404 21.8439 11.7407 21.8441 11.741Z" fill="#31A590"/>
<path fill-rule="evenodd" clip-rule="evenodd" d="M21.7776 20.8445C22.0481 20.6157 22.0757 20.2181 21.8393 19.9563C19.5544 17.4264 19.1597 14.6747 19.3386 12.5331C19.4282 11.4594 19.6623 10.5437 19.8738 9.89756C19.9794 9.57509 20.0787 9.32145 20.1506 9.15081C20.1864 9.06554 20.2154 9.00114 20.2347 8.9594C20.2443 8.93853 20.2516 8.92334 20.256 8.91405C20.2583 8.90941 20.2598 8.90624 20.2606 8.90457L20.2609 8.90412C20.2609 8.90397 20.261 8.90383 20.2611 8.90368C20.2611 8.90358 20.2612 8.90348 20.2612 8.90338C20.2612 8.90335 20.2613 8.90332 20.2613 8.90329C20.4173 8.59062 20.2822 8.21465 19.9592 8.06316C19.6359 7.91155 19.2469 8.04224 19.0902 8.35507L19.6755 8.62959C19.0902 8.35507 19.0901 8.35535 19.0899 8.35566L19.0895 8.35639L19.0886 8.3583L19.0858 8.36388C19.0836 8.36837 19.0807 8.3744 19.077 8.38196C19.0698 8.39706 19.0597 8.41825 19.0472 8.44528C19.0222 8.49933 18.9875 8.57684 18.9457 8.67599C18.8623 8.87421 18.7508 9.15951 18.6336 9.51739C18.3997 10.232 18.1412 11.2427 18.0419 12.4317C17.8428 14.8153 18.2852 17.9342 20.8598 20.7848C21.0962 21.0465 21.5071 21.0733 21.7776 20.8445Z" fill="#31A590"/>
<path fill-rule="evenodd" clip-rule="evenodd" d="M17.6528 19.8851C18.019 19.6824 18.11 19.2809 17.8562 18.9884C15.5262 16.303 15.37 13.5579 15.8044 11.4606C16.022 10.4101 16.3873 9.52807 16.6976 8.91007C16.8525 8.60161 16.993 8.36046 17.093 8.19875C17.143 8.11793 17.1829 8.0571 17.2093 8.01775C17.2225 7.99808 17.2323 7.9838 17.2384 7.97509C17.2396 7.97334 17.2406 7.97183 17.2415 7.97053C17.2429 7.96859 17.2439 7.96716 17.2446 7.96623L17.2448 7.9659C17.2449 7.96575 17.245 7.96561 17.2451 7.96547C17.2452 7.96537 17.2453 7.96527 17.2453 7.96517C17.2454 7.96512 17.2454 7.96507 17.2454 7.96502C17.4667 7.65664 17.3336 7.26326 16.9478 7.08595C16.5617 6.90847 16.0686 7.01469 15.8464 7.32319L16.5456 7.64455C15.8464 7.32319 15.8462 7.32347 15.846 7.32376L15.8442 7.32629L15.8404 7.33159C15.8374 7.33585 15.8334 7.34157 15.8284 7.34873C15.8184 7.36304 15.8047 7.3831 15.7875 7.40872C15.7531 7.45993 15.7051 7.53341 15.6468 7.6276C15.5303 7.81591 15.3724 8.08755 15.2004 8.43018C14.8568 9.11437 14.4536 10.0878 14.2128 11.2501C13.7305 13.5785 13.8981 16.6889 16.5303 19.7226C16.7841 20.0151 17.2867 20.0879 17.6528 19.8851Z" fill="#31A590"/>
<path fill-rule="evenodd" clip-rule="evenodd" d="M24.6939 20.8736C25.0305 20.6632 25.1002 20.2635 24.8495 19.9809C22.9972 17.8929 22.5231 15.6097 22.5199 13.8263C22.5182 12.9358 22.6343 12.1778 22.7501 11.6447C22.808 11.3786 22.8655 11.1696 22.9077 11.0295C22.9288 10.9595 22.9461 10.9068 22.9576 10.8729C22.9633 10.8559 22.9676 10.8436 22.9702 10.8363C22.9716 10.8326 22.9725 10.8301 22.9729 10.8289L22.973 10.8286C22.9731 10.8284 22.9731 10.8282 22.9732 10.8281C23.098 10.4921 22.8751 10.1347 22.475 10.0294C22.0745 9.92399 21.6481 10.1111 21.5226 10.4474L22.2477 10.6382C21.5226 10.4474 21.5225 10.4476 21.5224 10.4479L21.5221 10.4486L21.5215 10.4503L21.5197 10.4551C21.5183 10.459 21.5164 10.4641 21.5142 10.4705C21.5096 10.4834 21.5034 10.5012 21.4957 10.5239C21.4803 10.5692 21.4592 10.6339 21.4343 10.7165C21.3845 10.8817 21.3195 11.1187 21.255 11.4157C21.1261 12.0089 20.9982 12.8455 21 13.8283C21.0036 15.7916 21.5257 18.3703 23.6306 20.7431C23.8813 21.0256 24.3574 21.0841 24.6939 20.8736Z" fill="#31A590"/>
<path fill-rule="evenodd" clip-rule="evenodd" d="M11.2241 12.6785C12.2758 17.4319 16.6969 21 21.9933 21C28.0722 21 33 16.299 33 10.5C33 4.70101 28.0722 0 21.9933 0C16.1032 0 11.2941 4.41345 11.0009 9.96329C10.9823 10.3151 11.2662 10.6147 11.635 10.6324C12.0038 10.6501 12.3178 10.3793 12.3364 10.0275C12.5939 5.15291 16.8192 1.27565 21.9933 1.27565C27.3336 1.27565 31.6628 5.40553 31.6628 10.5C31.6628 15.5945 27.3336 19.7244 21.9933 19.7244C17.3419 19.7244 13.4563 16.5906 12.5325 12.4151C12.4562 12.0704 12.1015 11.85 11.7402 11.9227C11.3789 11.9955 11.1478 12.3338 11.2241 12.6785Z" fill="#31A590"/>
</g>
</svg>
