<svg width="43" height="43" viewBox="0 0 43 43" fill="none" xmlns="http://www.w3.org/2000/svg">
<path d="M38.9688 38.3815V30.9062C38.9688 28.6716 37.2225 26.7971 34.9939 26.6372L29.5081 26.2455L28.9081 19.6517L33.4883 12.4545C33.546 12.3638 33.581 12.261 33.5904 12.1542L34.2656 4.70312C34.2656 2.47989 32.4576 0.671875 30.2344 0.671875C29.1231 0.671875 28.2188 1.57622 28.2188 2.6875C28.2188 3.77527 29.0848 4.66483 30.1645 4.70178L29.6008 10.3334L24.8594 12.9679V12.5889C26.0761 11.7377 26.875 10.3287 26.875 8.73505V7.3913C26.875 4.79786 24.7646 2.68817 22.1719 2.68817C19.5791 2.68817 17.4688 4.79786 17.4688 7.3913V8.73505C17.4688 10.6062 18.57 12.2214 20.1562 12.9779V13.4879L12.2624 14.0953L8.21502 11.565C7.69834 11.2418 7.39062 10.6862 7.39062 10.0781C7.39062 8.96684 6.48628 8.0625 5.375 8.0625C4.26372 8.0625 3.35938 8.96684 3.35938 10.0781C3.35938 12.4183 4.4075 14.5992 6.23433 16.0605L10.3301 19.3366C10.402 19.3937 10.4846 19.436 10.5733 19.4602L17.5225 21.3555L18.0775 26.3442L9.26516 28.2335C9.05956 28.2779 8.88689 28.4156 8.79753 28.6064L4.25834 38.3338C2.98716 38.5468 2.01562 39.6541 2.01562 40.9844V41.6562C2.01562 42.0271 2.31595 42.3281 2.6875 42.3281H7.38995C7.61033 42.3281 7.81727 42.22 7.94223 42.0385L13.8326 33.5313L24.205 31.5862L33.6341 32.8439L34.2663 41.7046C34.2918 42.056 34.5848 42.3281 34.9368 42.3281H40.3125C40.684 42.3281 40.9844 42.0271 40.9844 41.6562V40.9844C40.9844 39.7347 40.1271 38.6812 38.9688 38.3815ZM29.5625 2.6875C29.5625 2.3173 29.8635 2.01562 30.2344 2.01562C31.4968 2.01562 32.5517 2.89309 32.8399 4.03125H31.5674C31.5667 3.86597 31.5163 3.70405 31.4041 3.58042C31.2771 3.44 31.0957 3.35938 30.9062 3.35938H30.2344C29.8635 3.35938 29.5625 3.0577 29.5625 2.6875ZM30.5602 11.3372C30.7531 11.2304 30.8814 11.0362 30.9029 10.8172L31.4471 5.375H32.858L32.2681 11.8707L27.6524 19.1236C27.5731 19.2492 27.5368 19.397 27.5502 19.5448L28.1549 26.2031H24.7888L23.5633 15.173L24.4878 14.7107C24.4966 14.706 24.5033 14.6986 24.512 14.6939L24.5134 14.6966L30.5602 11.3372ZM22.1719 4.03125C24.0242 4.03125 25.5312 5.53827 25.5312 7.39062V8.73438C25.5312 9.68642 25.1295 10.5424 24.4912 11.1545L23.5156 9.85439V7.39062C23.5156 7.01975 23.2153 6.71875 22.8438 6.71875H18.8804C19.1928 5.18755 20.55 4.03125 22.1719 4.03125ZM18.8125 8.73438V8.0625H22.1719V10.0781C22.1719 10.2233 22.2189 10.365 22.3062 10.4812L23.3477 11.87C22.9808 12.0084 22.5871 12.0938 22.1719 12.0938C20.3195 12.0938 18.8125 10.5867 18.8125 8.73438ZM22.1719 13.4375C22.6388 13.4375 23.0897 13.367 23.5156 13.2393V13.6942L22.792 14.0563L21.5 13.625V13.3837C21.7204 13.4153 21.9434 13.4375 22.1719 13.4375ZM5.375 9.40625C5.74587 9.40625 6.04688 9.70792 6.04688 10.0781C6.04688 10.8669 6.3425 11.6046 6.8585 12.167L5.32662 12.8234C4.92081 11.9795 4.70312 11.0456 4.70312 10.0781C4.70312 9.70792 5.00413 9.40625 5.375 9.40625ZM11.0611 18.2011L7.07417 15.0117C6.68852 14.7033 6.34586 14.3546 6.04822 13.9757L8.11827 13.0888L11.7377 15.351C11.8593 15.4269 11.997 15.4619 12.1455 15.4511L20.7441 14.79L22.2229 15.2831L23.437 26.2031H19.4138L18.8085 20.7542C18.7776 20.4801 18.5834 20.2523 18.3173 20.1804L11.0611 18.2011ZM7.03856 40.9844H3.35938C3.35938 40.2433 3.96205 39.6406 4.70312 39.6406H7.96844L7.03856 40.9844ZM34.3543 31.5842L24.2762 30.2404C24.205 30.231 24.1344 30.233 24.0639 30.2458L13.3139 32.2614C13.1399 32.2937 12.9867 32.3938 12.8852 32.5396L8.89898 38.2969H5.75797L9.87388 29.4778L18.8844 27.5469H28.8651L34.8979 27.9775C36.427 28.0871 37.625 29.3737 37.625 30.9062V38.2969H35.3709L34.9355 32.2023C34.9133 31.8845 34.6708 31.6258 34.3543 31.5842ZM35.563 40.9844L35.4669 39.6406H38.2969C39.038 39.6406 39.6406 40.2433 39.6406 40.9844H35.563Z" fill="#31A590"/>
</svg>
