<svg width="46" height="46" viewBox="0 0 46 46" fill="none" xmlns="http://www.w3.org/2000/svg">
<path d="M2.87435 31.496C3.18724 31.494 3.49979 31.517 3.80901 31.5648C3.83393 31.5719 3.85913 31.5753 3.88453 31.5804C4.54552 31.7136 5.17458 31.9732 5.73718 32.3448C6.87441 33.0992 8.21501 33.4881 9.57942 33.4595C10.9298 33.4916 12.2577 33.1102 13.3852 32.3664C13.3978 32.3598 13.41 32.3533 13.4225 32.3458C14.2633 31.7683 15.2648 31.471 16.2845 31.496C17.3066 31.473 18.3104 31.7698 19.1558 32.3448C20.2894 33.0999 21.6274 33.489 22.9891 33.4595C24.3534 33.4855 25.6936 33.0972 26.8327 32.3458C27.6734 31.7683 28.6749 31.471 29.6946 31.496C30.7229 31.4741 31.7324 31.7741 32.5817 32.3542C33.7163 33.1018 35.0511 33.4872 36.4095 33.4595C37.3248 33.4797 38.2344 33.31 39.081 32.9611C39.4842 32.783 39.8748 32.5775 40.2501 32.3462C41.1001 31.7784 42.1023 31.4819 43.1244 31.496C43.3785 31.496 43.6223 31.3951 43.802 31.2153C43.9817 31.0356 44.0827 30.7919 44.0827 30.5377C44.0827 30.2835 43.9817 30.0398 43.802 29.86C43.6223 29.6803 43.3785 29.5794 43.1244 29.5794C42.7518 29.5749 42.3794 29.6012 42.0112 29.6579C41.0372 29.8032 40.1059 30.1565 39.2808 30.6939C38.976 30.8825 38.659 31.0507 38.332 31.1974C37.7226 31.4461 37.0676 31.5637 36.4098 31.5424C35.3785 31.5684 34.3655 31.2666 33.5165 30.6805C32.7124 30.1614 31.809 29.8154 30.8638 29.6646L22.9671 18.1325L33.0858 13.0677C33.5309 12.8453 33.9217 12.528 34.2308 12.138C34.5398 11.7481 34.7595 11.2951 34.8743 10.811C34.9891 10.3269 34.9963 9.82352 34.8953 9.33635C34.7943 8.84918 34.5876 8.39011 34.2898 7.99156C33.8121 7.37525 33.1402 6.93845 32.3831 6.75208C31.626 6.56571 30.8281 6.64071 30.119 6.9649L16.1384 13.5825C15.6526 13.8127 15.2196 14.1408 14.8665 14.5463C14.5134 14.9517 14.2479 15.4258 14.0867 15.9386C13.9255 16.4515 13.8719 16.9922 13.9295 17.5267C13.987 18.0613 14.1544 18.5782 14.4211 19.045L16.2793 22.3495L3.88367 29.6456C3.54898 29.602 3.21186 29.5799 2.87435 29.5794C2.62018 29.5794 2.37643 29.6803 2.1967 29.86C2.01698 30.0398 1.91602 30.2835 1.91602 30.5377C1.91602 30.7919 2.01698 31.0356 2.1967 31.2153C2.37643 31.3951 2.62018 31.496 2.87435 31.496ZM17.2563 23.9977C17.6953 23.7386 18.0143 23.317 18.1444 22.8242C18.2745 22.3314 18.2051 21.8072 17.9512 21.3652L16.0842 18.0924C15.9488 17.8549 15.8639 17.592 15.8348 17.3201C15.8058 17.0482 15.8332 16.7733 15.9153 16.5125C15.9975 16.2518 16.1326 16.0108 16.3122 15.8047C16.4919 15.5985 16.7122 15.4318 16.9593 15.3148L30.9369 8.6991C31.1887 8.57741 31.47 8.52994 31.7478 8.56224C32.0255 8.59454 32.2884 8.70528 32.5055 8.88151C32.7227 9.05773 32.8852 9.29215 32.974 9.55733C33.0627 9.82252 33.0742 10.1075 33.0069 10.379C32.9582 10.5888 32.8631 10.7851 32.7287 10.9535C32.5943 11.1219 32.4239 11.2581 32.2301 11.3522L22.1159 16.4153C21.8674 16.5368 21.6481 16.7104 21.4726 16.9242C21.2972 17.138 21.1698 17.3871 21.0991 17.6544C21.0279 17.9248 21.0157 18.2073 21.0633 18.4828C21.111 18.7583 21.2173 19.0203 21.3752 19.251L28.5355 29.6637C27.5812 29.8143 26.6695 30.1654 25.8607 30.6939C25.0173 31.273 24.0122 31.5702 22.9895 31.5428C21.9614 31.5674 20.952 31.2656 20.1061 30.6809C18.9729 29.9358 17.6404 29.5518 16.2845 29.5794C14.9309 29.5498 13.6005 29.9343 12.4713 30.6814C12.4567 30.689 12.4418 30.6973 12.4273 30.7058C11.5904 31.279 10.5933 31.5719 9.57942 31.5425C8.55591 31.5671 7.55059 31.2691 6.70577 30.6908C6.5716 30.6122 6.43216 30.5321 6.28947 30.4525L17.2563 23.9977Z" fill="#31A590"/>
<path d="M43.1244 35.4697C41.7609 35.4418 40.4213 35.83 39.284 36.5825C38.4287 37.1377 37.4308 37.4332 36.4111 37.4332C35.3914 37.4332 34.3935 37.1377 33.5382 36.5825C32.3895 35.8556 31.058 35.4697 29.6986 35.4697C28.3392 35.4697 27.0077 35.8556 25.8589 36.5825C25.0151 37.1601 24.0109 37.4577 22.9886 37.4332C21.9673 37.4576 20.9643 37.16 20.1216 36.5825C18.986 35.83 17.6479 35.4418 16.2858 35.4697C14.9232 35.4418 13.5844 35.83 12.4481 36.5825C11.6048 37.1601 10.6011 37.4577 9.57923 37.4332C8.55749 37.4577 7.55395 37.16 6.71075 36.5825C5.57485 35.8301 4.23655 35.4419 2.87435 35.4697C2.62018 35.4697 2.37643 35.5706 2.1967 35.7504C2.01698 35.9301 1.91602 36.1738 1.91602 36.428C1.91602 36.6822 2.01698 36.9259 2.1967 37.1056C2.37643 37.2854 2.62018 37.3863 2.87435 37.3863C3.89598 37.3621 4.89936 37.6599 5.74235 38.2375C6.87846 38.99 8.217 39.3782 9.57942 39.3503C10.942 39.3782 12.2807 38.99 13.417 38.2375C14.2603 37.6599 15.264 37.3623 16.2858 37.3868C17.3071 37.3624 18.3102 37.66 19.1529 38.2375C20.2885 38.99 21.6266 39.3783 22.9886 39.3503C24.3516 39.3783 25.6907 38.9901 26.8275 38.2375C27.6823 37.6823 28.6797 37.3868 29.699 37.3868C30.7183 37.3868 31.7157 37.6823 32.5705 38.2375C33.7196 38.9645 35.0514 39.3503 36.4111 39.3503C37.7708 39.3503 39.1026 38.9645 40.2517 38.2375C41.0964 37.6598 42.1012 37.362 43.1244 37.3863C43.3785 37.3863 43.6223 37.2854 43.802 37.1056C43.9817 36.9259 44.0827 36.6822 44.0827 36.428C44.0827 36.1738 43.9817 35.9301 43.802 35.7504C43.6223 35.5706 43.3785 35.4697 43.1244 35.4697Z" fill="#31A590"/>
<path d="M29.4043 21.7031C29.4044 23.0576 29.8061 24.3817 30.5586 25.5079C31.3112 26.6341 32.3808 27.5118 33.6323 28.0301C34.8837 28.5484 36.2607 28.684 37.5892 28.4197C38.9177 28.1554 40.1379 27.5031 41.0957 26.5452C42.0534 25.5874 42.7056 24.3671 42.9698 23.0386C43.234 21.7101 43.0984 20.3331 42.5799 19.0817C42.0615 17.8303 41.1837 16.7608 40.0574 16.0083C38.9312 15.2558 37.6071 14.8542 36.2525 14.8542C34.4368 14.8562 32.6959 15.5784 31.412 16.8624C30.1281 18.1464 29.4061 19.8873 29.4043 21.7031ZM36.2525 16.7709C37.2279 16.7709 38.1814 17.0601 38.9923 17.602C39.8033 18.1439 40.4354 18.9141 40.8087 19.8152C41.182 20.7163 41.2797 21.7078 41.0894 22.6644C40.8992 23.621 40.4295 24.4998 39.7399 25.1895C39.0502 25.8792 38.1715 26.3489 37.2149 26.5393C36.2583 26.7296 35.2668 26.632 34.3656 26.2588C33.4645 25.8856 32.6943 25.2536 32.1523 24.4427C31.6104 23.6318 31.3211 22.6783 31.321 21.703C31.3224 20.3954 31.8424 19.1419 32.767 18.2172C33.6915 17.2926 34.945 16.7725 36.2525 16.7709Z" fill="#31A590"/>
</svg>
