<svg width="51" height="51" viewBox="0 0 51 51" fill="none" xmlns="http://www.w3.org/2000/svg">
<path d="M34.8436 34.235L40.4218 35.8287C40.6005 35.8797 40.7914 35.8666 40.9615 35.7918C41.1316 35.7169 41.2702 35.585 41.3534 35.4189L42.1503 33.8251C42.2251 33.6755 42.2509 33.5062 42.2241 33.3411C42.1974 33.176 42.1193 33.0235 42.001 32.9053L38.9292 29.8334L35.1636 20.4195C34.7284 19.3314 33.8939 18.4508 32.8308 17.9577C31.7677 17.4647 30.5564 17.3965 29.4446 17.767L23.9063 19.6131V19.125C24.5165 19.1267 25.1209 19.0073 25.6846 18.7738C26.2484 18.5403 26.7602 18.1973 27.1905 17.7647L30.5647 14.3904C30.7937 14.1614 30.9723 13.8869 31.0888 13.5847C31.2054 13.2824 31.2574 12.9591 31.2414 12.6356C31.2254 12.312 31.1418 11.9954 30.9961 11.7061C30.8503 11.4168 30.6456 11.1613 30.3951 10.9559C30.1446 10.7505 29.8538 10.5999 29.5416 10.5137C29.2293 10.4275 28.9025 10.4077 28.5821 10.4555C28.2617 10.5032 27.9549 10.6176 27.6813 10.7911C27.4078 10.9647 27.1737 11.1936 26.994 11.4632L26.5481 12.1319L24.1261 13.3429L22.1175 10.8322C22.6536 10.5699 23.1055 10.1626 23.4217 9.65643C23.7378 9.15026 23.9058 8.56556 23.9063 7.96875V5.57813C23.9067 5.01611 23.7584 4.46401 23.4764 3.97785C23.1944 3.49169 22.7888 3.08879 22.3008 2.81004C21.8128 2.53129 21.2597 2.38662 20.6977 2.39071C20.1357 2.3948 19.5848 2.54751 19.1009 2.83334L18.5899 2.32229C18.242 1.97443 17.7988 1.73753 17.3163 1.64155C16.8338 1.54557 16.3337 1.59482 15.8792 1.78308C15.4247 1.97134 15.0363 2.29015 14.763 2.69919C14.4897 3.10823 14.3438 3.58913 14.3438 4.08107V6.68935C14.3446 7.44212 14.1591 8.1834 13.8039 8.84711C13.4487 9.51082 12.9348 10.0763 12.308 10.4932C12.1434 10.6037 12.026 10.7717 11.979 10.9643C11.0906 11.5073 10.4385 12.3642 10.1518 13.3651L9.01524 17.343C8.8497 17.9223 8.76569 18.5219 8.76564 19.1245V19.1586C8.76469 19.4687 8.82552 19.776 8.94457 20.0624C9.06363 20.3488 9.23852 20.6087 9.45906 20.8268C9.67936 21.0464 9.94087 21.2203 10.2286 21.3385C10.5163 21.4567 10.8245 21.5169 11.1355 21.5156H11.2041C11.5118 21.5156 11.8166 21.455 12.1009 21.3372C12.3851 21.2194 12.6435 21.0468 12.861 20.8292C13.0786 20.6116 13.2512 20.3532 13.3689 20.0689C13.4866 19.7846 13.5472 19.4799 13.5471 19.1721L13.547 18.4815L14.8253 15.2855L16.7344 15.7628V43.64L16.0217 45.0655C15.9469 45.2151 15.9211 45.3844 15.9479 45.5495C15.9746 45.7146 16.0527 45.8671 16.171 45.9853L19.3585 49.1728C19.4325 49.2468 19.5203 49.3055 19.617 49.3456C19.7137 49.3856 19.8173 49.4063 19.9219 49.4063H21.5157C21.6314 49.4062 21.7458 49.381 21.8508 49.3324C21.9558 49.2837 22.0489 49.2128 22.1237 49.1245C22.1985 49.0362 22.2532 48.9326 22.2839 48.8211C22.3147 48.7095 22.3207 48.5926 22.3017 48.4784L21.5247 43.8162L23.8363 26.8644L30.6676 24.1319L34.2657 32.0476V33.4688C34.2657 33.6419 34.3221 33.8104 34.4264 33.9486C34.5307 34.0869 34.6771 34.1874 34.8436 34.235ZM40.468 33.6261L40.2237 34.1146L35.8594 32.8677V32.3675L38.0927 31.2508L40.468 33.6261ZM22.3126 20.0276L18.3282 20.5968V15.4707L20.6221 17.7647C21.0999 18.244 21.6769 18.6128 22.3126 18.845V20.0276ZM24.2627 15.0565L27.4502 13.4627C27.5742 13.4007 27.6799 13.3074 27.7568 13.192L28.3201 12.3472C28.3763 12.2628 28.4496 12.1912 28.5352 12.1368C28.6208 12.0825 28.7169 12.0467 28.8171 12.0318C28.9174 12.0168 29.0197 12.023 29.1175 12.05C29.2152 12.077 29.3062 12.1241 29.3846 12.1884C29.4631 12.2527 29.5271 12.3327 29.5728 12.4232C29.6184 12.5138 29.6445 12.6129 29.6496 12.7142C29.6546 12.8154 29.6383 12.9166 29.6018 13.0112C29.5653 13.1059 29.5094 13.1918 29.4377 13.2635L26.0635 16.6377C25.4914 17.2098 24.7154 17.5312 23.9063 17.5313C23.0972 17.5313 22.3212 17.2099 21.749 16.6377L18.8264 13.7151C18.668 13.5575 18.5423 13.37 18.4568 13.1635C18.3713 12.957 18.3276 12.7357 18.3282 12.5122C18.3282 12.2312 18.4155 11.9572 18.578 11.728C18.7405 11.4988 18.9701 11.3257 19.2353 11.2327C19.5004 11.1397 19.7879 11.1313 20.058 11.2088C20.328 11.2863 20.5674 11.4457 20.7429 11.6651L23.284 14.8416C23.398 14.9839 23.5573 15.0829 23.7354 15.122C23.9135 15.1612 24.0996 15.138 24.2627 15.0565ZM22.3126 7.96875C22.3126 8.39144 22.1446 8.79682 21.8458 9.0957C21.5469 9.39459 21.1415 9.5625 20.7188 9.5625C20.2961 9.5625 19.8907 9.39459 19.5919 9.0957C19.293 8.79682 19.1251 8.39144 19.1251 7.96875L19.1252 7.96865C19.3365 7.9686 19.5391 7.88467 19.6885 7.73529L21.0489 6.375H22.3126L22.3126 7.96875ZM22.0969 4.78125H20.7188C20.5075 4.78126 20.3048 4.8652 20.1553 5.01461L19.1251 6.04486V5.57813C19.1248 5.2274 19.2403 4.88639 19.4536 4.60804C19.667 4.32968 19.9663 4.12955 20.305 4.03871C20.6438 3.94788 21.0031 3.97142 21.3271 4.10569C21.6511 4.23995 21.9217 4.47743 22.0969 4.78125ZM15.9376 6.68935V4.08107C15.9375 3.90434 15.9899 3.73157 16.0881 3.58462C16.1863 3.43766 16.3259 3.32313 16.4891 3.2555C16.6524 3.18787 16.8321 3.17018 17.0054 3.20467C17.1788 3.23916 17.338 3.32428 17.4629 3.44927L17.974 3.96029C17.6837 4.44999 17.5308 5.00886 17.5313 5.57813V7.96875C17.5306 8.60257 17.2785 9.21022 16.8303 9.6584C16.3822 10.1066 15.7745 10.3587 15.1407 10.3594H14.728C15.5148 9.29763 15.9389 8.01082 15.9376 6.68935ZM14.537 13.5707C14.3501 13.5239 14.1525 13.5464 13.9809 13.6341C13.8094 13.7219 13.6754 13.8688 13.6039 14.0478L12.0102 18.0322C11.9725 18.1263 11.9532 18.2268 11.9532 18.3283L11.9533 19.1725C11.9534 19.2709 11.934 19.3683 11.8963 19.4592C11.8587 19.5501 11.8035 19.6328 11.7339 19.7024C11.6644 19.7719 11.5818 19.8272 11.4909 19.8648C11.4 19.9025 11.3025 19.9219 11.2041 19.9219H11.1355C11.0331 19.9226 10.9316 19.9031 10.8367 19.8644C10.7419 19.8258 10.6556 19.7688 10.5829 19.6967C10.5118 19.6263 10.4554 19.5425 10.417 19.4501C10.3787 19.3577 10.3591 19.2586 10.3594 19.1586V19.1246C10.3594 18.6701 10.4228 18.2178 10.5477 17.7808L11.6842 13.803C11.8364 13.2701 12.1582 12.8012 12.6006 12.4675C13.0431 12.1337 13.5823 11.9531 14.1366 11.9531H16.7883C16.7526 12.1373 16.7346 12.3245 16.7344 12.5122V14.12L14.537 13.5707ZM20.252 47.8125L17.704 45.2645L18.0238 44.625H20.0438L20.575 47.8125H20.252ZM20.0232 43.0313H18.3282V29.4844H21.8705L20.0232 43.0313ZM22.8135 25.557C22.6827 25.6093 22.568 25.6954 22.4813 25.8065C22.3946 25.9175 22.3389 26.0496 22.3199 26.1892L22.0878 27.8906H18.3282V22.2067L23.2221 21.5076L23.2219 21.5062C23.2693 21.4999 23.316 21.4894 23.3614 21.4747L25.0392 20.9155L26.3328 24.1493L22.8135 25.557ZM31.8036 22.7796C31.7188 22.593 31.5653 22.4462 31.3751 22.3699C31.1849 22.2935 30.9725 22.2934 30.7822 22.3695L27.8125 23.5574L26.5538 20.4106L29.9486 19.279C30.6747 19.037 31.4659 19.0815 32.1602 19.4036C32.8545 19.7256 33.3996 20.3008 33.6838 21.0114L37.2379 29.8964L35.4458 30.7925L31.8036 22.7796Z" fill="#31A590"/>
</svg>
