<svg width="43" height="43" viewBox="0 0 43 43" fill="none" xmlns="http://www.w3.org/2000/svg">
<g clip-path="url(#clip0_435_2483)">
<path d="M42.2834 8.6004H26.5195V7.16553C27.3041 7.15889 27.9409 6.51986 27.9409 5.73343V2.1504C27.9409 1.35986 27.2978 0.717041 26.5076 0.717041H25.0742C24.2841 0.717041 23.6408 1.35986 23.6408 2.1504V5.73334C23.6408 6.52389 24.284 7.1667 25.0742 7.1667H25.0861V8.6004H17.9139V7.16561C18.6987 7.15948 19.336 6.52011 19.336 5.73343V2.1504C19.336 1.35986 18.6928 0.717041 17.9026 0.717041H16.4693C15.6792 0.717041 15.036 1.35986 15.036 2.1504V5.73334C15.036 6.52389 15.6791 7.1667 16.4693 7.1667H16.4805V8.6004H9.30891V7.16553C10.0935 7.15889 10.7303 6.51986 10.7303 5.73343V2.1504C10.7303 1.35986 10.0872 0.717041 9.29699 0.717041H7.86371C7.07358 0.717041 6.43035 1.35986 6.43035 2.1504V5.73334C6.43035 6.52389 7.0735 7.1667 7.86371 7.1667H7.87563V8.6004H0.716639C0.320484 8.6004 0 8.92131 0 9.31704V33.683C0 34.0788 0.320568 34.3996 0.716639 34.3996H16.4805V35.8333H16.4693C15.6792 35.8333 15.036 36.4762 15.036 37.2667V40.8497C15.036 41.6403 15.6791 42.2831 16.4693 42.2831H17.9027C18.6928 42.2831 19.3361 41.6403 19.3361 40.8497V37.2667C19.3361 36.48 18.6988 35.8407 17.9139 35.8345V34.3997H25.0862V35.8334H25.0743C24.2842 35.8334 23.6409 36.4762 23.6409 37.2668V40.8498C23.6409 41.6404 24.2841 42.2832 25.0743 42.2832H26.5077C27.2978 42.2832 27.941 41.6404 27.941 40.8498V37.2668C27.941 36.4804 27.3042 35.8413 26.5196 35.8347V34.3998H33.6912V35.8335H33.6792C32.8891 35.8335 32.2459 36.4763 32.2459 37.2669V40.8499C32.2459 41.6404 32.889 42.2833 33.6792 42.2833H35.1126C35.9027 42.2833 36.546 41.6404 36.546 40.8499V37.2669C36.546 36.4804 35.9091 35.8414 35.1245 35.8348V34.3999H42.2835C42.6797 34.3999 43.0002 34.079 43.0002 33.6833V9.31704C43 8.92131 42.6794 8.6004 42.2834 8.6004ZM25.0742 5.73343V2.1504H26.5076L26.5082 5.73334L25.0742 5.73343ZM22.2166 16.5406C24.6434 16.8902 26.5166 18.9778 26.5166 21.5001C26.5166 24.0224 24.6434 26.1099 22.2166 26.4595V16.5406ZM16.4693 5.73343V2.1504H17.9027L17.9034 5.73334L16.4693 5.73343ZM7.86371 5.73343V2.1504H9.29707L9.29774 5.73334L7.86371 5.73343ZM1.43336 17.2001H7.16672V25.8001H1.43336V17.2001ZM16.4693 40.8497V37.2667H17.9027L17.9034 40.8497H16.4693ZM20.7834 26.4595C18.3565 26.1099 16.4834 24.0224 16.4834 21.5001C16.4834 18.9778 18.3565 16.8902 20.7834 16.5406V26.4595ZM20.7834 15.0923C17.563 15.4503 15.05 18.1861 15.05 21.5001C15.05 24.814 17.563 27.5498 20.7834 27.9078V32.9664H17.2076C17.2039 32.9664 17.2009 32.9643 17.1972 32.9643C17.1935 32.9643 17.1905 32.9663 17.1868 32.9664H1.43336V27.2333H7.88336C8.27952 27.2333 8.6 26.9124 8.6 26.5167V16.4834C8.6 16.0876 8.27943 15.7668 7.88336 15.7668H1.43336V10.0338H8.58194C8.58564 10.0338 8.58866 10.0359 8.59236 10.0359C8.59605 10.0359 8.59908 10.0339 8.60277 10.0338H17.1868C17.1905 10.0338 17.1935 10.0359 17.1972 10.0359C17.2009 10.0359 17.2039 10.0339 17.2076 10.0338H20.7834V15.0923ZM25.0742 40.8497V37.2667H26.5076L26.5082 40.8497H25.0742ZM33.6792 40.8497V37.2667H35.1125L35.1132 40.8497H33.6792ZM41.5666 25.8001H35.8333V17.2001H41.5666V25.8001ZM41.5666 15.7667H35.1166C34.7205 15.7667 34.4 16.0876 34.4 16.4833V26.5167C34.4 26.9125 34.7206 27.2333 35.1166 27.2333H41.5666V32.9664H34.4181C34.4144 32.9664 34.4113 32.9643 34.4076 32.9643C34.4039 32.9643 34.4009 32.9663 34.3972 32.9664H25.8132C25.8095 32.9664 25.8065 32.9643 25.8028 32.9643C25.7991 32.9643 25.7961 32.9663 25.7924 32.9664H22.2166V27.9078C25.437 27.5498 27.95 24.814 27.95 21.5001C27.95 18.1861 25.437 15.4503 22.2166 15.0923V10.0338H25.7924C25.7961 10.0338 25.7991 10.0359 25.8028 10.0359C25.8065 10.0359 25.8095 10.0338 25.8132 10.0338H41.5666V15.7667Z" fill="#31A590"/>
</g>
<defs>
<clipPath id="clip0_435_2483">
<rect width="43" height="43" fill="white"/>
</clipPath>
</defs>
</svg>
