<svg width="43" height="43" viewBox="0 0 43 43" fill="none" xmlns="http://www.w3.org/2000/svg">
<g clip-path="url(#clip0_435_2502)">
<path d="M0.000185769 28.6667C0.00189245 29.9966 0.530981 31.2717 1.47142 32.2121C2.41186 33.1525 3.68687 33.6816 5.01685 33.6833H14.3335V42.2833C14.3336 42.4251 14.3756 42.5636 14.4543 42.6814C14.5331 42.7992 14.645 42.8911 14.776 42.9453C14.9069 42.9995 15.051 43.0137 15.19 42.9861C15.329 42.9584 15.4566 42.8902 15.5569 42.79L17.2002 41.1467L18.8435 42.79C18.9779 42.9244 19.1602 42.9998 19.3502 42.9998C19.5402 42.9998 19.7225 42.9244 19.8569 42.79L21.5002 41.1467L23.1435 42.79C23.2779 42.9244 23.4602 42.9998 23.6502 42.9998C23.8402 42.9998 24.0225 42.9244 24.1569 42.79L25.8002 41.1467L27.4435 42.79C27.5779 42.9244 27.7601 43 27.9502 43C28.0444 43.0003 28.1377 42.9818 28.2247 42.9455C28.3556 42.8913 28.4675 42.7994 28.5462 42.6815C28.6249 42.5636 28.6669 42.4251 28.6669 42.2833V33.6833H37.9835C39.3135 33.6816 40.5885 33.1525 41.529 32.2121C42.4694 31.2717 42.9985 29.9966 43.0002 28.6667V9.29517C43.0073 8.36649 42.8103 7.44759 42.423 6.60348C42.0358 5.75937 41.4678 5.01068 40.7592 4.41037C38.3612 2.39868 33.0736 0 21.5002 0C9.92674 0 4.63917 2.39868 2.24192 4.40965C1.53313 5.01 0.964946 5.75879 0.577565 6.60303C0.190184 7.44727 -0.00692503 8.36632 0.000185769 9.29517V28.6667ZM15.4537 30.8332C15.1117 29.2403 14.3799 27.7571 13.3237 26.5167H16.0944C16.3871 27.1941 16.5202 27.9297 16.4835 28.6667C16.5149 29.2572 16.3353 29.8397 15.9768 30.31L15.4537 30.8332ZM17.6302 26.5167H20.7835V30.52L18.9919 32.3116L17.4109 30.7307C17.7543 30.0977 17.9286 29.3867 17.9169 28.6667C17.9296 27.9397 17.8329 27.2149 17.6302 26.5167ZM20.4861 35.8333L19.3502 36.97L17.8552 35.475L18.9919 34.3384L20.4861 35.8333ZM20.0045 33.325L21.5002 31.83L22.9952 33.325L21.5002 34.82L20.0045 33.325ZM24.0085 34.3384L25.1452 35.475L23.6502 36.97L22.5136 35.8333L24.0085 34.3384ZM22.2169 30.52V26.5167H25.3702C25.1674 27.2149 25.0708 27.9397 25.0835 28.6667C25.0718 29.3867 25.2461 30.0977 25.5895 30.7307L24.0085 32.3116L22.2169 30.52ZM10.0335 25.0833C9.84345 25.0833 9.66116 25.0078 9.52676 24.8734C9.39236 24.739 9.31685 24.5567 9.31685 24.3667C9.31685 24.1766 9.39236 23.9943 9.52676 23.8599C9.66116 23.7255 9.84345 23.65 10.0335 23.65H32.9669C33.1569 23.65 33.3392 23.7255 33.4736 23.8599C33.608 23.9943 33.6835 24.1766 33.6835 24.3667C33.6835 24.5567 33.608 24.739 33.4736 24.8734C33.3392 25.0078 33.1569 25.0833 32.9669 25.0833H10.0335ZM31.7528 26.5167H32.9669C33.5371 26.5167 34.0839 26.2901 34.4871 25.8869C34.8903 25.4837 35.1169 24.9369 35.1169 24.3667C35.1169 23.7965 34.8903 23.2496 34.4871 22.8464C34.0839 22.4432 33.5371 22.2167 32.9669 22.2167H10.0335C9.4633 22.2167 8.91644 22.4432 8.51324 22.8464C8.11004 23.2496 7.88352 23.7965 7.88352 24.3667C7.88352 24.9369 8.11004 25.4837 8.51324 25.8869C8.91644 26.2901 9.4633 26.5167 10.0335 26.5167H11.2476C12.2194 27.2682 12.9839 28.2547 13.4692 29.3833H5.01685C4.82678 29.3833 4.64449 29.3078 4.51009 29.1734C4.37569 29.039 4.30019 28.8567 4.30019 28.6667V9.29517C4.29649 8.9947 4.35742 8.69694 4.47885 8.42207C4.60027 8.1472 4.77935 7.90164 5.00395 7.70202C6.52185 6.43137 10.6785 4.3 21.5002 4.3C32.3326 4.3 36.4843 6.43495 37.9979 7.71062C38.2226 7.90821 38.4017 8.15221 38.523 8.42578C38.6443 8.69934 38.7047 8.99597 38.7002 9.29517V28.6667C38.7002 28.8567 38.6247 29.039 38.4903 29.1734C38.3559 29.3078 38.1736 29.3833 37.9835 29.3833H29.5333C30.018 28.255 30.7818 27.2685 31.7528 26.5167ZM16.4835 31.83L17.9785 33.325L15.7669 35.5366V33.6833C15.7669 33.3042 15.7518 32.9394 15.7246 32.589L16.4835 31.83ZM16.6935 39.6267L15.7669 40.5533V37.5634L16.8419 36.4884L18.3368 37.9833L16.6935 39.6267ZM19.3502 41.27L18.2136 40.1333L19.3502 38.9967L20.4868 40.1333L19.3502 41.27ZM20.3636 37.9833L21.5002 36.8467L22.6368 37.9833L21.5002 39.12L20.3636 37.9833ZM23.6502 41.27L22.5136 40.1333L23.6502 38.9967L24.7868 40.1333L23.6502 41.27ZM27.2335 40.5533L26.3069 39.6267L24.6636 37.9833L26.1585 36.4884L27.2335 37.5634V40.5533ZM27.2335 33.6833V35.5366L25.0219 33.325L26.5169 31.83L27.2758 32.589C27.2486 32.9394 27.2335 33.3042 27.2335 33.6833ZM27.5467 30.8332L27.0321 30.3186C26.6676 29.8477 26.4847 29.2613 26.5169 28.6667C26.4802 27.9297 26.6133 27.1941 26.906 26.5167H29.6766C28.6205 27.7571 27.8886 29.2403 27.5467 30.8332ZM1.43352 9.29517C1.42666 8.57587 1.57793 7.86385 1.87663 7.20947C2.17534 6.5551 2.61418 5.97435 3.16212 5.5083C5.37519 3.64927 10.3575 1.43333 21.5002 1.43333C32.6429 1.43333 37.6252 3.64927 39.839 5.50902C40.3867 5.97502 40.8254 6.55568 41.124 7.20993C41.4226 7.86418 41.5737 8.57604 41.5669 9.29517V28.6667C41.5657 29.6167 41.1878 30.5275 40.5161 31.1992C39.8443 31.871 38.9335 32.2489 37.9835 32.25H28.7579C28.8139 31.7665 28.904 31.2875 29.0273 30.8167H37.9835C38.5537 30.8167 39.1006 30.5901 39.5038 30.1869C39.907 29.7837 40.1335 29.2369 40.1335 28.6667V9.29517C40.1366 8.78641 40.0293 8.28304 39.819 7.8198C39.6086 7.35655 39.3003 6.94446 38.9152 6.61197C37.2583 5.21232 32.7877 2.86667 21.5002 2.86667C10.2256 2.86667 5.74857 5.20802 4.08089 6.60552C3.69743 6.94051 3.39054 7.35409 3.18106 7.81818C2.97158 8.28227 2.86442 8.786 2.86685 9.29517V28.6667C2.86685 29.2369 3.09337 29.7837 3.49657 30.1869C3.89978 30.5901 4.44664 30.8167 5.01685 30.8167H13.9752C14.0985 31.2875 14.1886 31.7665 14.2447 32.25H5.01685C4.06684 32.2489 3.15607 31.871 2.48431 31.1992C1.81255 30.5275 1.43466 29.6167 1.43352 28.6667V9.29517Z" fill="#31A590"/>
<path d="M27.2339 8.6001H15.7672C15.197 8.6001 14.6501 8.82661 14.2469 9.22982C13.8437 9.63302 13.6172 10.1799 13.6172 10.7501V16.4834C13.6172 17.0536 13.8437 17.6005 14.2469 18.0037C14.6501 18.4069 15.197 18.6334 15.7672 18.6334H27.2339C27.8041 18.6334 28.3509 18.4069 28.7541 18.0037C29.1573 17.6005 29.3839 17.0536 29.3839 16.4834V10.7501C29.3839 10.1799 29.1573 9.63302 28.7541 9.22982C28.3509 8.82661 27.8041 8.6001 27.2339 8.6001ZM27.9505 16.4834C27.9505 16.6735 27.875 16.8558 27.7406 16.9902C27.6062 17.1246 27.4239 17.2001 27.2339 17.2001H15.7672C15.5771 17.2001 15.3948 17.1246 15.2604 16.9902C15.126 16.8558 15.0505 16.6735 15.0505 16.4834V10.7501C15.0505 10.56 15.126 10.3777 15.2604 10.2433C15.3948 10.1089 15.5771 10.0334 15.7672 10.0334H27.2339C27.4239 10.0334 27.6062 10.1089 27.7406 10.2433C27.875 10.3777 27.9505 10.56 27.9505 10.7501V16.4834Z" fill="#31A590"/>
</g>
<defs>
<clipPath id="clip0_435_2502">
<rect width="43" height="43" fill="white"/>
</clipPath>
</defs>
</svg>
