<svg width="49" height="49" viewBox="0 0 49 49" fill="none" xmlns="http://www.w3.org/2000/svg">
<path d="M43.9217 14.1539L36.8228 12.7421L34.578 10.4962C35.6397 10.3482 36.6656 9.87963 37.4803 9.06501C39.4699 7.0754 39.4699 3.8363 37.4803 1.8467C35.4907 -0.142909 32.2516 -0.142909 30.262 1.8467C29.0809 3.0278 28.6123 4.64888 28.8338 6.18728C28.596 6.15257 28.3561 6.12909 28.1121 6.12807H19.9454C19.335 6.12807 18.7449 6.30774 18.2386 6.64768L11.4531 11.1812C10.0495 12.1183 9.67072 14.0242 10.6089 15.4299C11.548 16.8335 13.4539 17.2133 14.8566 16.2741L17.8119 14.2998L15.6865 16.4252C14.7228 17.3889 14.191 18.671 14.191 20.0349C14.191 20.8903 14.4227 21.7029 14.8167 22.4359L12.6914 27.5625L5.10352 27.5615C3.41506 27.5615 2.04102 28.9355 2.04102 30.624C2.04102 32.3124 3.41506 33.6865 5.10352 33.6865H14.7371C15.9805 33.6865 17.0922 32.9454 17.5669 31.7969L20.3262 25.1339H25.5202V38.7886H18.3743C17.8098 38.7886 17.3535 39.2459 17.3535 39.8094C17.3535 40.3729 17.8098 40.8303 18.3743 40.8303H26.2695L36.9903 46.9583H30.6243C30.0598 46.9583 29.6035 47.4157 29.6035 47.9792C29.6035 48.5427 30.0598 49 30.6243 49H40.8327C41.2951 49 41.8535 48.6417 41.8535 47.9792V32.6667C41.8535 32.289 41.6442 31.9572 41.339 31.7806L29.7138 25.136H31.0133L40.1702 28.9284C41.731 29.5746 43.5256 28.8304 44.1708 27.2695C44.817 25.7087 44.0728 23.9141 42.512 23.2689L32.7957 19.2458C32.421 19.0896 32.026 19.011 31.6227 19.011L27.5353 19.012L30.9837 15.5647L33.1479 17.7298C33.5797 18.1617 34.1217 18.4526 34.7159 18.57L42.7263 20.1625C44.3821 20.4922 45.9981 19.4132 46.3278 17.7564C46.6576 16.0996 45.5775 14.4836 43.9217 14.1539ZM39.8119 46.2203L27.5618 39.2194V30.3412L39.8119 37.3421V46.2203ZM39.8119 34.9911L27.5618 27.9902V26.2579L39.8119 33.2588V34.9911ZM31.7044 3.29015C32.8988 2.09578 34.8414 2.09578 36.0358 3.29015C37.2302 4.48453 37.2302 6.42718 36.0358 7.62155C34.8414 8.81592 32.8988 8.81592 31.7044 7.62155C30.51 6.42718 30.51 4.48453 31.7044 3.29015ZM15.6814 31.016C15.5221 31.3978 15.1516 31.6458 14.7371 31.6458H5.10352C4.54104 31.6458 4.08268 31.1885 4.08268 30.625C4.08268 30.0615 4.54104 29.6042 5.10352 29.6042H13.3733C13.7857 29.6042 14.1593 29.3551 14.3165 28.9743L16.3133 24.155C16.8768 24.5602 17.5087 24.844 18.1753 24.9951L15.6814 31.016ZM21.3756 19.013C20.8111 19.013 20.3548 19.4704 20.3548 20.0339C20.3548 20.5974 20.8121 21.0547 21.3756 21.0547L31.6227 21.0537C31.7565 21.0537 31.8881 21.0802 32.0137 21.1323L41.7331 25.1574C42.2527 25.3728 42.5017 25.971 42.2864 26.4906C42.071 27.0102 41.4727 27.2583 40.9531 27.0439L31.6095 23.1729C31.4859 23.1219 31.3532 23.0953 31.2185 23.0953L19.3258 23.0943C18.4877 23.1086 17.7149 22.786 17.131 22.2011C16.5532 21.6223 16.2337 20.8536 16.2337 20.0349C16.2337 19.2162 16.5532 18.4475 17.131 17.8687L22.7456 12.2541H27.0923C27.6568 12.2541 28.1131 11.7968 28.1131 11.2333C28.1131 10.6698 27.6568 10.2124 27.0923 10.2124H20.5651C20.3629 10.2124 20.1659 10.2727 19.9975 10.3839L13.7224 14.5765C13.2538 14.8909 12.6189 14.7623 12.3065 14.2958C11.9931 13.8272 12.1197 13.1922 12.5872 12.8799L19.3737 8.34532C19.5422 8.23303 19.7443 8.17076 19.9454 8.17076H28.109C28.9216 8.1728 29.6872 8.49232 30.263 9.06705C31.4563 10.2614 31.4563 12.2041 30.263 13.3984L24.6484 19.012L21.3756 19.013ZM43.1245 18.1586L35.113 16.5661C34.9159 16.5273 34.7363 16.4303 34.5913 16.2864L32.3445 14.0395C32.7691 13.3964 33.0335 12.6818 33.1366 11.9438L35.5979 14.405C35.7408 14.5479 35.9225 14.6449 36.1205 14.6847L43.5226 16.1567C44.0748 16.266 44.4342 16.805 44.325 17.3572C44.2157 17.9085 43.6767 18.2678 43.1245 18.1586Z" fill="#31A590"/>
</svg>
