<svg width="48" height="48" viewBox="0 0 48 48" fill="none" xmlns="http://www.w3.org/2000/svg">
<path d="M42.03 13.425C41.146 13.425 40.2819 13.6872 39.5469 14.1783C38.8119 14.6694 38.239 15.3675 37.9007 16.1842C37.5625 17.0009 37.474 17.8995 37.6464 18.7665C37.8189 19.6335 38.2446 20.4299 38.8697 21.055C39.4948 21.68 40.2912 22.1057 41.1582 22.2781C42.0252 22.4505 42.9239 22.362 43.7406 22.0236C44.5572 21.6853 45.2553 21.1124 45.7463 20.3774C46.2374 19.6423 46.4995 18.7782 46.4994 17.8942C46.498 16.7093 46.0267 15.5733 45.1888 14.7355C44.3509 13.8977 43.2149 13.4264 42.03 13.425ZM42.03 20.8639C41.4427 20.8639 40.8686 20.6898 40.3803 20.3635C39.892 20.0372 39.5114 19.5735 39.2866 19.0309C39.0619 18.4883 39.003 17.8913 39.1176 17.3153C39.2321 16.7393 39.5149 16.2102 39.9302 15.7949C40.3454 15.3796 40.8745 15.0967 41.4505 14.9821C42.0265 14.8675 42.6235 14.9263 43.1661 15.151C43.7087 15.3757 44.1725 15.7563 44.4988 16.2446C44.8252 16.7328 44.9994 17.3069 44.9994 17.8942C44.9985 18.6815 44.6854 19.4362 44.1287 19.9929C43.572 20.5496 42.8173 20.8627 42.03 20.8636V20.8639Z" fill="#31A590"/>
<path d="M37.3588 26.4085C37.0609 26.2785 36.734 26.2297 36.4111 26.2668C36.0883 26.304 35.781 26.4259 35.5204 26.6201L33.1609 28.3826L26.466 22.9758C26.4166 22.9359 26.3623 22.9025 26.3045 22.8763L21.0721 20.5024L21.5847 18.1604C21.6272 17.9661 21.5908 17.7629 21.4835 17.5954C21.3762 17.4279 21.2067 17.3099 21.0124 17.2674C20.8181 17.2249 20.6148 17.2613 20.4474 17.3686C20.2799 17.4759 20.1619 17.6454 20.1194 17.8397L19.863 19.011L16.0567 18.3531C15.9597 18.3363 15.8603 18.3388 15.7642 18.3605C15.6681 18.3821 15.5772 18.4225 15.4967 18.4793C15.4162 18.536 15.3477 18.6081 15.2951 18.6914C15.2424 18.7746 15.2067 18.8674 15.19 18.9645C15.1732 19.0615 15.1757 19.1609 15.1973 19.257C15.219 19.3531 15.2594 19.444 15.3161 19.5245C15.3729 19.605 15.445 19.6735 15.5282 19.7261C15.6115 19.7788 15.7043 19.8145 15.8013 19.8312L19.542 20.4781L19.4771 20.7747C19.4403 20.9425 19.4622 21.1179 19.5391 21.2714C19.6161 21.425 19.7434 21.5475 19.8998 21.6185L21.6136 22.396L19.2314 25.6004C16.7001 25.2203 14.3214 24.503 13.6521 23.3293C13.1343 22.4213 13.9158 20.5487 14.23 19.9651C14.2956 19.8442 14.3266 19.7075 14.3196 19.5701L13.9345 11.9472C13.9291 11.8412 13.9014 11.7375 13.853 11.6431C13.8046 11.5486 13.7367 11.4655 13.6538 11.3993C13.571 11.333 13.475 11.2851 13.3722 11.2586C13.2694 11.2322 13.1622 11.2279 13.0577 11.246L11.5561 11.5056V9.7325L13.3531 8.98803L15.3752 9.15678C15.5735 9.17336 15.7702 9.11052 15.9221 8.98208C16.074 8.85364 16.1686 8.67011 16.1852 8.47189C16.2018 8.27366 16.1389 8.07696 16.0105 7.92506C15.8821 7.77317 15.6985 7.67852 15.5003 7.66193L13.2972 7.47771C13.178 7.46773 13.0581 7.48641 12.9476 7.53218L8.7009 9.29159L3.81597 8.58846C3.29042 8.51444 2.75681 8.64946 2.32971 8.96452C1.90262 9.27957 1.6161 9.74955 1.53168 10.2735C1.44726 10.7975 1.57168 11.3337 1.87821 11.7669C2.18475 12.2002 2.64896 12.496 3.17115 12.5907L8.41393 13.5255C8.49971 13.5408 8.58749 13.5411 8.67334 13.5262L12.4791 12.8682L12.8115 19.4467C12.586 19.9106 12.3981 20.3919 12.2496 20.8859C11.8603 22.2016 11.8934 23.2737 12.3491 24.0724C12.5389 24.3973 12.7798 24.6895 13.0625 24.9377L14.4021 32.8696C13.504 33.3208 11.7087 34.3371 10.7594 35.6634C10.1776 36.4761 9.22018 37.826 8.75209 38.4865C8.62111 38.4715 8.48942 38.4636 8.35759 38.4627H8.34222C7.35306 38.4627 6.86978 38.9003 6.6385 39.2682C6.4089 39.6339 5.79897 40.6039 8.14084 45.426C8.34881 45.8548 8.70938 46.1905 9.15191 46.3674C9.59445 46.5442 10.0871 46.5495 10.5333 46.3821C10.9795 46.2147 11.3471 45.8868 11.5642 45.4626C11.7813 45.0383 11.8321 44.5483 11.7068 44.0885L11.2099 42.2484L19.3465 35.9265C19.4979 35.8089 19.5985 35.6378 19.6277 35.4484L20.6552 28.77C20.6854 28.5734 20.6363 28.3729 20.5187 28.2125C20.4011 28.0521 20.2245 27.9449 20.0279 27.9147C19.8313 27.8845 19.6308 27.9335 19.4704 28.0512C19.3099 28.1688 19.2028 28.3453 19.1726 28.5419L19.0649 29.2424L15.2147 28.6706L14.7603 25.9799C15.8666 26.4627 17.2952 26.8317 19.0462 27.0867C20.5628 27.2993 22.091 27.4186 23.6222 27.4439C24.5038 28.5523 25.5741 29.4965 26.7838 30.2329C28.4057 31.2062 30.2703 31.9047 31.3213 32.2929C31.3225 32.2945 31.3235 32.2962 31.3248 32.2979C31.3792 32.3745 31.4606 32.521 31.5179 32.6243C31.8085 33.1475 32.2944 34.0232 33.3129 34.0373H33.3632C33.8247 34.0373 34.799 33.8763 38.1298 29.1471C38.2864 28.9242 38.3915 28.6692 38.4374 28.4006C38.4833 28.132 38.4688 27.8566 38.395 27.5943C38.3213 27.3321 38.19 27.0895 38.0109 26.8842C37.8317 26.679 37.6091 26.5162 37.3592 26.4076L37.3588 26.4085ZM8.54762 12.0256L3.4344 11.114C3.29836 11.0896 3.17735 11.0127 3.09742 10.8999C3.01748 10.7872 2.98501 10.6475 3.007 10.5111C3.02898 10.3746 3.10366 10.2523 3.21496 10.1703C3.32626 10.0884 3.46529 10.0534 3.60212 10.0729L8.69087 10.8057C8.82419 10.8248 8.96021 10.8077 9.08462 10.7562L10.0559 10.3539V11.7649L8.54762 12.0256ZM10.1882 44.8381C10.1456 44.8938 10.0894 44.9377 10.0251 44.9657C9.96074 44.9937 9.89032 45.0048 9.82049 44.998C9.75065 44.9912 9.6837 44.9668 9.62594 44.9269C9.56818 44.8871 9.52152 44.8332 9.49037 44.7703C7.95418 41.6072 7.831 40.3078 7.91472 40.058C7.9734 39.9869 8.19053 39.9544 8.43803 39.9642L8.51837 40.4501C8.61291 41.0286 8.88823 41.5623 9.30484 41.9747L9.68415 42.3516L10.259 44.479C10.2762 44.5402 10.2787 44.6047 10.2664 44.6671C10.2541 44.7295 10.2272 44.7882 10.188 44.8383L10.1882 44.8381ZM10.4163 40.9651L10.3622 40.9112C10.1694 40.7204 10.042 40.4735 9.99831 40.2058L9.87981 39.4897C10.2979 38.8991 11.3555 37.4078 11.9798 36.5366C12.4986 35.8118 13.3929 35.1734 14.1548 34.7173L16.0327 36.6017L10.4163 40.9651ZM18.8366 30.7245L18.1904 34.9245L17.2258 35.674L15.5446 33.9865C15.6956 33.9183 15.8199 33.8021 15.8979 33.6559C15.9759 33.5097 16.0033 33.3418 15.9758 33.1783L15.4771 30.2252L18.8366 30.7245ZM23.9949 25.9467C23.1015 25.9524 22.0428 25.9092 20.9468 25.8072L23.0116 23.0293L25.5982 24.2029L26.3526 24.8123L24.8018 26.5166C24.6845 26.3681 24.6221 26.2783 24.6198 26.275C24.5511 26.1739 24.4586 26.0911 24.3505 26.0339C24.2424 25.9767 24.122 25.9468 23.9997 25.9468L23.9949 25.9467ZM25.8225 27.6236L27.5217 25.7562L32.3931 29.6907V30.1314C32.3927 30.2527 32.3647 30.3724 32.3113 30.4814C32.2578 30.5904 32.1803 30.6858 32.0846 30.7604L31.8965 30.906C30.9034 30.5394 29.0873 29.8654 27.5552 28.9467C26.9319 28.5689 26.3509 28.1254 25.8222 27.6237L25.8225 27.6236ZM36.9037 28.284C34.7713 31.3114 33.6557 32.3632 33.2959 32.5301C33.175 32.484 33.0236 32.2407 32.9012 32.0255L33.003 31.9468C33.2793 31.7316 33.503 31.4563 33.6573 31.1419C33.8116 30.8274 33.8924 30.482 33.8936 30.1317V29.7083L36.4187 27.8217C36.4633 27.7888 36.5153 27.7672 36.57 27.7587C36.6248 27.7503 36.6808 27.7552 36.7333 27.7732C36.7857 27.7911 36.833 27.8215 36.8711 27.8618C36.9093 27.902 36.937 27.9509 36.9521 28.0043C36.9656 28.0516 36.9683 28.1015 36.9598 28.15C36.9513 28.1985 36.9319 28.2445 36.9032 28.2845L36.9037 28.284Z" fill="#31A590"/>
<path d="M22.5553 9.46865C22.5263 9.56283 22.5162 9.66179 22.5255 9.75989C22.5348 9.85799 22.5633 9.95329 22.6095 10.0404C22.6556 10.1274 22.7185 10.2045 22.7944 10.2673C22.8704 10.3301 22.958 10.3772 23.0522 10.4061L24.2183 10.7643L24.6683 11.4183L22.5518 12.0661C22.4056 12.111 22.2766 12.1996 22.1822 12.3199C22.0877 12.4402 22.0323 12.5866 22.0234 12.7393L19.6452 11.9652C19.1656 11.8092 18.6438 11.8478 18.1924 12.0728C17.7409 12.2978 17.3959 12.6911 17.2317 13.168C17.0675 13.6449 17.0972 14.1672 17.3145 14.6225C17.5317 15.0777 17.9191 15.4293 18.3931 15.6017L24.5392 17.8352C25.1151 18.044 25.7425 18.0646 26.3308 17.8938C26.9192 17.7231 27.4381 17.3699 27.8127 16.8851C28.1873 16.4004 28.3983 15.8092 28.4152 15.1968C28.4321 14.5844 28.254 13.9824 27.9067 13.4778L25.3057 9.69805C25.2098 9.55873 25.0697 9.45591 24.9081 9.4063L23.4924 8.97149C23.3983 8.94258 23.2993 8.93251 23.2012 8.94186C23.1032 8.9512 23.0079 8.97977 22.9209 9.02594C22.8339 9.0721 22.7568 9.13496 22.6941 9.21093C22.6313 9.28689 22.5842 9.37446 22.5553 9.46865ZM26.6897 15.8784C26.5188 16.1414 26.2637 16.3387 25.9661 16.438C25.6685 16.5372 25.3461 16.5326 25.0515 16.4248L18.9058 14.1915C18.8012 14.1538 18.7156 14.0764 18.6676 13.9761C18.6196 13.8758 18.613 13.7606 18.6492 13.6555C18.6854 13.5503 18.7615 13.4637 18.8611 13.4142C18.9607 13.3647 19.0758 13.3565 19.1814 13.3911L23.1846 14.6943C23.3696 14.7545 23.5709 14.7405 23.7458 14.655C23.9206 14.5696 24.0554 14.4194 24.1216 14.2364C24.1877 14.0533 24.1801 13.8517 24.1003 13.6742C24.0205 13.4967 23.8747 13.3572 23.6939 13.2852L25.5607 12.7138L26.6716 14.3279C26.8286 14.5551 26.9142 14.8241 26.9174 15.1003C26.9206 15.3765 26.8411 15.6473 26.6893 15.8781L26.6897 15.8784Z" fill="#31A590"/>
<path d="M19.6732 10.127H19.72C20.6587 10.127 21.5754 9.60196 22.2419 8.68021C22.8687 7.78197 23.2133 6.71721 23.2316 5.62208C23.2525 4.50852 22.9253 3.48046 22.3101 2.72736C22.0135 2.3531 21.6378 2.04904 21.2099 1.83695C20.782 1.62486 20.3125 1.50999 19.8351 1.50055C17.8579 1.46474 16.3297 3.17868 16.2862 5.49149C16.2399 7.96874 17.7908 10.0915 19.6732 10.127ZM19.773 2.99999H19.8071C20.0667 3.00692 20.3215 3.0711 20.5533 3.18795C20.7852 3.3048 20.9884 3.47143 21.1483 3.67593C21.5389 4.15405 21.7461 4.83514 21.7318 5.59358C21.7215 6.38323 21.476 7.15187 21.0267 7.8013C20.8002 8.11471 20.329 8.64121 19.7013 8.62686C18.6872 8.60811 17.7565 7.09761 17.7862 5.51933C17.8138 4.05308 18.6471 2.99999 19.773 2.99999Z" fill="#31A590"/>
</svg>
