<svg width="48" height="48" viewBox="0 0 48 48" fill="none" xmlns="http://www.w3.org/2000/svg">
<path d="M0.631084 41.3176C0.930428 41.7452 1.41952 41.9999 1.94148 42H46.0567C46.5786 41.9999 47.0677 41.7452 47.3671 41.3176C47.6664 40.89 47.7384 40.3433 47.5599 39.8528L41.9279 24.3648C42.6683 24.2093 43.1986 23.5565 43.1991 22.8V18C43.1991 16.6745 42.1246 15.6 40.7991 15.6H38.7351L35.3431 7.01121C35.1029 6.39935 34.5116 5.99777 33.8543 6.00001H14.1439C13.4861 5.9978 12.8946 6.40018 12.6551 7.01281L9.26308 15.6H7.19908C5.8736 15.6 4.79908 16.6745 4.79908 18V22.8C4.79958 23.5565 5.32989 24.2093 6.07028 24.3648L0.438284 39.8528C0.259777 40.3433 0.331738 40.89 0.631084 41.3176ZM23.1991 24.4V33.2H11.0623L13.5191 24.4H23.1991ZM34.4791 24.4L36.9351 33.2H24.7991V24.4H34.4791ZM10.6159 34.8H37.3823L38.9455 40.4H9.05268L10.6159 34.8ZM40.6063 40.4L36.1407 24.4H40.2391L46.0567 40.4H40.6063ZM33.8551 7.60001L37.0159 15.6H33.6855L31.4527 7.60001H33.8551ZM15.9727 15.6L17.0927 11.6H23.1991V15.6H15.9727ZM29.7919 7.60001L30.4623 10H17.5359L18.2063 7.60001H29.7919ZM24.7991 11.6H30.9087L32.0287 15.6H24.7991V11.6ZM14.1439 7.60001H16.5439L14.3127 15.6H10.9831L14.1439 7.60001ZM6.39908 18C6.39908 17.5582 6.75726 17.2 7.19908 17.2H40.7991C41.2409 17.2 41.5991 17.5582 41.5991 18V22.8H6.39908V18ZM7.75908 24.4H11.8575L7.39188 40.4H1.94148L7.75908 24.4Z" fill="#31A590"/>
</svg>
