<svg width="26" height="26" viewBox="0 0 26 26" fill="none" xmlns="http://www.w3.org/2000/svg">
<g clip-path="url(#clip0_119_155)">
<path d="M21.0253 7.6005L16.7329 6.97675L14.8132 3.08717C14.072 1.58516 11.928 1.58461 11.1865 3.08712L9.2668 6.97675L4.97432 7.6005C3.31683 7.8413 2.65388 9.88011 3.85364 11.0497L6.95972 14.0774L6.22649 18.3524C5.94333 20.0031 7.6773 21.2638 9.16057 20.4842L12.9998 18.4657L16.8392 20.4842C18.3242 21.2648 20.0557 19.9994 19.7731 18.3524L19.0399 14.0774L22.146 11.0497C23.3453 9.88052 22.6835 7.84145 21.0253 7.6005Z" fill="#2AA0BE"/>
<path d="M6.8416 2.39464L5.8051 0.968092C5.52372 0.580936 4.98174 0.495065 4.59458 0.776444C4.20738 1.05777 4.12156 1.59976 4.40288 1.98696L5.43938 3.41351C5.72091 3.80087 6.26295 3.88643 6.6499 3.60516C7.0371 3.32388 7.12293 2.78184 6.8416 2.39464Z" fill="#2AA0BE"/>
<path d="M3.40217 15.1787C3.25424 14.7236 2.76542 14.4742 2.31012 14.6223L0.599048 15.1783C0.143846 15.3261 -0.105236 15.8151 0.0426392 16.2704C0.190819 16.7264 0.680654 16.9745 1.13469 16.8268L2.84581 16.2708C3.30101 16.1229 3.55009 15.634 3.40217 15.1787Z" fill="#2AA0BE"/>
<path d="M21.4048 0.776458C21.0176 0.49508 20.4757 0.5809 20.1943 0.968106L19.1578 2.39465C18.8764 2.78186 18.9623 3.32389 19.3495 3.60517C19.7368 3.8866 20.2787 3.80058 20.56 3.41352L21.5965 1.98698C21.8779 1.59977 21.792 1.05779 21.4048 0.776458Z" fill="#2AA0BE"/>
<path d="M25.4005 15.1783L23.6894 14.6223C23.2342 14.4742 22.7453 14.7236 22.5974 15.1788C22.4494 15.634 22.6985 16.1229 23.1538 16.2708L24.8649 16.8268C25.3192 16.9746 25.8088 16.7262 25.9569 16.2704C26.1048 15.8152 25.8557 15.3263 25.4005 15.1783Z" fill="#2AA0BE"/>
<path d="M13.0004 21.897C12.5218 21.897 12.1338 22.285 12.1338 22.7636V24.5226C12.1338 25.0012 12.5218 25.3892 13.0004 25.3892C13.479 25.3892 13.8671 25.0012 13.8671 24.5226V22.7636C13.8671 22.285 13.4791 21.897 13.0004 21.897Z" fill="#2AA0BE"/>
</g>
<defs>
<clipPath id="clip0_119_155">
<rect width="26" height="26" fill="white"/>
</clipPath>
</defs>
</svg>
