<svg aria-hidden="true" style="position: absolute; width: 0; height: 0; overflow: hidden;" version="1.1" xmlns="http://www.w3.org/2000/svg" xmlns:xlink="http://www.w3.org/1999/xlink">
<defs>
<symbol id="icon-arrow-left" viewBox="0 0 32 32">
<path d="M31.546 31.776v-7.368l-21.76-8.635 21.76-8.635v-7.138l-31.546 12.664v6.447l31.546 12.664z"></path>
</symbol>
<symbol id="icon-arrow-menu" viewBox="0 0 25 32">
<path d="M0.691 1.477v27.669c0 1.309 2.19 1.976 3.49 1.038l19.162-13.835c0.787-0.568 0.787-1.507 0-2.075l-19.162-13.835c-1.3-0.939-3.49-0.272-3.49 1.038z"></path>
</symbol>
<symbol id="icon-arrow-pdf-botom" viewBox="0 0 32 32">
<path d="M30.456 7.232h-28.913c-1.368 0-2.065 1.652-1.084 2.633l14.456 14.457c0.594 0.594 1.575 0.594 2.169 0l14.456-14.457c0.981-0.981 0.284-2.633-1.084-2.633z"></path>
</symbol>
<symbol id="icon-arrow-pdf-right" viewBox="0 0 32 32">
<path d="M7.234 1.544v28.913c0 1.368 1.652 2.065 2.633 1.084l14.457-14.456c0.594-0.594 0.594-1.575 0-2.169l-14.457-14.456c-0.981-0.981-2.633-0.284-2.633 1.085z"></path>
</symbol>
<symbol id="icon-arrow-pdf-top" viewBox="0 0 32 32">
<path d="M1.544 24.768h28.913c1.368 0 2.065-1.652 1.084-2.633l-14.456-14.457c-0.594-0.594-1.575-0.594-2.169 0l-14.456 14.457c-0.981 0.981-0.284 2.633 1.085 2.633z"></path>
</symbol>
<symbol id="icon-arrow-right" viewBox="0 0 32 32">
<path d="M0 0v7.368l21.76 8.635-21.76 8.635v7.138l31.546-12.664v-6.447l-31.546-12.664z"></path>
</symbol>
<symbol id="icon-logo-white" viewBox="0 0 257 32">
<path d="M178.274 7.668h-0.293v-0.545h-0.837v0.545h-0.293c-1.409 0-2.234 0.811-2.234 1.995 0 1.21 0.798 1.995 2.234 1.995h0.293v0.678h0.837v-0.678h0.293c1.409 0 2.234-0.811 2.234-1.995 0-1.21-0.798-1.995-2.234-1.995zM176.865 10.939c-0.918 0-1.396-0.426-1.396-1.277 0-0.824 0.505-1.277 1.396-1.277h0.279v2.553h-0.279zM178.26 10.939h-0.279v-2.553h0.279c0.918 0 1.396 0.426 1.396 1.277 0 0.824-0.505 1.277-1.396 1.277zM184.696 11.564c-0.172 0-0.253-0.080-0.253-0.253v-1.795c0-0.825-0.585-1.316-1.542-1.316-0.692 0-1.264 0.239-1.729 0.678l0.492 0.519c0.319-0.332 0.745-0.532 1.197-0.532 0.505 0 0.838 0.213 0.838 0.532 0 0.306-0.293 0.359-0.891 0.439-0.771 0.12-1.716 0.332-1.716 1.316 0 0.691 0.519 1.17 1.304 1.17 0.585 0 1.117-0.266 1.396-0.678 0.053 0.465 0.279 0.638 0.771 0.638 0.133 0 0.24-0.013 0.279-0.027v-0.691h-0.146zM182.529 11.67c-0.413 0-0.652-0.199-0.652-0.572 0-0.519 0.519-0.598 1.024-0.678 0.385-0.067 0.625-0.106 0.771-0.2v0.519c0 0.505-0.532 0.931-1.144 0.931zM188.447 12.255h0.971l-1.742-2.394 1.663-1.596h-1.011l-1.795 1.782v-1.782h-0.798v3.989h0.798v-1.303l0.572-0.545 1.343 1.848zM192.888 8.266l-1.091 3.338-1.396-3.338h-0.878l1.875 4.255c-0.146 0.266-0.306 0.412-0.519 0.412-0.345 0-0.438-0.266-0.426-0.572l-0.731 0.12c0 0.612 0.346 1.17 1.144 1.17 0.678 0 1.117-0.532 1.37-1.25l1.476-4.136h-0.825zM197.808 8.266h-3.231v2.061c0 1.104-0.106 1.197-0.452 1.197h-0.212v0.731c0.093 0.013 0.226 0.027 0.372 0.027 0.771 0 1.078-0.426 1.078-1.875v-1.436h1.648v3.285h0.798v-3.989zM200.947 9.769h-1.091v-1.503h-0.798v3.989h1.889c0.878 0 1.436-0.492 1.436-1.25s-0.545-1.237-1.436-1.237zM200.867 11.59h-1.010v-1.17h1.010c0.466 0 0.705 0.213 0.705 0.585s-0.24 0.585-0.705 0.585zM206.439 8.266h-3.67v0.705h1.437v3.285h0.798v-3.285h1.436v-0.705zM207.503 10.513h3.071c0.027-0.093 0.027-0.16 0.027-0.253 0-1.25-0.758-2.061-1.928-2.061s-1.968 0.838-1.968 2.061c0 1.184 0.718 2.061 2.034 2.061 0.837 0 1.396-0.319 1.729-0.718l-0.545-0.479c-0.226 0.293-0.598 0.519-1.183 0.519-0.705 0-1.144-0.439-1.236-1.13zM208.673 8.864c0.598 0 1.011 0.386 1.117 1.037h-2.274c0.12-0.638 0.532-1.037 1.157-1.037zM214.51 8.266h-3.67v0.705h1.436v3.285h0.798v-3.285h1.436v-0.705zM217.423 7.707h0.878v-0.798h-0.878v0.798zM217.462 12.255h0.798v-3.989h-0.798v3.989zM222.21 10.207c0.359-0.16 0.572-0.465 0.572-0.904 0-0.718-0.545-1.037-1.423-1.037h-1.782v3.989h1.928c0.864 0 1.383-0.372 1.383-1.090 0-0.479-0.239-0.798-0.678-0.957zM220.349 8.904h1.051c0.372 0 0.598 0.173 0.598 0.492 0 0.372-0.187 0.519-0.639 0.519h-1.010v-1.011zM221.426 11.617h-1.077v-1.104h1.024c0.452 0 0.718 0.213 0.718 0.559s-0.239 0.545-0.665 0.545zM224.351 10.513h3.071c0.027-0.093 0.027-0.16 0.027-0.253 0-1.25-0.758-2.061-1.928-2.061s-1.968 0.838-1.968 2.061c0 1.184 0.718 2.061 2.034 2.061 0.837 0 1.396-0.319 1.729-0.718l-0.545-0.479c-0.226 0.293-0.598 0.519-1.183 0.519-0.705 0-1.144-0.439-1.236-1.13zM225.521 8.864c0.598 0 1.011 0.386 1.117 1.037h-2.274c0.12-0.638 0.532-1.037 1.157-1.037zM231.12 8.266v1.596h-1.942v-1.596h-0.797v3.989h0.797v-1.675h1.942v1.675h0.798v-3.989h-0.798zM236.346 8.266h-3.67v0.705h1.437v3.285h0.797v-3.285h1.437v-0.705zM179.63 17.117h-1.21l-1.13 3.098-1.144-3.098h-1.224v3.989h0.771v-3.152l1.157 3.152h0.851l1.157-3.152v3.152h0.771v-3.989zM181.386 19.364h3.072c0.027-0.093 0.027-0.16 0.027-0.253 0-1.25-0.758-2.061-1.928-2.061s-1.968 0.838-1.968 2.061c0 1.184 0.718 2.061 2.035 2.061 0.837 0 1.396-0.319 1.729-0.718l-0.545-0.479c-0.226 0.293-0.598 0.519-1.183 0.519-0.705 0-1.144-0.439-1.237-1.13zM182.556 17.715c0.598 0 1.010 0.386 1.117 1.037h-2.274c0.119-0.638 0.532-1.037 1.157-1.037zM188.155 17.117v1.596h-1.942v-1.596h-0.798v3.989h0.798v-1.675h1.942v1.675h0.797v-3.989h-0.797zM190.708 19.364h3.071c0.027-0.093 0.027-0.16 0.027-0.253 0-1.25-0.758-2.061-1.928-2.061s-1.968 0.838-1.968 2.061c0 1.184 0.718 2.061 2.034 2.061 0.837 0 1.396-0.319 1.729-0.718l-0.545-0.479c-0.226 0.293-0.598 0.519-1.183 0.519-0.705 0-1.144-0.439-1.236-1.13zM191.877 17.715c0.598 0 1.011 0.386 1.117 1.037h-2.274c0.12-0.638 0.532-1.037 1.157-1.037zM198.088 20.402v-3.285h-3.271v1.662c0 0.785-0.040 1.303-0.12 1.622h-0.466v1.636h0.758v-0.931h2.872v0.931h0.758v-1.636h-0.532zM195.468 20.402c0.080-0.399 0.12-0.944 0.12-1.582v-0.997h1.715v2.58h-1.835zM204.165 21.106h0.957l-1.622-2.42 1.556-1.569h-0.997l-1.676 1.755v-1.755h-0.798v1.769l-1.676-1.769h-1.010l1.569 1.582-1.636 2.407h0.971l1.224-1.875 0.558 0.558v1.317h0.798v-1.33l0.545-0.545 1.236 1.875zM210.521 17.117h-1.21l-1.13 3.098-1.144-3.098h-1.224v3.989h0.771v-3.152l1.157 3.152h0.851l1.157-3.152v3.152h0.771v-3.989zM212.276 19.364h3.072c0.027-0.093 0.027-0.16 0.027-0.253 0-1.25-0.758-2.061-1.928-2.061s-1.968 0.838-1.968 2.061c0 1.184 0.718 2.061 2.035 2.061 0.837 0 1.396-0.319 1.729-0.718l-0.545-0.479c-0.226 0.293-0.598 0.519-1.183 0.519-0.705 0-1.144-0.439-1.237-1.13zM213.447 17.715c0.598 0 1.010 0.386 1.117 1.037h-2.274c0.12-0.638 0.532-1.037 1.157-1.037zM219.045 17.117v1.596h-1.942v-1.596h-0.798v3.989h0.798v-1.675h1.942v1.675h0.798v-3.989h-0.798zM224.271 17.117h-3.67v0.705h1.436v3.285h0.798v-3.285h1.436v-0.705zM227.862 17.117l-1.091 3.338-1.396-3.338h-0.878l1.875 4.255c-0.146 0.266-0.306 0.412-0.518 0.412-0.346 0-0.439-0.266-0.426-0.572l-0.732 0.12c0 0.612 0.346 1.17 1.144 1.17 0.678 0 1.117-0.532 1.37-1.25l1.476-4.136h-0.825zM234.697 17.117h-3.67v0.705h1.437v3.285h0.798v-3.285h1.436v-0.705zM238.593 20.415c-0.173 0-0.253-0.080-0.253-0.253v-1.795c0-0.825-0.585-1.317-1.542-1.317-0.692 0-1.264 0.239-1.729 0.678l0.492 0.519c0.319-0.332 0.745-0.532 1.197-0.532 0.505 0 0.838 0.213 0.838 0.532 0 0.306-0.293 0.359-0.891 0.439-0.771 0.12-1.715 0.332-1.715 1.317 0 0.691 0.518 1.17 1.303 1.17 0.585 0 1.117-0.266 1.396-0.678 0.054 0.465 0.28 0.638 0.771 0.638 0.133 0 0.24-0.013 0.279-0.027v-0.691h-0.146zM236.426 20.521c-0.412 0-0.652-0.199-0.652-0.572 0-0.519 0.519-0.598 1.024-0.678 0.385-0.067 0.625-0.106 0.771-0.2v0.519c0 0.505-0.532 0.931-1.144 0.931zM179.551 25.968v3.285h-1.516v-3.285h-0.798v3.285h-1.516v-3.285h-0.798v3.989h5.426v-3.989h-0.798zM183.327 30.024c1.197 0 2.021-0.838 2.021-2.061 0-1.25-0.797-2.061-2.021-2.061-1.197 0-2.021 0.838-2.021 2.061 0 1.25 0.798 2.061 2.021 2.061zM183.327 29.346c-0.731 0-1.211-0.545-1.211-1.383s0.479-1.383 1.211-1.383c0.731 0 1.21 0.545 1.21 1.383s-0.479 1.383-1.21 1.383zM189.032 25.968l-1.091 3.338-1.396-3.338h-0.878l1.875 4.255c-0.146 0.266-0.306 0.412-0.519 0.412-0.345 0-0.438-0.266-0.426-0.572l-0.731 0.12c0 0.612 0.346 1.17 1.144 1.17 0.678 0 1.117-0.532 1.37-1.25l1.476-4.136h-0.825zM190.269 28.082h2.314v-0.771h-2.314v0.771zM197.317 28.176c-0.014-1.051-0.732-1.795-1.716-1.795-0.652 0-1.157 0.239-1.45 0.652 0.067-0.652 0.399-1.011 1.104-1.157l1.157-0.239c0.466-0.106 0.732-0.372 0.771-0.824l0.014-0.133-0.758-0.133-0.027 0.12c-0.027 0.16-0.106 0.239-0.253 0.266l-0.944 0.2c-1.224 0.253-1.782 1.064-1.782 2.606 0 1.396 0.758 2.287 1.955 2.287 1.143 0 1.941-0.771 1.928-1.848zM195.389 29.346c-0.665 0-1.117-0.492-1.117-1.197s0.438-1.144 1.117-1.144c0.678 0 1.104 0.452 1.104 1.183 0 0.705-0.426 1.157-1.104 1.157zM198.26 25.41h0.878v-0.798h-0.878v0.798zM198.301 29.957h0.798v-3.989h-0.798v3.989zM202.636 27.896c0.346-0.173 0.519-0.452 0.519-0.838-0.014-0.705-0.586-1.157-1.463-1.157-0.758 0-1.356 0.359-1.635 0.944l0.652 0.346c0.173-0.412 0.505-0.638 0.957-0.638 0.439 0 0.705 0.2 0.705 0.545 0 0.319-0.239 0.519-0.665 0.519h-0.479v0.625h0.505c0.492 0 0.784 0.213 0.784 0.545 0 0.359-0.332 0.572-0.864 0.572-0.479 0-0.851-0.239-1.064-0.691l-0.665 0.293c0.266 0.665 0.891 1.064 1.715 1.064 1.011 0 1.689-0.492 1.689-1.197 0-0.452-0.24-0.785-0.692-0.931zM206.917 25.968v1.596h-1.941v-1.596h-0.798v3.989h0.798v-1.675h1.941v1.675h0.798v-3.989h-0.798zM209.471 28.215h3.072c0.027-0.093 0.027-0.16 0.027-0.253 0-1.25-0.758-2.061-1.928-2.061s-1.968 0.838-1.968 2.061c0 1.184 0.718 2.061 2.035 2.061 0.837 0 1.396-0.319 1.729-0.718l-0.545-0.479c-0.226 0.293-0.598 0.519-1.183 0.519-0.705 0-1.144-0.439-1.237-1.13zM210.641 26.566c0.598 0 1.010 0.386 1.117 1.037h-2.274c0.119-0.638 0.532-1.037 1.157-1.037zM215.202 30.024c0.851 0 1.556-0.439 1.782-1.197l-0.758-0.239c-0.173 0.465-0.545 0.758-1.024 0.758-0.731 0-1.183-0.545-1.183-1.383s0.452-1.383 1.183-1.383c0.492 0 0.851 0.293 1.024 0.758l0.758-0.239c-0.226-0.758-0.917-1.197-1.782-1.197-1.183 0-1.995 0.838-1.995 2.061s0.812 2.061 1.995 2.061zM220.601 25.968l-1.091 3.338-1.396-3.338h-0.878l1.875 4.255c-0.146 0.266-0.306 0.412-0.518 0.412-0.346 0-0.439-0.266-0.426-0.572l-0.732 0.12c0 0.612 0.346 1.17 1.144 1.17 0.678 0 1.117-0.532 1.37-1.25l1.476-4.136h-0.825z"></path>
<path d="M18.491 8.691h-1.137v-2.513h-4.608v2.513h-1.257c-6.343 0-10.113 3.59-10.113 8.916 0 5.505 3.71 8.916 10.113 8.916h1.257v3.112h4.608v-3.112h1.137c6.463 0 10.233-3.59 10.233-8.916 0-5.505-3.77-8.916-10.233-8.916zM11.669 22.754c-3.77 0-5.685-1.675-5.685-5.146 0-3.291 2.035-5.146 5.685-5.146h1.077v10.293h-1.077zM18.431 22.754h-1.077v-10.293h1.077c3.71 0 5.685 1.676 5.685 5.146 0 3.291-2.035 5.146-5.685 5.146zM33.211 29.277h4.608v-22.739h-4.608v22.739zM70.552 6.537h-6.762l-6.403 17.234-6.343-17.234h-6.882v22.739h4.488v-17.114l6.343 17.114h4.787l6.283-16.935v16.935h4.488v-22.739zM76.955 29.277h4.608v-22.739h-4.608v22.739zM112.979 6.537v18.551h-7.959v-18.551h-4.608v18.551h-7.899v-18.551h-4.608v22.739h29.621v-22.739h-4.547zM133.863 15.334h-5.326v-4.787h11.669v-4.009h-16.277v22.739h9.934c5.087 0 8.198-2.633 8.198-7.061 0-4.249-3.112-6.882-8.198-6.882zM133.324 25.507h-4.847v-6.523h4.847c2.693 0 4.069 1.137 4.069 3.231 0 2.154-1.377 3.291-4.069 3.291z"></path>
</symbol>
</defs>
</svg>
