<svg width="102" height="23" viewBox="0 0 102 23" fill="none" xmlns="http://www.w3.org/2000/svg">
<path d="M20.3388 -2.32063e-07L18.5203 20.6017L10.1694 23L1.81853 20.6017L0 0L20.3388 -2.32063e-07Z" fill="url(#paint0_linear_530_737)"/>
<path d="M30.6998 12.7357L30.6998 14.8703L24.6699 14.8703L24.6699 14.5105L27.3499 10.0016L24.9092 10.0016L24.9092 7.86719L30.6759 7.86719L30.6759 8.25087L28.0438 12.7118L30.6998 12.7357Z" fill="#191919"/>
<path d="M39.5067 7.86683L39.5067 14.8699L37.6402 14.8699L37.4249 14.3663C36.8506 14.822 36.1328 15.0858 35.3192 15.0858C33.1896 15.0858 31.6582 13.5268 31.6582 11.3444C31.6582 9.18583 33.1896 7.62695 35.3192 7.62695C36.1328 7.62695 36.8746 7.89079 37.4488 8.37047L37.6881 7.81883L39.5067 7.81883L39.5067 7.86683ZM37.2335 11.3684C37.2335 10.457 36.5635 9.78547 35.6781 9.78547C34.7689 9.78547 34.1228 10.457 34.1228 11.3684C34.1228 12.2797 34.7928 12.9752 35.6781 12.9752C36.5635 12.9752 37.2335 12.2797 37.2335 11.3684Z" fill="#191919"/>
<path d="M48.2872 10.648L48.2872 14.869L45.8945 14.869L45.8945 10.9358C45.8945 10.1204 45.6073 9.71263 44.9852 9.71263C44.2673 9.71263 43.8127 10.2402 43.8127 11.1276L43.8127 14.869L41.4199 14.869L41.4199 5.34766L43.8127 5.34766L43.8127 8.32159C44.3153 7.91387 44.9852 7.65006 45.6791 7.65006C47.2583 7.67404 48.2872 8.84919 48.2872 10.648Z" fill="#191919"/>
<path d="M57.5242 7.86683L57.5242 14.8699L55.6577 14.8699L55.4424 14.3663C54.8681 14.822 54.1503 15.0858 53.3367 15.0858C51.2071 15.0858 49.6758 13.5268 49.6758 11.3444C49.6758 9.18583 51.2071 7.62695 53.3367 7.62695C54.1503 7.62695 54.8921 7.89079 55.4664 8.37047L55.7056 7.81883L57.5242 7.81883L57.5242 7.86683ZM55.227 11.3684C55.227 10.457 54.557 9.78547 53.6717 9.78547C52.7625 9.78547 52.1164 10.457 52.1164 11.3684C52.1164 12.2797 52.7864 12.9752 53.6717 12.9752C54.557 12.9752 55.227 12.2797 55.227 11.3684Z" fill="#191919"/>
<path d="M63.9365 7.84232L63.9365 10.0488L63.0033 10.0488C62.1418 10.0488 61.8069 10.4326 61.8069 11.3199L61.8069 14.8694L59.4141 14.8694L59.4141 7.86636L61.0173 7.86636L61.4001 8.6338C61.9026 8.0582 62.5007 7.81836 63.3143 7.81836L63.9365 7.81836L63.9365 7.84232Z" fill="#191919"/>
<path d="M64.6777 11.3678C64.6777 9.20932 66.3048 7.65039 68.578 7.65039C70.8511 7.65039 72.4783 9.20932 72.4783 11.3678C72.4783 13.5263 70.8272 15.0852 68.578 15.0852C66.3288 15.1092 64.6777 13.5263 64.6777 11.3678ZM68.6019 12.9267C69.4873 12.9267 70.1093 12.2792 70.1093 11.3678C70.1093 10.4564 69.4873 9.80888 68.6019 9.80888C67.7166 9.80888 67.0944 10.4564 67.0944 11.3678C67.0944 12.3031 67.7166 12.9267 68.6019 12.9267Z" fill="#191919"/>
<path d="M80.7327 7.86719L77.9331 14.8703L75.7557 14.8703L72.9082 7.86719L75.5403 7.86719L76.8564 12.0163L78.1484 7.86719L80.7327 7.86719Z" fill="#191919"/>
<path d="M81.8828 7.86719L84.2756 9.61795L84.2756 14.8703L81.8828 14.8703L81.8828 7.86719Z" fill="#FFEA23"/>
<path d="M81.8828 4.36523L84.2513 4.36523L84.2756 7.86683L81.8828 6.11602L81.8828 4.36523Z" fill="#005BBB"/>
<path d="M89.61 15.1092C87.3605 15.1092 85.7578 13.5263 85.7578 11.3678C85.7578 9.20932 87.3605 7.65039 89.61 7.65039C91.5721 7.65039 93.0316 8.89752 93.2946 10.7442L90.9496 10.7442C90.7586 10.1686 90.2082 9.80888 89.5857 9.80888C88.7487 9.80888 88.1506 10.4564 88.1506 11.3678C88.1506 12.2792 88.7487 12.9267 89.5857 12.9267C90.2325 12.9267 90.7586 12.519 90.9496 11.8954L93.3189 11.8954C93.0558 13.8141 91.5721 15.1092 89.61 15.1092Z" fill="#191919"/>
<path d="M101.623 10.648L101.623 14.869L99.2297 14.869L99.2297 10.9358C99.2297 10.1204 98.9432 9.71263 98.3207 9.71263C97.6027 9.71263 97.1486 10.2402 97.1486 11.1276L97.1486 14.869L94.7559 14.869L94.7559 5.34766L97.1486 5.34766L97.1486 8.32159C97.6505 7.91387 98.3207 7.65006 99.0144 7.65006C100.594 7.67404 101.623 8.84919 101.623 10.648Z" fill="#191919"/>
<path d="M3.03866 9.8084C3.03866 9.8084 2.63188 10.0723 2.60795 10.3361C2.58403 10.5759 2.63188 10.7917 3.1583 10.6478C3.68471 10.504 4.11542 10.0482 4.85719 10.36C5.59896 10.6718 5.52717 10.6718 5.64681 10.456C5.74253 10.2402 5.74253 9.61656 5.52717 9.76048C5.31182 9.90432 4.28291 9.92836 3.90007 9.95232C3.51722 10.0003 3.42151 9.8564 3.42151 9.8564L2.7276 8.94504C2.7276 8.94504 2.82331 8.48931 3.18223 8.20155C3.54115 7.91371 3.90007 7.96171 3.90007 7.96171C3.90007 7.96171 3.7565 7.76987 3.54115 7.79383C3.32579 7.81779 3.18223 7.79383 3.06259 7.74583C3.06259 7.74583 3.99578 7.14629 4.28291 6.95441L4.23506 7.00238C4.76148 6.57068 5.19218 6.5467 5.19218 6.5467C5.19218 6.5467 5.47932 6.5467 5.67074 6.78653C5.83824 7.02636 5.81431 7.17027 6.19716 7.21823C6.58001 7.2662 7.29785 6.5467 7.29785 6.5467C7.29785 6.5467 6.3168 6.35483 5.74253 6.37882C5.16825 6.4028 5.04862 6.21094 5.04862 6.21094L4.97683 6.2589C4.0197 7.07433 2.5601 7.53001 2.5601 7.53001C2.27296 7.72188 2.10547 8.03367 2.10547 8.03367C2.10547 8.03367 2.1294 8.58532 2.5601 9.11292C2.91902 9.66456 3.03866 9.8084 3.03866 9.8084Z" fill="#191919"/>
<path d="M15.7207 5.3971C15.3139 4.79752 14.8353 4.29387 14.3089 3.91014L16.5103 4.07802C16.5103 4.07802 15.9599 3.16665 14.2371 2.87885C13.95 2.83088 13.7107 2.8069 13.4714 2.8069L15.266 2.32723C15.266 2.32723 14.4764 1.99147 13.304 2.01546C12.1315 2.03944 11.5333 2.56707 11.5333 2.56707L12.4904 1.67969C12.4904 1.67969 9.30794 1.91952 7.60907 3.35852C6.65194 3.8142 5.95803 4.5337 5.71875 5.37312C5.71875 5.37312 5.81446 5.08532 6.89123 4.62964C7.94406 4.19794 8.73371 4.43777 8.73371 4.43777C8.73371 4.43777 8.2312 4.5337 7.80049 5.20524C7.36978 5.87677 7.8962 6.42838 7.8962 6.42838C7.8962 6.42838 8.20724 5.75685 8.75759 5.22921C9.35578 4.65362 10.313 4.62964 10.313 4.62964C10.313 4.62964 10.7675 5.27718 10.959 6.8361C13.7825 7.36373 16.271 9.16252 17.7067 11.8966C17.7546 9.83404 17.0846 7.45966 15.7207 5.3971Z" fill="#191919"/>
<path d="M14.2385 8.87283C12.7071 7.93751 11.6544 7.52976 10.9844 7.33789C11.0083 7.72163 11.0322 8.15331 11.0083 8.63299C14.2864 9.83212 16.0571 12.6622 16.9903 14.8447C17.3014 14.2211 17.5167 13.5256 17.6124 12.7821C16.8228 11.3671 15.6263 9.71224 14.2385 8.87283Z" fill="#191919"/>
<path d="M10.9593 10.2892C10.8397 10.1933 10.72 10.0974 10.6004 10.0254C10.5764 10.2412 10.4807 10.8168 10.2415 11.4404C9.85859 12.4477 9.35609 12.9513 8.66222 13.455C7.84863 14.0306 7.17865 14.4622 6.98723 15.4696C6.74795 16.6927 7.20258 17.8679 7.75292 18.6114C8.66222 19.8586 8.99717 20.554 9.04501 20.9378C9.21257 20.674 9.66716 20.0504 11.0789 18.5154C11.2942 18.2996 11.4857 18.0358 11.6532 17.7719C13.7589 14.7501 12.8256 11.8242 10.9593 10.2892Z" fill="#191919"/>
<path d="M7.10778 12.352C8.04096 12.1362 8.78275 11.4406 8.97418 10.5053C8.97418 10.4573 8.99806 10.4094 8.99806 10.3614C9.21346 9.04231 8.017 8.29883 8.017 8.29883C8.017 8.29883 8.63915 10.6252 7.39491 10.865C6.98813 10.937 6.366 11.057 5.98315 11.2488C5.98315 11.2488 5.9353 11.2488 5.91137 11.2488L5.86352 11.2488C5.57638 11.3687 4.11676 11.9683 3.73392 11.8964C3.30322 11.8244 2.99215 11.8484 2.7768 11.2967C2.7768 11.2967 2.25038 11.7285 2.39395 12.472C2.53752 13.2154 2.9443 13.4073 2.9443 13.4073C2.9443 13.4073 2.99215 12.9276 3.80571 12.5438C4.02105 12.4479 4.23641 12.4 4.42783 12.4C4.16463 12.8556 4.02106 13.4312 4.06891 14.1988C4.09284 14.5345 4.16463 14.8463 4.28427 15.1581C4.47569 13.5272 5.81566 12.6398 7.10778 12.352Z" fill="#191919"/>
<path d="M8.20812 13.3594C9.11746 12.7598 9.76348 11.9683 10.0506 11.1289C9.78744 11.3927 9.50025 11.6086 9.2371 11.7765C8.75847 12.0883 8.23208 12.3042 7.68174 12.424C6.98783 12.5919 5.50429 13.0956 5.02573 14.4386C4.83431 14.9902 4.78644 15.6138 4.81037 16.1894C5.71964 18.8755 8.30388 20.0028 8.30388 20.0028C8.16028 19.5951 4.23611 15.9256 8.20812 13.3594Z" fill="#191919"/>
<path d="M13.6639 11.2956C12.4914 10.1684 11.5582 9.64075 10.96 9.37695C10.9361 9.52087 10.8882 9.66479 10.8643 9.78467C13.8553 12.0631 14.4535 16.0683 10.0508 20.2654C10.96 19.9536 13.8793 17.3874 14.7407 16.9317C14.8125 15.4207 14.31 13.9578 14.31 13.9578C14.31 13.9578 15.1714 15.2289 15.6499 16.4041C16.0567 16.1163 16.3917 15.7565 16.6788 15.3488C15.8892 14.0298 14.7885 12.3989 13.6639 11.2956Z" fill="#191919"/>
<path d="M10.3132 6.93109C10.3132 6.93109 10.337 6.78719 10.2653 6.21159C10.1935 5.63599 9.88244 5.22827 9.88244 5.22827C9.88244 5.22827 9.02102 5.42014 8.66211 6.33151C8.66211 6.33151 8.92534 6.59532 9.35605 6.76321C9.88244 6.90711 10.2414 6.95507 10.3132 6.93109Z" fill="#191919"/>
<defs>
<linearGradient id="paint0_linear_530_737" x1="16.2652" y1="19.5838" x2="6.84501" y2="2.80088" gradientUnits="userSpaceOnUse">
<stop stop-color="#FFEA1B"/>
<stop offset="1" stop-color="#FAE47E"/>
</linearGradient>
</defs>
</svg>
