<svg width="188" height="255" viewBox="0 0 188 255" fill="none" xmlns="http://www.w3.org/2000/svg">
<g filter="url(#filter0_f_431_1525)">
<g filter="url(#filter1_i_431_1525)">
<path d="M127.758 137.966C123.483 154.23 106.833 163.948 90.5693 159.673C74.3057 155.398 64.5872 138.748 68.8624 122.484L97.1244 14.9706C101.4 -1.29299 118.05 -11.0115 134.313 -6.73633C150.577 -2.46114 160.295 14.1889 156.02 30.4525L127.758 137.966Z" fill="url(#paint0_radial_431_1525)"/>
<path d="M127.758 137.966C123.483 154.23 106.833 163.948 90.5693 159.673C74.3057 155.398 64.5872 138.748 68.8624 122.484L97.1244 14.9706C101.4 -1.29299 118.05 -11.0115 134.313 -6.73633C150.577 -2.46114 160.295 14.1889 156.02 30.4525L127.758 137.966Z" fill="#F4FF2A"/>
</g>
<g filter="url(#filter2_i_431_1525)">
<path d="M106.784 160.046C90.5618 164.475 73.8203 154.915 69.3909 138.693C64.9616 122.47 74.5216 105.729 90.7439 101.3L269.935 52.3727C286.157 47.9434 302.899 57.5034 307.328 73.7257C311.757 89.948 302.197 106.689 285.975 111.119L106.784 160.046Z" fill="url(#paint1_radial_431_1525)"/>
</g>
</g>
<defs>
<filter id="filter0_f_431_1525" x="32.8545" y="-42.7442" width="310.556" height="238.873" filterUnits="userSpaceOnUse" color-interpolation-filters="sRGB">
<feFlood flood-opacity="0" result="BackgroundImageFix"/>
<feBlend mode="normal" in="SourceGraphic" in2="BackgroundImageFix" result="shape"/>
<feGaussianBlur stdDeviation="17.5" result="effect1_foregroundBlur_431_1525"/>
</filter>
<filter id="filter1_i_431_1525" x="33.0504" y="-7.74423" width="123.978" height="229.332" filterUnits="userSpaceOnUse" color-interpolation-filters="sRGB">
<feFlood flood-opacity="0" result="BackgroundImageFix"/>
<feBlend mode="normal" in="SourceGraphic" in2="BackgroundImageFix" result="shape"/>
<feColorMatrix in="SourceAlpha" type="matrix" values="0 0 0 0 0 0 0 0 0 0 0 0 0 0 0 0 0 0 127 0" result="hardAlpha"/>
<feOffset dx="-34.8041" dy="60.9071"/>
<feGaussianBlur stdDeviation="73.9586"/>
<feComposite in2="hardAlpha" operator="arithmetic" k2="-1" k3="1"/>
<feColorMatrix type="matrix" values="0 0 0 0 1 0 0 0 0 1 0 0 0 0 1 0 0 0 0.87 0"/>
<feBlend mode="lighten" in2="shape" result="effect1_innerShadow_431_1525"/>
</filter>
<filter id="filter2_i_431_1525" x="33.504" y="51.2899" width="274.907" height="170.746" filterUnits="userSpaceOnUse" color-interpolation-filters="sRGB">
<feFlood flood-opacity="0" result="BackgroundImageFix"/>
<feBlend mode="normal" in="SourceGraphic" in2="BackgroundImageFix" result="shape"/>
<feColorMatrix in="SourceAlpha" type="matrix" values="0 0 0 0 0 0 0 0 0 0 0 0 0 0 0 0 0 0 127 0" result="hardAlpha"/>
<feOffset dx="-34.8041" dy="60.9071"/>
<feGaussianBlur stdDeviation="73.9586"/>
<feComposite in2="hardAlpha" operator="arithmetic" k2="-1" k3="1"/>
<feColorMatrix type="matrix" values="0 0 0 0 1 0 0 0 0 1 0 0 0 0 1 0 0 0 0.87 0"/>
<feBlend mode="lighten" in2="shape" result="effect1_innerShadow_431_1525"/>
</filter>
<radialGradient id="paint0_radial_431_1525" cx="0" cy="0" r="1" gradientUnits="userSpaceOnUse" gradientTransform="translate(102.172 177.243) rotate(-75.9781) scale(61.2884 40.4239)">
<stop stop-color="#F4FF2A"/>
<stop offset="0.635171" stop-color="#8EF5F5"/>
<stop offset="1" stop-color="#28E8E8"/>
</radialGradient>
<radialGradient id="paint1_radial_431_1525" cx="0" cy="0" r="1" gradientUnits="userSpaceOnUse" gradientTransform="translate(64.9684 206.091) rotate(-24.6315) scale(299.016 137.781)">
<stop stop-color="#15E2B1"/>
<stop offset="0.338542" stop-color="#F4F4F1" stop-opacity="0.01"/>
<stop offset="0.666667" stop-color="#3FDEDE"/>
<stop offset="1" stop-color="#28D1E8"/>
</radialGradient>
</defs>
</svg>
