<svg width="447" height="1124" viewBox="0 0 447 1124" fill="none" xmlns="http://www.w3.org/2000/svg">
<g filter="url(#filter0_f_119_240)">
<g filter="url(#filter1_ii_119_240)">
<path d="M287.467 516.388C220.464 475.088 132.668 495.925 91.3679 562.928C50.0683 629.931 70.905 717.728 137.908 759.028L580.845 1032.05C647.848 1073.35 735.645 1052.51 776.944 985.507C818.244 918.504 797.407 830.707 730.404 789.407L287.467 516.388Z" fill="url(#paint0_radial_119_240)"/>
<path d="M287.467 516.388C220.464 475.088 132.668 495.925 91.3679 562.928C50.0683 629.931 70.905 717.728 137.908 759.028L580.845 1032.05C647.848 1073.35 735.645 1052.51 776.944 985.507C818.244 918.504 797.407 830.707 730.404 789.407L287.467 516.388Z" fill="#5A28E8"/>
</g>
<g filter="url(#filter2_ii_119_240)">
<path d="M145.098 509.307C75.8295 546.684 49.9764 633.136 87.353 702.404C124.73 771.672 211.182 797.526 280.45 760.149L1045.58 347.289C1114.85 309.912 1140.7 223.46 1103.33 154.192C1065.95 84.9237 979.498 59.0705 910.23 96.4471L145.098 509.307Z" fill="url(#paint1_radial_119_240)"/>
<path d="M145.098 509.307C75.8295 546.684 49.9764 633.136 87.353 702.404C124.73 771.672 211.182 797.526 280.45 760.149L1045.58 347.289C1114.85 309.912 1140.7 223.46 1103.33 154.192C1065.95 84.9237 979.498 59.0705 910.23 96.4471L145.098 509.307Z" fill="#C5E215" fill-opacity="0.06"/>
</g>
</g>
<defs>
<filter id="filter0_f_119_240" x="0.15332" y="9.32568" width="1190.3" height="1113.94" filterUnits="userSpaceOnUse" color-interpolation-filters="sRGB">
<feFlood flood-opacity="0" result="BackgroundImageFix"/>
<feBlend mode="normal" in="SourceGraphic" in2="BackgroundImageFix" result="shape"/>
<feGaussianBlur stdDeviation="35" result="effect1_foregroundBlur_119_240"/>
</filter>
<filter id="filter1_ii_119_240" x="35.3493" y="495.173" width="812.782" height="618.996" filterUnits="userSpaceOnUse" color-interpolation-filters="sRGB">
<feFlood flood-opacity="0" result="BackgroundImageFix"/>
<feBlend mode="normal" in="SourceGraphic" in2="BackgroundImageFix" result="shape"/>
<feColorMatrix in="SourceAlpha" type="matrix" values="0 0 0 0 0 0 0 0 0 0 0 0 0 0 0 0 0 0 127 0" result="hardAlpha"/>
<feOffset dx="-34.8041" dy="60.9071"/>
<feGaussianBlur stdDeviation="73.9586"/>
<feComposite in2="hardAlpha" operator="arithmetic" k2="-1" k3="1"/>
<feColorMatrix type="matrix" values="0 0 0 0 1 0 0 0 0 1 0 0 0 0 1 0 0 0 0.87 0"/>
<feBlend mode="lighten" in2="shape" result="effect1_innerShadow_119_240"/>
<feColorMatrix in="SourceAlpha" type="matrix" values="0 0 0 0 0 0 0 0 0 0 0 0 0 0 0 0 0 0 127 0" result="hardAlpha"/>
<feOffset dx="49.9721" dy="181.15"/>
<feGaussianBlur stdDeviation="29.1504"/>
<feComposite in2="hardAlpha" operator="arithmetic" k2="-1" k3="1"/>
<feColorMatrix type="matrix" values="0 0 0 0 0.415489 0 0 0 0 0.246354 0 0 0 0 0.895833 0 0 0 1 0"/>
<feBlend mode="multiply" in2="effect1_innerShadow_119_240" result="effect2_innerShadow_119_240"/>
</filter>
<filter id="filter2_ii_119_240" x="35.4274" y="79.3257" width="1134.99" height="758.852" filterUnits="userSpaceOnUse" color-interpolation-filters="sRGB">
<feFlood flood-opacity="0" result="BackgroundImageFix"/>
<feBlend mode="normal" in="SourceGraphic" in2="BackgroundImageFix" result="shape"/>
<feColorMatrix in="SourceAlpha" type="matrix" values="0 0 0 0 0 0 0 0 0 0 0 0 0 0 0 0 0 0 127 0" result="hardAlpha"/>
<feOffset dx="-34.8041" dy="60.9071"/>
<feGaussianBlur stdDeviation="73.9586"/>
<feComposite in2="hardAlpha" operator="arithmetic" k2="-1" k3="1"/>
<feColorMatrix type="matrix" values="0 0 0 0 1 0 0 0 0 1 0 0 0 0 1 0 0 0 0.87 0"/>
<feBlend mode="lighten" in2="shape" result="effect1_innerShadow_119_240"/>
<feColorMatrix in="SourceAlpha" type="matrix" values="0 0 0 0 0 0 0 0 0 0 0 0 0 0 0 0 0 0 127 0" result="hardAlpha"/>
<feOffset dx="49.9721" dy="29.1504"/>
<feGaussianBlur stdDeviation="29.1504"/>
<feComposite in2="hardAlpha" operator="arithmetic" k2="-1" k3="1"/>
<feColorMatrix type="matrix" values="0 0 0 0 0.415489 0 0 0 0 0.246354 0 0 0 0 0.895833 0 0 0 1 0"/>
<feBlend mode="multiply" in2="effect1_innerShadow_119_240" result="effect2_innerShadow_119_240"/>
</filter>
<radialGradient id="paint0_radial_119_240" cx="0" cy="0" r="1" gradientUnits="userSpaceOnUse" gradientTransform="translate(73.9425 465.931) rotate(32.3552) scale(286.863 189.206)">
<stop stop-color="#F4F4F1"/>
<stop offset="0.635171" stop-color="#8EF5F5"/>
<stop offset="1" stop-color="#5A28E8"/>
</radialGradient>
<radialGradient id="paint1_radial_119_240" cx="0" cy="0" r="1" gradientUnits="userSpaceOnUse" gradientTransform="translate(-145.27 488.326) rotate(-18.9914) scale(1399.56 644.892)">
<stop stop-color="#15E2B1"/>
<stop offset="0.338542" stop-color="#F4F4F1" stop-opacity="0.01"/>
<stop offset="0.666667" stop-color="#3FDEDE"/>
<stop offset="1" stop-color="#2897E8"/>
</radialGradient>
</defs>
</svg>
