<svg width="964" height="945" viewBox="0 0 964 945" fill="none" xmlns="http://www.w3.org/2000/svg">
<g filter="url(#filter0_f_228_519)">
<g filter="url(#filter1_ii_228_519)">
<path d="M597.979 397.559C577.969 473.682 500.037 519.17 423.915 499.16C347.792 479.149 302.304 401.218 322.314 325.096L454.596 -178.128C474.606 -254.251 552.538 -299.739 628.66 -279.729C704.783 -259.718 750.271 -181.787 730.261 -105.665L597.979 397.559Z" fill="url(#paint0_radial_228_519)"/>
<path d="M597.979 397.559C577.969 473.682 500.037 519.17 423.915 499.16C347.792 479.149 302.304 401.218 322.314 325.096L454.596 -178.128C474.606 -254.251 552.538 -299.739 628.66 -279.729C704.783 -259.718 750.271 -181.787 730.261 -105.665L597.979 397.559Z" fill="#5A28E8"/>
</g>
<g filter="url(#filter2_ii_228_519)">
<path d="M499.809 500.903C423.879 521.635 345.52 476.888 324.788 400.959C304.056 325.03 348.803 246.671 424.732 225.939L1263.44 -3.06573C1339.37 -23.7977 1417.73 20.9487 1438.46 96.878C1459.2 172.807 1414.45 251.167 1338.52 271.899L499.809 500.903Z" fill="url(#paint1_radial_228_519)"/>
<path d="M499.809 500.903C423.879 521.635 345.52 476.888 324.788 400.959C304.056 325.03 348.803 246.671 424.732 225.939L1263.44 -3.06573C1339.37 -23.7977 1417.73 20.9487 1438.46 96.878C1459.2 172.807 1414.45 251.167 1338.52 271.899L499.809 500.903Z" fill="#C5E215" fill-opacity="0.06"/>
</g>
</g>
<defs>
<filter id="filter0_f_228_519" x="282.597" y="-319.446" width="1195.94" height="860.418" filterUnits="userSpaceOnUse" color-interpolation-filters="sRGB">
<feFlood flood-opacity="0" result="BackgroundImageFix"/>
<feBlend mode="normal" in="SourceGraphic" in2="BackgroundImageFix" result="shape"/>
<feGaussianBlur stdDeviation="17.5" result="effect1_foregroundBlur_228_519"/>
</filter>
<filter id="filter1_ii_228_519" x="282.793" y="-284.446" width="502.158" height="849.23" filterUnits="userSpaceOnUse" color-interpolation-filters="sRGB">
<feFlood flood-opacity="0" result="BackgroundImageFix"/>
<feBlend mode="normal" in="SourceGraphic" in2="BackgroundImageFix" result="shape"/>
<feColorMatrix in="SourceAlpha" type="matrix" values="0 0 0 0 0 0 0 0 0 0 0 0 0 0 0 0 0 0 127 0" result="hardAlpha"/>
<feOffset dx="-34.8041" dy="60.9071"/>
<feGaussianBlur stdDeviation="73.9586"/>
<feComposite in2="hardAlpha" operator="arithmetic" k2="-1" k3="1"/>
<feColorMatrix type="matrix" values="0 0 0 0 1 0 0 0 0 1 0 0 0 0 1 0 0 0 0.87 0"/>
<feBlend mode="lighten" in2="shape" result="effect1_innerShadow_228_519"/>
<feColorMatrix in="SourceAlpha" type="matrix" values="0 0 0 0 0 0 0 0 0 0 0 0 0 0 0 0 0 0 127 0" result="hardAlpha"/>
<feOffset dx="49.9721" dy="181.15"/>
<feGaussianBlur stdDeviation="29.1504"/>
<feComposite in2="hardAlpha" operator="arithmetic" k2="-1" k3="1"/>
<feColorMatrix type="matrix" values="0 0 0 0 0.415489 0 0 0 0 0.246354 0 0 0 0 0.895833 0 0 0 1 0"/>
<feBlend mode="multiply" in2="effect1_innerShadow_228_519" result="effect2_innerShadow_228_519"/>
</filter>
<filter id="filter2_ii_228_519" x="284.916" y="-8.13422" width="1208.59" height="575.013" filterUnits="userSpaceOnUse" color-interpolation-filters="sRGB">
<feFlood flood-opacity="0" result="BackgroundImageFix"/>
<feBlend mode="normal" in="SourceGraphic" in2="BackgroundImageFix" result="shape"/>
<feColorMatrix in="SourceAlpha" type="matrix" values="0 0 0 0 0 0 0 0 0 0 0 0 0 0 0 0 0 0 127 0" result="hardAlpha"/>
<feOffset dx="-34.8041" dy="60.9071"/>
<feGaussianBlur stdDeviation="73.9586"/>
<feComposite in2="hardAlpha" operator="arithmetic" k2="-1" k3="1"/>
<feColorMatrix type="matrix" values="0 0 0 0 1 0 0 0 0 1 0 0 0 0 1 0 0 0 0.87 0"/>
<feBlend mode="lighten" in2="shape" result="effect1_innerShadow_228_519"/>
<feColorMatrix in="SourceAlpha" type="matrix" values="0 0 0 0 0 0 0 0 0 0 0 0 0 0 0 0 0 0 127 0" result="hardAlpha"/>
<feOffset dx="49.9721" dy="29.1504"/>
<feGaussianBlur stdDeviation="29.1504"/>
<feComposite in2="hardAlpha" operator="arithmetic" k2="-1" k3="1"/>
<feColorMatrix type="matrix" values="0 0 0 0 0.415489 0 0 0 0 0.246354 0 0 0 0 0.895833 0 0 0 1 0"/>
<feBlend mode="multiply" in2="effect1_innerShadow_228_519" result="effect2_innerShadow_228_519"/>
</filter>
<radialGradient id="paint0_radial_228_519" cx="0" cy="0" r="1" gradientUnits="userSpaceOnUse" gradientTransform="translate(478.22 581.397) rotate(-75.9781) scale(286.863 189.206)">
<stop stop-color="#F4F4F1"/>
<stop offset="0.635171" stop-color="#8EF5F5"/>
<stop offset="1" stop-color="#5A28E8"/>
</radialGradient>
<radialGradient id="paint1_radial_228_519" cx="0" cy="0" r="1" gradientUnits="userSpaceOnUse" gradientTransform="translate(304.088 716.419) rotate(-24.6315) scale(1399.56 644.892)">
<stop stop-color="#15E2B1"/>
<stop offset="0.338542" stop-color="#F4F4F1" stop-opacity="0.01"/>
<stop offset="0.666667" stop-color="#3FDEDE"/>
<stop offset="1" stop-color="#2897E8"/>
</radialGradient>
</defs>
</svg>
