<svg width="909" height="810" viewBox="0 0 909 810" fill="none" xmlns="http://www.w3.org/2000/svg">
<g clip-path="url(#clip0_264_882)">
<path d="M904.85 436.45L907.81 437.02L905.13 435.81V302.93L622.29 223.9L695.99 2.91995L695.62 2.75995L695.5 2.44995L325.36 140.93L142.65 89.88L142.01 89.59L142.12 90.13L141.95 90.34L141.88 90.37L141.9 90.41L3.51 261.28L2.97 261.18L3.21 261.65L2.5 262.53L3.48 262.16L281.16 802.18L282.37 804.53L281.46 799.88L427.85 806.04H428.13L428.18 805.89L904.85 436.45ZM143.04 90.87L285.91 155.69L184 193.82L143.18 91.57L143.04 90.87ZM183.29 194.08L164.55 201.09L143.94 95.53L183.28 194.08H183.29ZM183.57 194.78L227.42 304.6L183.09 296.02L164.7 201.83L183.57 194.77V194.78ZM184.27 194.52L286.87 156.13L552.79 276.78L509.91 359.27L228.29 304.78L184.27 194.52ZM597.15 296.91L572.32 371.35L510.68 359.42L553.48 277.09L597.15 296.9V296.91ZM553.82 276.43L585.99 214.54L621.32 224.41L597.38 296.19L553.81 276.42L553.82 276.43ZM597.83 297.22L901.7 435.08L573.06 371.49L597.83 297.22ZM509.55 359.97L362.93 642.03L228.62 305.61L509.55 359.97ZM510.32 360.12L572.08 372.07L427.83 804.58L363.3 642.95L510.32 360.12ZM572.82 372.21L903.86 436.27L428.6 804.62L572.82 372.21ZM904.37 303.5V435.47L598.07 296.5L622.05 224.61L904.38 303.5H904.37ZM621.56 223.7L586.34 213.86L693.78 7.18995L621.57 223.69L621.56 223.7ZM694.85 3.48995L585.61 213.65L326.59 141.27L694.85 3.48995ZM325.39 141.72L585.25 214.33L553.13 276.11L287.86 155.76L325.39 141.72ZM286.89 155.32L147.12 91.91L324.16 141.38L286.89 155.32ZM142.21 91.21L142.44 91.79L163.83 201.36L4.82 260.85L142.22 91.21H142.21ZM163.98 202.11L182.29 295.88L5.04 261.57L163.99 202.1L163.98 202.11ZM4.34 262.2L182.44 296.66L280.61 799.48L4.34 262.2ZM183.24 296.82L227.74 305.43L362.47 642.9L281.29 799.07L183.24 296.83V296.82ZM362.84 643.82L427.3 805.27L282.1 799.16L362.85 643.83L362.84 643.82Z" fill="white"/>
<path d="M699.29 3.66C699.29 5.68 697.65 7.32 695.63 7.32C693.61 7.32 691.97 5.68 691.97 3.66C691.97 1.64 693.61 0 695.63 0C697.65 0 699.29 1.64 699.29 3.66Z" fill="white"/>
<path d="M908.41 303.21C908.41 305.23 906.77 306.87 904.75 306.87C902.73 306.87 901.09 305.23 901.09 303.21C901.09 301.19 902.73 299.55 904.75 299.55C906.77 299.55 908.41 301.19 908.41 303.21Z" fill="white"/>
<path d="M908.41 436.05C908.41 438.07 906.77 439.71 904.75 439.71C902.73 439.71 901.09 438.07 901.09 436.05C901.09 434.03 902.73 432.39 904.75 432.39C906.77 432.39 908.41 434.03 908.41 436.05Z" fill="white"/>
<path d="M431.52 805.66C431.52 807.68 429.88 809.32 427.86 809.32C425.84 809.32 424.2 807.68 424.2 805.66C424.2 803.64 425.84 802 427.86 802C429.88 802 431.52 803.64 431.52 805.66Z" fill="white"/>
<path d="M285.15 798.35C285.15 800.37 283.51 802.01 281.49 802.01C279.47 802.01 277.83 800.37 277.83 798.35C277.83 796.33 279.47 794.69 281.49 794.69C283.51 794.69 285.15 796.33 285.15 798.35Z" fill="white"/>
<path d="M7.32 261.69C7.32 263.71 5.68 265.35 3.66 265.35C1.64 265.35 0 263.71 0 261.69C0 259.67 1.64 258.03 3.66 258.03C5.68 258.03 7.32 259.67 7.32 261.69Z" fill="white"/>
<path d="M145.89 90.2299C145.89 92.2499 144.25 93.8899 142.23 93.8899C140.21 93.8899 138.57 92.2499 138.57 90.2299C138.57 88.2099 140.21 86.5699 142.23 86.5699C144.25 86.5699 145.89 88.2099 145.89 90.2299Z" fill="white"/>
</g>
<defs>
<clipPath id="clip0_264_882">
<rect width="908.41" height="809.32" fill="white"/>
</clipPath>
</defs>
</svg>
