<svg width="811" height="832" viewBox="0 0 811 832" fill="none" xmlns="http://www.w3.org/2000/svg">
<path d="M404.117 818.717L580.144 777.014L405.162 499.271L404.117 818.717Z" stroke="white" stroke-width="0.56" stroke-miterlimit="10"/>
<path d="M580.144 777.014L406.751 13.1414L405.162 499.27L580.144 777.014Z" stroke="white" stroke-width="0.56" stroke-miterlimit="10"/>
<path d="M404.117 818.717L228.366 775.864L405.162 499.27L404.117 818.717Z" stroke="white" stroke-width="0.56" stroke-miterlimit="10"/>
<path d="M228.366 775.864L406.751 13.1414L405.162 499.27L228.366 775.864Z" stroke="white" stroke-width="0.56" stroke-miterlimit="10"/>
<path d="M721.967 664.846L405.162 499.27L406.751 13.1414L721.967 664.846Z" stroke="white" stroke-width="0.56" stroke-miterlimit="10"/>
<path d="M404.117 818.717L721.967 664.846C714.835 661.105 405.162 499.271 405.162 499.271L404.117 818.717Z" stroke="white" stroke-width="0.56" stroke-miterlimit="10"/>
<path d="M87.2801 662.77L405.162 499.271L406.752 13.1414L87.2801 662.77Z" stroke="white" stroke-width="0.56" stroke-miterlimit="10"/>
<path d="M404.117 818.717L87.2797 662.77C94.436 659.076 405.161 499.27 405.161 499.27L404.117 818.717Z" stroke="white" stroke-width="0.56" stroke-miterlimit="10"/>
<path d="M406.751 13.1414L804.71 500.577L405.162 499.27L406.751 13.1414Z" stroke="white" stroke-width="0.56" stroke-miterlimit="10"/>
<path d="M804.71 500.577L404.117 818.717L405.162 499.271L804.71 500.577Z" stroke="white" stroke-width="0.56" stroke-miterlimit="10"/>
<path d="M406.751 13.1414L5.61267 497.964L405.162 499.271L406.751 13.1414Z" stroke="white" stroke-width="0.56" stroke-miterlimit="10"/>
<path d="M5.61279 497.964L404.117 818.717L405.162 499.271L5.61279 497.964Z" stroke="white" stroke-width="0.56" stroke-miterlimit="10"/>
<path d="M406.751 13.1414L9.09145 337.106L405.161 499.271L406.751 13.1414Z" stroke="white" stroke-width="0.56" stroke-miterlimit="10"/>
<path d="M404.117 818.717L9.0918 337.106L405.162 499.27L404.117 818.717Z" stroke="white" stroke-width="0.56" stroke-miterlimit="10"/>
<path d="M406.751 13.1414L802.284 339.7L405.162 499.27L406.751 13.1414Z" stroke="white" stroke-width="0.56" stroke-miterlimit="10"/>
<path d="M404.117 818.717L802.283 339.7L405.161 499.27L404.117 818.717Z" stroke="white" stroke-width="0.56" stroke-miterlimit="10"/>
<path d="M405.162 499.27L723.601 165.275L406.751 13.1414L405.162 499.27Z" stroke="white" stroke-width="0.56" stroke-miterlimit="10"/>
<path d="M404.117 818.717L723.601 165.275L405.162 499.27L404.117 818.717Z" stroke="white" stroke-width="0.56" stroke-miterlimit="10"/>
<path d="M405.162 499.271L88.914 163.2L406.752 13.1414L405.162 499.271Z" stroke="white" stroke-width="0.56" stroke-miterlimit="10"/>
<path d="M404.116 818.717L88.9136 163.2L405.161 499.27L404.116 818.717Z" stroke="white" stroke-width="0.56" stroke-miterlimit="10"/>
<path d="M406.751 13.1414L586.468 52.0995L405.162 499.27L406.751 13.1414Z" stroke="white" stroke-width="0.56" stroke-miterlimit="10"/>
<path d="M404.117 818.717L586.468 52.0995L405.162 499.271L404.117 818.717Z" stroke="white" stroke-width="0.56" stroke-miterlimit="10"/>
<path d="M406.751 13.1414L226.784 50.9231L405.161 499.27L406.751 13.1414Z" stroke="white" stroke-width="0.56" stroke-miterlimit="10"/>
<path d="M404.117 818.717L226.784 50.923L405.161 499.27L404.117 818.717Z" stroke="white" stroke-width="0.56" stroke-miterlimit="10"/>
</svg>
