<svg width="813" height="835" viewBox="0 0 813 835" fill="none" xmlns="http://www.w3.org/2000/svg">
<g clip-path="url(#clip0_296_5319)">
<path d="M403.437 820.324L579.641 779.373L405.846 500.885L403.437 820.324Z" stroke="white" stroke-width="0.56" stroke-miterlimit="10"/>
<path d="M579.641 779.373L409.511 14.7667L405.846 500.885L579.641 779.373Z" stroke="white" stroke-width="0.56" stroke-miterlimit="10"/>
<path d="M403.437 820.324L227.87 776.72L405.846 500.885L403.437 820.324Z" stroke="white" stroke-width="0.56" stroke-miterlimit="10"/>
<path d="M227.871 776.72L409.512 14.7667L405.846 500.885L227.871 776.72Z" stroke="white" stroke-width="0.56" stroke-miterlimit="10"/>
<path d="M721.941 667.811L405.846 500.885L409.511 14.7667L721.941 667.811Z" stroke="white" stroke-width="0.56" stroke-miterlimit="10"/>
<path d="M403.437 820.324L721.941 667.811C714.825 664.04 405.846 500.885 405.846 500.885L403.437 820.324Z" stroke="white" stroke-width="0.56" stroke-miterlimit="10"/>
<path d="M87.2689 663.025L405.846 500.885L409.511 14.7667L87.2689 663.025Z" stroke="white" stroke-width="0.56" stroke-miterlimit="10"/>
<path d="M403.437 820.324L87.2691 663.025C94.4411 659.361 405.846 500.885 405.846 500.885L403.437 820.324Z" stroke="white" stroke-width="0.56" stroke-miterlimit="10"/>
<path d="M409.511 14.7667L805.385 503.897L405.846 500.885L409.511 14.7667Z" stroke="white" stroke-width="0.56" stroke-miterlimit="10"/>
<path d="M805.385 503.897L403.437 820.324L405.846 500.885L805.385 503.897Z" stroke="white" stroke-width="0.56" stroke-miterlimit="10"/>
<path d="M409.511 14.7667L6.30602 497.872L405.846 500.885L409.511 14.7667Z" stroke="white" stroke-width="0.56" stroke-miterlimit="10"/>
<path d="M6.30615 497.872L403.437 820.324L405.846 500.885L6.30615 497.872Z" stroke="white" stroke-width="0.56" stroke-miterlimit="10"/>
<path d="M409.512 14.7667L10.4722 337.03L405.846 500.885L409.512 14.7667Z" stroke="white" stroke-width="0.56" stroke-miterlimit="10"/>
<path d="M403.437 820.324L10.4717 337.03L405.845 500.885L403.437 820.324Z" stroke="white" stroke-width="0.56" stroke-miterlimit="10"/>
<path d="M409.511 14.7667L803.645 343.012L405.846 500.885L409.511 14.7667Z" stroke="white" stroke-width="0.56" stroke-miterlimit="10"/>
<path d="M403.437 820.324L803.645 343.012L405.846 500.885L403.437 820.324Z" stroke="white" stroke-width="0.56" stroke-miterlimit="10"/>
<path d="M405.846 500.885L725.708 168.252L409.511 14.7667L405.846 500.885Z" stroke="white" stroke-width="0.56" stroke-miterlimit="10"/>
<path d="M403.437 820.324L725.708 168.252L405.846 500.884L403.437 820.324Z" stroke="white" stroke-width="0.56" stroke-miterlimit="10"/>
<path d="M405.846 500.885L91.036 163.466L409.511 14.7667L405.846 500.885Z" stroke="white" stroke-width="0.56" stroke-miterlimit="10"/>
<path d="M403.437 820.324L91.0361 163.466L405.846 500.885L403.437 820.324Z" stroke="white" stroke-width="0.56" stroke-miterlimit="10"/>
<path d="M409.511 14.7667L589.06 54.4918L405.846 500.885L409.511 14.7667Z" stroke="white" stroke-width="0.56" stroke-miterlimit="10"/>
<path d="M403.437 820.324L589.06 54.4917L405.846 500.885L403.437 820.324Z" stroke="white" stroke-width="0.56" stroke-miterlimit="10"/>
<path d="M409.511 14.7667L229.384 51.7796L405.846 500.885L409.511 14.7667Z" stroke="white" stroke-width="0.56" stroke-miterlimit="10"/>
<path d="M403.437 820.324L229.384 51.7795L405.846 500.885L403.437 820.324Z" stroke="white" stroke-width="0.56" stroke-miterlimit="10"/>
</g>
<defs>
<clipPath id="clip0_296_5319">
<rect width="806.723" height="828.84" fill="white" transform="translate(6.25) rotate(0.432042)"/>
</clipPath>
</defs>
</svg>
